  0
SECTION
  2
ENTITIES
  0
POLYLINE
  8
0
  66
1
  70
1
  0
VERTEX
  8
0
  10
524.420911
  20
-93.193885
  0
VERTEX
  8
0
  10
524.471709
  20
-92.590758
  0
VERTEX
  8
0
  10
524.880660
  20
-93.036965
  42
0.271133
  0
VERTEX
  8
0
  10
525.082576
  20
-93.099293
  0
VERTEX
  8
0
  10
525.671880
  20
-92.961228
  0
VERTEX
  8
0
  10
525.373885
  20
-93.488049
  42
0.271133
  0
VERTEX
  8
0
  10
525.377003
  20
-93.699343
  0
VERTEX
  8
0
  10
525.690416
  20
-94.217141
  0
VERTEX
  8
0
  10
525.097294
  20
-94.096527
  42
0.271133
  0
VERTEX
  8
0
  10
524.897305
  20
-94.164786
  0
VERTEX
  8
0
  10
524.501700
  20
-94.622868
  0
VERTEX
  8
0
  10
524.433125
  20
-94.021503
  42
0.271133
  0
VERTEX
  8
0
  10
524.306407
  20
-93.852396
  0
VERTEX
  8
0
  10
523.748497
  20
-93.617708
  0
VERTEX
  8
0
  10
524.299238
  20
-93.366658
  42
0.271133
  0
VERTEX
  8
0
  10
524.420911
  20
-93.193885
  0
SEQEND
  0
POLYLINE
  8
0
  66
1
  70
1
  0
VERTEX
  8
0
  10
518.497327
  20
-91.595761
  0
VERTEX
  8
0
  10
517.998045
  20
-91.937900
  0
VERTEX
  8
0
  10
518.084988
  20
-91.338916
  42
0.271133
  0
VERTEX
  8
0
  10
518.005549
  20
-91.143099
  0
VERTEX
  8
0
  10
517.525868
  20
-90.773981
  0
VERTEX
  8
0
  10
518.122403
  20
-90.671572
  42
0.271133
  0
VERTEX
  8
0
  10
518.284089
  20
-90.535510
  0
VERTEX
  8
0
  10
518.486911
  20
-89.965243
  0
VERTEX
  8
0
  10
518.768647
  20
-90.500935
  42
0.271133
  0
VERTEX
  8
0
  10
518.948013
  20
-90.612662
  0
VERTEX
  8
0
  10
519.553045
  20
-90.629335
  0
VERTEX
  8
0
  10
519.130632
  20
-91.062820
  42
0.271133
  0
VERTEX
  8
0
  10
519.079801
  20
-91.267933
  0
VERTEX
  8
0
  10
519.250909
  20
-91.848504
  0
VERTEX
  8
0
  10
518.708108
  20
-91.580721
  42
0.271133
  0
VERTEX
  8
0
  10
518.497327
  20
-91.595761
  0
SEQEND
  0
POLYLINE
  8
0
  66
1
  70
1
  0
VERTEX
  8
0
  10
529.215552
  20
-82.661399
  0
VERTEX
  8
0
  10
529.112694
  20
-82.064941
  0
VERTEX
  8
0
  10
529.620907
  20
-82.393667
  42
0.271133
  0
VERTEX
  8
0
  10
529.832014
  20
-82.403090
  0
VERTEX
  8
0
  10
530.367494
  20
-82.120950
  0
VERTEX
  8
0
  10
530.211903
  20
-82.705871
  42
0.271133
  0
VERTEX
  8
0
  10
530.268177
  20
-82.909558
  0
VERTEX
  8
0
  10
530.701981
  20
-83.331643
  0
VERTEX
  8
0
  10
530.097607
  20
-83.364419
  42
0.271133
  0
VERTEX
  8
0
  10
529.921280
  20
-83.480881
  0
VERTEX
  8
0
  10
529.653905
  20
-84.023884
  0
VERTEX
  8
0
  10
529.435972
  20
-83.459219
  42
0.271133
  0
VERTEX
  8
0
  10
529.270722
  20
-83.327510
  0
VERTEX
  8
0
  10
528.671672
  20
-83.241019
  0
VERTEX
  8
0
  10
529.141355
  20
-82.859262
  42
0.271133
  0
VERTEX
  8
0
  10
529.215552
  20
-82.661399
  0
SEQEND
  0
POLYLINE
  8
0
  66
1
  70
1
  0
VERTEX
  8
0
  10
531.120031
  20
-104.792168
  0
VERTEX
  8
0
  10
531.705588
  20
-104.945348
  0
VERTEX
  8
0
  10
531.196025
  20
-105.271978
  42
0.271133
  0
VERTEX
  8
0
  10
531.100089
  20
-105.460263
  0
VERTEX
  8
0
  10
531.135354
  20
-106.064496
  0
VERTEX
  8
0
  10
530.667246
  20
-105.680807
  42
0.271133
  0
VERTEX
  8
0
  10
530.458531
  20
-105.647750
  0
VERTEX
  8
0
  10
529.894768
  20
-105.868007
  0
VERTEX
  8
0
  10
530.115025
  20
-105.304244
  42
0.271133
  0
VERTEX
  8
0
  10
530.081968
  20
-105.095529
  0
VERTEX
  8
0
  10
529.698279
  20
-104.627421
  0
VERTEX
  8
0
  10
530.302512
  20
-104.662686
  42
0.271133
  0
VERTEX
  8
0
  10
530.490797
  20
-104.566750
  0
VERTEX
  8
0
  10
530.817427
  20
-104.057187
  0
VERTEX
  8
0
  10
530.970607
  20
-104.642744
  42
0.271133
  0
VERTEX
  8
0
  10
531.120031
  20
-104.792168
  0
SEQEND
  0
POLYLINE
  8
0
  66
1
  70
1
  0
VERTEX
  8
0
  10
532.664497
  20
-115.692983
  0
VERTEX
  8
0
  10
532.328370
  20
-116.196333
  0
VERTEX
  8
0
  10
532.186196
  20
-115.608006
  42
0.271133
  0
VERTEX
  8
0
  10
532.039600
  20
-115.455807
  0
VERTEX
  8
0
  10
531.457018
  20
-115.291676
  0
VERTEX
  8
0
  10
531.972615
  20
-114.974657
  42
0.271133
  0
VERTEX
  8
0
  10
532.072064
  20
-114.788204
  0
VERTEX
  8
0
  10
532.048135
  20
-114.183416
  0
VERTEX
  8
0
  10
532.508966
  20
-114.575814
  42
0.271133
  0
VERTEX
  8
0
  10
532.717025
  20
-114.612778
  0
VERTEX
  8
0
  10
533.284818
  20
-114.403130
  0
VERTEX
  8
0
  10
533.054030
  20
-114.962664
  42
0.271133
  0
VERTEX
  8
0
  10
533.083168
  20
-115.171963
  0
VERTEX
  8
0
  10
533.458013
  20
-115.647181
  0
VERTEX
  8
0
  10
532.854547
  20
-115.600594
  42
0.271133
  0
VERTEX
  8
0
  10
532.664497
  20
-115.692983
  0
SEQEND
  0
POLYLINE
  8
0
  66
1
  70
1
  0
VERTEX
  8
0
  10
534.413510
  20
-68.169079
  0
VERTEX
  8
0
  10
535.010203
  20
-68.067597
  0
VERTEX
  8
0
  10
534.680305
  20
-68.575051
  42
0.271133
  0
VERTEX
  8
0
  10
534.670395
  20
-68.786135
  0
VERTEX
  8
0
  10
534.951299
  20
-69.322264
  0
VERTEX
  8
0
  10
534.366738
  20
-69.165325
  42
0.271133
  0
VERTEX
  8
0
  10
534.162922
  20
-69.221128
  0
VERTEX
  8
0
  10
533.739837
  20
-69.653957
  0
VERTEX
  8
0
  10
533.708456
  20
-69.049509
  42
0.271133
  0
VERTEX
  8
0
  10
533.592401
  20
-68.872913
  0
VERTEX
  8
0
  10
533.050016
  20
-68.604287
  0
VERTEX
  8
0
  10
533.615183
  20
-68.387657
  42
0.271133
  0
VERTEX
  8
0
  10
533.747273
  20
-68.222711
  0
VERTEX
  8
0
  10
533.835146
  20
-67.623862
  0
VERTEX
  8
0
  10
534.215819
  20
-68.094426
  42
0.271133
  0
VERTEX
  8
0
  10
534.413510
  20
-68.169079
  0
SEQEND
  0
POLYLINE
  8
0
  66
1
  70
1
  0
VERTEX
  8
0
  10
537.968183
  20
-74.240854
  0
VERTEX
  8
0
  10
537.828791
  20
-74.829845
  0
VERTEX
  8
0
  10
537.490290
  20
-74.328090
  42
0.271133
  0
VERTEX
  8
0
  10
537.299805
  20
-74.236600
  0
VERTEX
  8
0
  10
536.696565
  20
-74.286039
  0
VERTEX
  8
0
  10
537.069161
  20
-73.809054
  42
0.271133
  0
VERTEX
  8
0
  10
537.097309
  20
-73.599620
  0
VERTEX
  8
0
  10
536.863879
  20
-73.041183
  0
VERTEX
  8
0
  10
537.432657
  20
-73.248146
  42
0.271133
  0
VERTEX
  8
0
  10
537.640539
  20
-73.210198
  0
VERTEX
  8
0
  10
538.099511
  20
-72.815626
  0
VERTEX
  8
0
  10
538.078439
  20
-73.420521
  42
0.271133
  0
VERTEX
  8
0
  10
538.178769
  20
-73.606502
  0
VERTEX
  8
0
  10
538.695859
  20
-73.921081
  0
VERTEX
  8
0
  10
538.114058
  20
-74.087964
  42
0.271133
  0
VERTEX
  8
0
  10
537.968183
  20
-74.240854
  0
SEQEND
  0
POLYLINE
  8
0
  66
1
  70
1
  0
VERTEX
  8
0
  10
531.428422
  20
-74.207165
  0
VERTEX
  8
0
  10
531.443679
  20
-73.602096
  0
VERTEX
  8
0
  10
531.878152
  20
-74.023493
  42
0.271133
  0
VERTEX
  8
0
  10
532.083382
  20
-74.073844
  0
VERTEX
  8
0
  10
532.663552
  20
-73.901378
  0
VERTEX
  8
0
  10
532.397039
  20
-74.444805
  42
0.271133
  0
VERTEX
  8
0
  10
532.412573
  20
-74.655550
  0
VERTEX
  8
0
  10
532.755880
  20
-75.154029
  0
VERTEX
  8
0
  10
532.156693
  20
-75.068489
  42
0.271133
  0
VERTEX
  8
0
  10
531.961063
  20
-75.148385
  0
VERTEX
  8
0
  10
531.593069
  20
-75.628929
  0
VERTEX
  8
0
  10
531.489264
  20
-75.032635
  42
0.271133
  0
VERTEX
  8
0
  10
531.352824
  20
-74.871269
  0
VERTEX
  8
0
  10
530.782084
  20
-74.669781
  0
VERTEX
  8
0
  10
531.317115
  20
-74.386792
  42
0.271133
  0
VERTEX
  8
0
  10
531.428422
  20
-74.207165
  0
SEQEND
  0
POLYLINE
  8
0
  66
1
  70
1
  0
VERTEX
  8
0
  10
526.983668
  20
-77.493897
  0
VERTEX
  8
0
  10
526.939463
  20
-76.890252
  0
VERTEX
  8
0
  10
527.413199
  20
-77.266970
  42
0.271133
  0
VERTEX
  8
0
  10
527.622380
  20
-77.296934
  0
VERTEX
  8
0
  10
528.182821
  20
-77.068355
  0
VERTEX
  8
0
  10
527.970934
  20
-77.635317
  42
0.271133
  0
VERTEX
  8
0
  10
528.007077
  20
-77.843520
  0
VERTEX
  8
0
  10
528.397653
  20
-78.305896
  0
VERTEX
  8
0
  10
527.792964
  20
-78.279580
  42
0.271133
  0
VERTEX
  8
0
  10
527.606120
  20
-78.378293
  0
VERTEX
  8
0
  10
527.287069
  20
-78.892635
  0
VERTEX
  8
0
  10
527.125238
  20
-78.309409
  42
0.271133
  0
VERTEX
  8
0
  10
526.973619
  20
-78.162214
  0
VERTEX
  8
0
  10
526.385858
  20
-78.017719
  0
VERTEX
  8
0
  10
526.890530
  20
-77.683582
  42
0.271133
  0
VERTEX
  8
0
  10
526.983668
  20
-77.493897
  0
SEQEND
  0
POLYLINE
  8
0
  66
1
  70
1
  0
VERTEX
  8
0
  10
531.763904
  20
-66.179604
  0
VERTEX
  8
0
  10
532.339174
  20
-65.991440
  0
VERTEX
  8
0
  10
532.087523
  20
-66.541906
  42
0.271133
  0
VERTEX
  8
0
  10
532.108776
  20
-66.752152
  0
VERTEX
  8
0
  10
532.465499
  20
-67.241120
  0
VERTEX
  8
0
  10
531.864210
  20
-67.171890
  42
0.271133
  0
VERTEX
  8
0
  10
531.670822
  20
-67.257072
  0
VERTEX
  8
0
  10
531.316019
  20
-67.747435
  0
VERTEX
  8
0
  10
531.196052
  20
-67.154182
  42
0.271133
  0
VERTEX
  8
0
  10
531.055279
  20
-66.996582
  0
VERTEX
  8
0
  10
530.479276
  20
-66.810674
  0
VERTEX
  8
0
  10
531.006422
  20
-66.513254
  42
0.271133
  0
VERTEX
  8
0
  10
531.112807
  20
-66.330670
  0
VERTEX
  8
0
  10
531.111621
  20
-65.725409
  0
VERTEX
  8
0
  10
531.557381
  20
-66.134847
  42
0.271133
  0
VERTEX
  8
0
  10
531.763904
  20
-66.179604
  0
SEQEND
  0
POLYLINE
  8
0
  66
1
  70
1
  0
VERTEX
  8
0
  10
524.606099
  20
-99.433555
  0
VERTEX
  8
0
  10
524.035622
  20
-99.635788
  0
VERTEX
  8
0
  10
524.273681
  20
-99.079308
  42
0.271133
  0
VERTEX
  8
0
  10
524.247272
  20
-98.869648
  0
VERTEX
  8
0
  10
523.878650
  20
-98.389586
  0
VERTEX
  8
0
  10
524.481458
  20
-98.444032
  42
0.271133
  0
VERTEX
  8
0
  10
524.672696
  20
-98.354127
  0
VERTEX
  8
0
  10
525.015351
  20
-97.855199
  0
VERTEX
  8
0
  10
525.149849
  20
-98.445328
  42
0.271133
  0
VERTEX
  8
0
  10
525.294449
  20
-98.599424
  0
VERTEX
  8
0
  10
525.874844
  20
-98.771132
  0
VERTEX
  8
0
  10
525.355160
  20
-99.081406
  42
0.271133
  0
VERTEX
  8
0
  10
525.253290
  20
-99.266547
  0
VERTEX
  8
0
  10
525.269338
  20
-99.871596
  0
VERTEX
  8
0
  10
524.813658
  20
-99.473227
  42
0.271133
  0
VERTEX
  8
0
  10
524.606099
  20
-99.433555
  0
SEQEND
  0
POLYLINE
  8
0
  66
1
  70
1
  0
VERTEX
  8
0
  10
524.574700
  20
-106.343392
  0
VERTEX
  8
0
  10
525.160257
  20
-106.496572
  0
VERTEX
  8
0
  10
524.650694
  20
-106.823202
  42
0.271133
  0
VERTEX
  8
0
  10
524.554758
  20
-107.011487
  0
VERTEX
  8
0
  10
524.590023
  20
-107.615720
  0
VERTEX
  8
0
  10
524.121916
  20
-107.232031
  42
0.271133
  0
VERTEX
  8
0
  10
523.913200
  20
-107.198974
  0
VERTEX
  8
0
  10
523.349438
  20
-107.419231
  0
VERTEX
  8
0
  10
523.569694
  20
-106.855468
  42
0.271133
  0
VERTEX
  8
0
  10
523.536637
  20
-106.646753
  0
VERTEX
  8
0
  10
523.152948
  20
-106.178645
  0
VERTEX
  8
0
  10
523.757182
  20
-106.213910
  42
0.271133
  0
VERTEX
  8
0
  10
523.945466
  20
-106.117974
  0
VERTEX
  8
0
  10
524.272096
  20
-105.608411
  0
VERTEX
  8
0
  10
524.425276
  20
-106.193968
  42
0.271133
  0
VERTEX
  8
0
  10
524.574700
  20
-106.343392
  0
SEQEND
  0
POLYLINE
  8
0
  66
1
  70
1
  0
VERTEX
  8
0
  10
516.216155
  20
-108.186340
  0
VERTEX
  8
0
  10
516.801713
  20
-108.339520
  0
VERTEX
  8
0
  10
516.292150
  20
-108.666150
  42
0.271133
  0
VERTEX
  8
0
  10
516.196214
  20
-108.854434
  0
VERTEX
  8
0
  10
516.231478
  20
-109.458668
  0
VERTEX
  8
0
  10
515.763371
  20
-109.074979
  42
0.271133
  0
VERTEX
  8
0
  10
515.554656
  20
-109.041922
  0
VERTEX
  8
0
  10
514.990893
  20
-109.262178
  0
VERTEX
  8
0
  10
515.211150
  20
-108.698416
  42
0.271133
  0
VERTEX
  8
0
  10
515.178093
  20
-108.489700
  0
VERTEX
  8
0
  10
514.794404
  20
-108.021593
  0
VERTEX
  8
0
  10
515.398637
  20
-108.056858
  42
0.271133
  0
VERTEX
  8
0
  10
515.586922
  20
-107.960922
  0
VERTEX
  8
0
  10
515.913552
  20
-107.451359
  0
VERTEX
  8
0
  10
516.066732
  20
-108.036916
  42
0.271133
  0
VERTEX
  8
0
  10
516.216155
  20
-108.186340
  0
SEQEND
  0
POLYLINE
  8
0
  66
1
  70
1
  0
VERTEX
  8
0
  10
519.421022
  20
-115.078630
  0
VERTEX
  8
0
  10
519.376332
  20
-115.682240
  0
VERTEX
  8
0
  10
518.962885
  20
-115.240195
  42
0.271133
  0
VERTEX
  8
0
  10
518.760349
  20
-115.179914
  0
VERTEX
  8
0
  10
518.172472
  20
-115.323936
  0
VERTEX
  8
0
  10
518.465120
  20
-114.794126
  42
0.271133
  0
VERTEX
  8
0
  10
518.459863
  20
-114.582874
  0
VERTEX
  8
0
  10
518.141225
  20
-114.068276
  0
VERTEX
  8
0
  10
518.735538
  20
-114.182880
  42
0.271133
  0
VERTEX
  8
0
  10
518.934826
  20
-114.112600
  0
VERTEX
  8
0
  10
519.325774
  20
-113.650538
  0
VERTEX
  8
0
  10
519.400432
  20
-114.251178
  42
0.271133
  0
VERTEX
  8
0
  10
519.528855
  20
-114.418994
  0
VERTEX
  8
0
  10
520.089112
  20
-114.648023
  0
VERTEX
  8
0
  10
519.540940
  20
-114.904634
  42
0.271133
  0
VERTEX
  8
0
  10
519.421022
  20
-115.078630
  0
SEQEND
  0
POLYLINE
  8
0
  66
1
  70
1
  0
VERTEX
  8
0
  10
534.068786
  20
-108.763323
  0
VERTEX
  8
0
  10
534.654343
  20
-108.916502
  0
VERTEX
  8
0
  10
534.144780
  20
-109.243132
  42
0.271133
  0
VERTEX
  8
0
  10
534.048844
  20
-109.431417
  0
VERTEX
  8
0
  10
534.084109
  20
-110.035651
  0
VERTEX
  8
0
  10
533.616002
  20
-109.651962
  42
0.271133
  0
VERTEX
  8
0
  10
533.407286
  20
-109.618904
  0
VERTEX
  8
0
  10
532.843524
  20
-109.839161
  0
VERTEX
  8
0
  10
533.063781
  20
-109.275398
  42
0.271133
  0
VERTEX
  8
0
  10
533.030723
  20
-109.066683
  0
VERTEX
  8
0
  10
532.647034
  20
-108.598576
  0
VERTEX
  8
0
  10
533.251268
  20
-108.633840
  42
0.271133
  0
VERTEX
  8
0
  10
533.439552
  20
-108.537905
  0
VERTEX
  8
0
  10
533.766182
  20
-108.028341
  0
VERTEX
  8
0
  10
533.919362
  20
-108.613899
  42
0.271133
  0
VERTEX
  8
0
  10
534.068786
  20
-108.763323
  0
SEQEND
  0
POLYLINE
  8
0
  66
1
  70
1
  0
VERTEX
  8
0
  10
540.928218
  20
-114.175749
  0
VERTEX
  8
0
  10
540.492342
  20
-114.595693
  0
VERTEX
  8
0
  10
540.479104
  20
-113.990576
  42
0.271133
  0
VERTEX
  8
0
  10
540.368398
  20
-113.810579
  0
VERTEX
  8
0
  10
539.834314
  20
-113.525805
  0
VERTEX
  8
0
  10
540.405724
  20
-113.326224
  42
0.271133
  0
VERTEX
  8
0
  10
540.542701
  20
-113.165314
  0
VERTEX
  8
0
  10
540.648496
  20
-112.569370
  0
VERTEX
  8
0
  10
541.014884
  20
-113.051139
  42
0.271133
  0
VERTEX
  8
0
  10
541.210247
  20
-113.131689
  0
VERTEX
  8
0
  10
541.809715
  20
-113.048148
  0
VERTEX
  8
0
  10
541.464746
  20
-113.545479
  42
0.271133
  0
VERTEX
  8
0
  10
541.448510
  20
-113.756171
  0
VERTEX
  8
0
  10
541.713207
  20
-114.300485
  0
VERTEX
  8
0
  10
541.133616
  20
-114.126083
  42
0.271133
  0
VERTEX
  8
0
  10
540.928218
  20
-114.175749
  0
SEQEND
  0
POLYLINE
  8
0
  66
1
  70
1
  0
VERTEX
  8
0
  10
544.991535
  20
-72.007202
  42
0.000437
  0
VERTEX
  8
0
  10
543.738734
  20
-71.257087
  42
-0.011424
  0
VERTEX
  8
0
  10
542.902661
  20
-70.731197
  42
-0.018004
  0
VERTEX
  8
0
  10
542.392626
  20
-70.366830
  42
-0.032690
  0
VERTEX
  8
0
  10
541.745898
  20
-69.797678
  42
-0.042387
  0
VERTEX
  8
0
  10
541.318052
  20
-69.288725
  42
0.080652
  0
VERTEX
  8
0
  10
541.248241
  20
-69.217485
  42
0.018630
  0
VERTEX
  8
0
  10
540.893398
  20
-68.976119
  42
-0.014658
  0
VERTEX
  8
0
  10
540.504054
  20
-68.715783
  42
-0.041701
  0
VERTEX
  8
0
  10
540.378162
  20
-68.609305
  42
-0.005100
  0
VERTEX
  8
0
  10
539.007617
  20
-67.210513
  42
-0.010695
  0
VERTEX
  8
0
  10
538.375405
  20
-66.523126
  42
-0.020949
  0
VERTEX
  8
0
  10
537.401942
  20
-65.320143
  42
-0.024510
  0
VERTEX
  8
0
  10
536.666560
  20
-64.220471
  42
-0.014840
  0
VERTEX
  8
0
  10
536.414056
  20
-63.769838
  42
-0.011377
  0
VERTEX
  8
0
  10
536.115982
  20
-63.165650
  42
-0.004969
  0
VERTEX
  8
0
  10
535.981390
  20
-62.868752
  42
-0.001839
  0
VERTEX
  8
0
  10
535.628749
  20
-62.061822
  42
0.004384
  0
VERTEX
  8
0
  10
535.320196
  20
-61.365454
  42
0.007613
  0
VERTEX
  8
0
  10
535.132944
  20
-60.968825
  42
0.014250
  0
VERTEX
  8
0
  10
534.828100
  20
-60.390086
  42
0.017925
  0
VERTEX
  8
0
  10
534.556650
  20
-59.946498
  42
-0.107509
  0
VERTEX
  8
0
  10
534.451200
  20
-59.674946
  42
-0.014202
  0
VERTEX
  8
0
  10
534.445288
  20
-59.629089
  42
-0.009498
  0
VERTEX
  8
0
  10
534.439709
  20
-59.560187
  0
VERTEX
  8
0
  10
534.434452
  20
-59.484897
  0
VERTEX
  8
0
  10
534.432073
  20
-59.461995
  42
0.091041
  0
VERTEX
  8
0
  10
534.403437
  20
-59.372902
  42
0.126502
  0
VERTEX
  8
0
  10
534.357464
  20
-59.322980
  42
0.098803
  0
VERTEX
  8
0
  10
534.275587
  20
-59.290474
  42
0.045271
  0
VERTEX
  8
0
  10
534.085569
  20
-59.273234
  42
0.104204
  0
VERTEX
  8
0
  10
533.976119
  20
-59.296295
  42
0.067826
  0
VERTEX
  8
0
  10
533.830592
  20
-59.385671
  42
0.039014
  0
VERTEX
  8
0
  10
533.713725
  20
-59.497684
  42
0.025801
  0
VERTEX
  8
0
  10
533.560509
  20
-59.688312
  42
0.027109
  0
VERTEX
  8
0
  10
533.339037
  20
-60.032908
  42
0.015750
  0
VERTEX
  8
0
  10
533.010162
  20
-60.656187
  42
0.006241
  0
VERTEX
  8
0
  10
532.850834
  20
-60.993268
  42
0.002763
  0
VERTEX
  8
0
  10
532.504804
  20
-61.760822
  42
-0.005878
  0
VERTEX
  8
0
  10
532.217322
  20
-62.388049
  42
-0.018181
  0
VERTEX
  8
0
  10
532.114708
  20
-62.586178
  42
-0.032159
  0
VERTEX
  8
0
  10
530.484320
  20
-65.082663
  42
-0.030820
  0
VERTEX
  8
0
  10
528.469595
  20
-67.453150
  42
-0.022976
  0
VERTEX
  8
0
  10
526.545572
  20
-69.277399
  42
-0.017687
  0
VERTEX
  8
0
  10
523.862562
  20
-71.435855
  42
-0.007081
  0
VERTEX
  8
0
  10
523.734848
  20
-71.528571
  42
-0.003797
  0
VERTEX
  8
0
  10
523.492983
  20
-71.696246
  0
VERTEX
  8
0
  10
523.189822
  20
-71.904002
  0
VERTEX
  8
0
  10
523.092631
  20
-71.971902
  42
0.023279
  0
VERTEX
  8
0
  10
522.633435
  20
-72.330620
  42
0.044695
  0
VERTEX
  8
0
  10
522.421474
  20
-72.548445
  42
0.044901
  0
VERTEX
  8
0
  10
522.312440
  20
-72.710350
  42
0.063466
  0
VERTEX
  8
0
  10
522.261605
  20
-72.839048
  42
0.089849
  0
VERTEX
  8
0
  10
522.251235
  20
-72.986526
  42
0.092308
  0
VERTEX
  8
0
  10
522.292832
  20
-73.124352
  42
0.078533
  0
VERTEX
  8
0
  10
522.387066
  20
-73.252531
  42
0.052996
  0
VERTEX
  8
0
  10
522.570621
  20
-73.399214
  42
0.036970
  0
VERTEX
  8
0
  10
522.795017
  20
-73.520178
  42
0.024693
  0
VERTEX
  8
0
  10
523.150441
  20
-73.658494
  42
0.021019
  0
VERTEX
  8
0
  10
524.055852
  20
-73.918573
  42
0.022311
  0
VERTEX
  8
0
  10
524.926898
  20
-74.088869
  42
0.020154
  0
VERTEX
  8
0
  10
525.765737
  20
-74.179949
  42
0.016965
  0
VERTEX
  8
0
  10
526.767388
  20
-74.213945
  42
-0.034209
  0
VERTEX
  8
0
  10
526.523355
  20
-74.784311
  42
-0.026881
  0
VERTEX
  8
0
  10
526.126844
  20
-75.466624
  42
-0.049507
  0
VERTEX
  8
0
  10
525.110181
  20
-76.726138
  42
-0.029427
  0
VERTEX
  8
0
  10
524.463819
  20
-77.309156
  42
-0.034820
  0
VERTEX
  8
0
  10
523.858755
  20
-77.727980
  42
-0.048351
  0
VERTEX
  8
0
  10
523.131127
  20
-78.069851
  42
-0.061556
  0
VERTEX
  8
0
  10
522.513926
  20
-78.207641
  42
0.042131
  0
VERTEX
  8
0
  10
522.125673
  20
-78.278654
  42
0.032067
  0
VERTEX
  8
0
  10
521.635326
  20
-78.446188
  42
0.015181
  0
VERTEX
  8
0
  10
521.348578
  20
-78.575518
  42
0.007317
  0
VERTEX
  8
0
  10
520.766411
  20
-78.870283
  42
-0.007080
  0
VERTEX
  8
0
  10
520.178193
  20
-79.168464
  42
-0.014464
  0
VERTEX
  8
0
  10
519.884203
  20
-79.301902
  42
-0.030052
  0
VERTEX
  8
0
  10
519.376655
  20
-79.479770
  42
-0.038570
  0
VERTEX
  8
0
  10
518.965724
  20
-79.563021
  0
VERTEX
  8
0
  10
518.931241
  20
-79.566687
  0
VERTEX
  8
0
  10
518.319989
  20
-79.620663
  42
0.014826
  0
VERTEX
  8
0
  10
517.922162
  20
-79.667331
  42
0.025311
  0
VERTEX
  8
0
  10
517.691976
  20
-79.713282
  42
0.051959
  0
VERTEX
  8
0
  10
517.393530
  20
-79.822721
  42
0.076747
  0
VERTEX
  8
0
  10
517.216387
  20
-79.946132
  42
0.108875
  0
VERTEX
  8
0
  10
517.080363
  20
-80.148315
  42
0.094107
  0
VERTEX
  8
0
  10
517.027923
  20
-80.424467
  42
0.012820
  0
VERTEX
  8
0
  10
517.127453
  20
-80.610491
  42
0.005854
  0
VERTEX
  8
0
  10
517.360466
  20
-81.009433
  42
-0.001675
  0
VERTEX
  8
0
  10
517.662809
  20
-81.517278
  42
-0.004930
  0
VERTEX
  8
0
  10
517.763251
  20
-81.691178
  42
-0.012529
  0
VERTEX
  8
0
  10
517.977681
  20
-82.094296
  42
-0.018898
  0
VERTEX
  8
0
  10
518.102803
  20
-82.370015
  42
-0.036323
  0
VERTEX
  8
0
  10
518.218586
  20
-82.724608
  42
-0.060823
  0
VERTEX
  8
0
  10
518.245648
  20
-82.946254
  42
0.168376
  0
VERTEX
  8
0
  10
518.258017
  20
-82.981941
  42
0.009705
  0
VERTEX
  8
0
  10
518.662009
  20
-83.474779
  42
0.006635
  0
VERTEX
  8
0
  10
519.077803
  20
-83.949490
  42
0.020552
  0
VERTEX
  8
0
  10
519.220227
  20
-84.095285
  0
VERTEX
  8
0
  10
519.836812
  20
-84.688177
  42
0.010739
  0
VERTEX
  8
0
  10
520.241055
  20
-85.053739
  42
0.014996
  0
VERTEX
  8
0
  10
520.543649
  20
-85.300306
  42
0.025326
  0
VERTEX
  8
0
  10
520.967387
  20
-85.592130
  42
0.032608
  0
VERTEX
  8
0
  10
521.320644
  20
-85.779312
  42
0.048090
  0
VERTEX
  8
0
  10
521.761164
  20
-85.928218
  42
0.057528
  0
VERTEX
  8
0
  10
522.147702
  20
-85.972839
  42
-0.117876
  0
VERTEX
  8
0
  10
522.167953
  20
-85.977680
  42
-0.184592
  0
VERTEX
  8
0
  10
522.177060
  20
-85.987727
  42
-0.124899
  0
VERTEX
  8
0
  10
522.178827
  20
-86.002044
  42
-0.061807
  0
VERTEX
  8
0
  10
522.171722
  20
-86.029967
  42
-0.051369
  0
VERTEX
  8
0
  10
522.145945
  20
-86.080055
  42
-0.022999
  0
VERTEX
  8
0
  10
522.072596
  20
-86.181952
  42
-0.020798
  0
VERTEX
  8
0
  10
521.917744
  20
-86.361567
  42
-0.012018
  0
VERTEX
  8
0
  10
521.630034
  20
-86.654081
  42
-0.009569
  0
VERTEX
  8
0
  10
521.338139
  20
-86.926285
  42
-0.010815
  0
VERTEX
  8
0
  10
521.070261
  20
-87.156413
  42
-0.018954
  0
VERTEX
  8
0
  10
520.768498
  20
-87.385913
  42
-0.050237
  0
VERTEX
  8
0
  10
520.643524
  20
-87.456133
  42
-0.026246
  0
VERTEX
  8
0
  10
518.576345
  20
-88.231971
  42
-0.033839
  0
VERTEX
  8
0
  10
516.911718
  20
-88.637414
  42
-0.036759
  0
VERTEX
  8
0
  10
515.120540
  20
-88.813105
  42
-0.030999
  0
VERTEX
  8
0
  10
512.988731
  20
-88.732720
  42
0.048400
  0
VERTEX
  8
0
  10
513.031810
  20
-89.176700
  42
0.035693
  0
VERTEX
  8
0
  10
513.189947
  20
-89.759857
  42
0.024751
  0
VERTEX
  8
0
  10
513.395458
  20
-90.266061
  42
0.020462
  0
VERTEX
  8
0
  10
513.698245
  20
-90.853290
  42
0.031100
  0
VERTEX
  8
0
  10
514.370229
  20
-91.880828
  42
0.036029
  0
VERTEX
  8
0
  10
515.063986
  20
-92.682481
  42
-0.137871
  0
VERTEX
  8
0
  10
515.129327
  20
-92.700847
  42
-0.045599
  0
VERTEX
  8
0
  10
515.291295
  20
-92.821229
  42
-0.017710
  0
VERTEX
  8
0
  10
515.410762
  20
-92.936083
  42
-0.010602
  0
VERTEX
  8
0
  10
515.599108
  20
-93.138882
  42
-0.004407
  0
VERTEX
  8
0
  10
515.699684
  20
-93.253915
  42
-0.002194
  0
VERTEX
  8
0
  10
515.898583
  20
-93.487557
  42
0.004161
  0
VERTEX
  8
0
  10
516.059512
  20
-93.675099
  42
0.016976
  0
VERTEX
  8
0
  10
516.100873
  20
-93.719368
  42
0.023426
  0
VERTEX
  8
0
  10
516.757443
  20
-94.317137
  42
0.024613
  0
VERTEX
  8
0
  10
517.434081
  20
-94.823555
  42
0.046583
  0
VERTEX
  8
0
  10
518.376889
  20
-95.338838
  42
0.080153
  0
VERTEX
  8
0
  10
518.984915
  20
-95.492230
  42
-0.037228
  0
VERTEX
  8
0
  10
519.241678
  20
-95.534082
  42
-0.080370
  0
VERTEX
  8
0
  10
519.353402
  20
-95.580844
  42
-0.162710
  0
VERTEX
  8
0
  10
519.413321
  20
-95.653236
  42
-0.185810
  0
VERTEX
  8
0
  10
519.413437
  20
-95.736171
  42
-0.128866
  0
VERTEX
  8
0
  10
519.316817
  20
-95.870838
  42
-0.041906
  0
VERTEX
  8
0
  10
518.904691
  20
-96.157874
  42
-0.016458
  0
VERTEX
  8
0
  10
518.556714
  20
-96.344233
  42
-0.011663
  0
VERTEX
  8
0
  10
518.051752
  20
-96.579154
  42
-0.007528
  0
VERTEX
  8
0
  10
517.651391
  20
-96.747038
  42
-0.015065
  0
VERTEX
  8
0
  10
517.447695
  20
-96.821827
  42
0.085526
  0
VERTEX
  8
0
  10
517.285569
  20
-96.908801
  42
0.132660
  0
VERTEX
  8
0
  10
517.213628
  20
-97.004624
  42
0.120856
  0
VERTEX
  8
0
  10
517.198111
  20
-97.115001
  42
0.080431
  0
VERTEX
  8
0
  10
517.241046
  20
-97.275496
  42
0.070954
  0
VERTEX
  8
0
  10
517.398868
  20
-97.525232
  42
0.034284
  0
VERTEX
  8
0
  10
517.824510
  20
-97.960867
  42
0.023067
  0
VERTEX
  8
0
  10
518.420168
  20
-98.444854
  42
0.016282
  0
VERTEX
  8
0
  10
519.315122
  20
-99.061924
  42
-0.009120
  0
VERTEX
  8
0
  10
519.017972
  20
-99.279341
  42
-0.006120
  0
VERTEX
  8
0
  10
518.565504
  20
-99.589682
  0
VERTEX
  8
0
  10
517.774187
  20
-100.113598
  42
0.018010
  0
VERTEX
  8
0
  10
516.832128
  20
-100.795379
  42
0.030739
  0
VERTEX
  8
0
  10
516.321359
  20
-101.246931
  42
-0.046665
  0
VERTEX
  8
0
  10
515.886012
  20
-101.607804
  42
-0.035339
  0
VERTEX
  8
0
  10
515.241685
  20
-101.983790
  42
-0.021490
  0
VERTEX
  8
0
  10
514.683724
  20
-102.229357
  42
-0.015361
  0
VERTEX
  8
0
  10
513.880150
  20
-102.514434
  42
-0.006346
  0
VERTEX
  8
0
  10
513.504719
  20
-102.629540
  42
-0.002237
  0
VERTEX
  8
0
  10
512.434170
  20
-102.937768
  42
0.006477
  0
VERTEX
  8
0
  10
511.555517
  20
-103.198834
  42
0.012378
  0
VERTEX
  8
0
  10
511.101164
  20
-103.352698
  42
-0.029315
  0
VERTEX
  8
0
  10
510.275806
  20
-103.601391
  42
-0.024008
  0
VERTEX
  8
0
  10
509.241682
  20
-103.796033
  42
-0.014305
  0
VERTEX
  8
0
  10
508.466305
  20
-103.881222
  42
-0.009831
  0
VERTEX
  8
0
  10
507.333532
  20
-103.950589
  42
0.229376
  0
VERTEX
  8
0
  10
507.288896
  20
-103.974538
  42
0.164904
  0
VERTEX
  8
0
  10
507.268542
  20
-104.040215
  42
0.060236
  0
VERTEX
  8
0
  10
507.280030
  20
-104.117975
  42
0.029468
  0
VERTEX
  8
0
  10
507.331333
  20
-104.269775
  42
0.025499
  0
VERTEX
  8
0
  10
507.448686
  20
-104.521777
  42
0.013394
  0
VERTEX
  8
0
  10
507.708572
  20
-104.982497
  42
0.010325
  0
VERTEX
  8
0
  10
508.122376
  20
-105.641013
  42
0.010704
  0
VERTEX
  8
0
  10
508.547902
  20
-106.258898
  42
0.017600
  0
VERTEX
  8
0
  10
509.620367
  20
-107.641632
  42
0.023667
  0
VERTEX
  8
0
  10
510.500154
  20
-108.600885
  42
0.036660
  0
VERTEX
  8
0
  10
511.749162
  20
-109.670041
  42
0.042785
  0
VERTEX
  8
0
  10
512.951362
  20
-110.405735
  42
0.029586
  0
VERTEX
  8
0
  10
513.416155
  20
-110.604712
  42
0.019541
  0
VERTEX
  8
0
  10
514.145653
  20
-110.835386
  42
0.004540
  0
VERTEX
  8
0
  10
514.404061
  20
-110.903604
  42
0.002959
  0
VERTEX
  8
0
  10
514.802106
  20
-111.002322
  0
VERTEX
  8
0
  10
515.461642
  20
-111.161839
  42
-0.100242
  0
VERTEX
  8
0
  10
515.368671
  20
-111.345718
  42
-0.077900
  0
VERTEX
  8
0
  10
515.174962
  20
-111.525226
  42
-0.032933
  0
VERTEX
  8
0
  10
515.038712
  20
-111.604334
  42
-0.014480
  0
VERTEX
  8
0
  10
514.713469
  20
-111.753984
  42
0.018926
  0
VERTEX
  8
0
  10
514.409105
  20
-111.897320
  42
0.043244
  0
VERTEX
  8
0
  10
514.284514
  20
-111.976200
  42
0.104659
  0
VERTEX
  8
0
  10
514.140972
  20
-112.142730
  42
0.126375
  0
VERTEX
  8
0
  10
514.095451
  20
-112.319957
  42
0.072191
  0
VERTEX
  8
0
  10
514.135485
  20
-112.595791
  42
0.090299
  0
VERTEX
  8
0
  10
514.236372
  20
-112.795204
  42
0.030253
  0
VERTEX
  8
0
  10
514.288184
  20
-112.855610
  42
0.025182
  0
VERTEX
  8
0
  10
514.358056
  20
-112.920832
  0
VERTEX
  8
0
  10
514.465475
  20
-113.007578
  42
-0.051889
  0
VERTEX
  8
0
  10
514.508355
  20
-113.053226
  42
-0.101582
  0
VERTEX
  8
0
  10
514.522318
  20
-113.082280
  42
-0.143323
  0
VERTEX
  8
0
  10
514.520851
  20
-113.119707
  42
-0.089273
  0
VERTEX
  8
0
  10
514.492274
  20
-113.171773
  42
-0.068497
  0
VERTEX
  8
0
  10
514.400540
  20
-113.257917
  42
-0.019197
  0
VERTEX
  8
0
  10
514.026281
  20
-113.502483
  42
-0.022622
  0
VERTEX
  8
0
  10
513.768108
  20
-113.738294
  42
-0.023346
  0
VERTEX
  8
0
  10
513.498014
  20
-113.942872
  42
-0.049320
  0
VERTEX
  8
0
  10
513.118682
  20
-114.151580
  42
-0.101455
  0
VERTEX
  8
0
  10
512.910884
  20
-114.194183
  42
0.044026
  0
VERTEX
  8
0
  10
512.732458
  20
-114.209924
  42
0.088236
  0
VERTEX
  8
0
  10
512.648076
  20
-114.240918
  42
0.149850
  0
VERTEX
  8
0
  10
512.598305
  20
-114.294852
  42
0.155015
  0
VERTEX
  8
0
  10
512.588374
  20
-114.365208
  42
0.124924
  0
VERTEX
  8
0
  10
512.643264
  20
-114.489480
  42
0.046534
  0
VERTEX
  8
0
  10
512.890537
  20
-114.750959
  42
0.020376
  0
VERTEX
  8
0
  10
513.123270
  20
-114.938994
  42
0.015710
  0
VERTEX
  8
0
  10
513.441874
  20
-115.160443
  42
0.014494
  0
VERTEX
  8
0
  10
513.735413
  20
-115.339204
  42
0.034152
  0
VERTEX
  8
0
  10
513.866890
  20
-115.402672
  42
0.022854
  0
VERTEX
  8
0
  10
513.927339
  20
-115.423767
  42
0.010314
  0
VERTEX
  8
0
  10
514.064033
  20
-115.461514
  42
-0.007439
  0
VERTEX
  8
0
  10
514.210905
  20
-115.501164
  42
-0.016929
  0
VERTEX
  8
0
  10
514.274532
  20
-115.521715
  42
-0.040902
  0
VERTEX
  8
0
  10
514.380713
  20
-115.570158
  42
-0.062737
  0
VERTEX
  8
0
  10
514.442106
  20
-115.615402
  42
-0.205416
  0
VERTEX
  8
0
  10
514.510471
  20
-115.774700
  42
0.180018
  0
VERTEX
  8
0
  10
514.536598
  20
-115.844918
  42
0.131092
  0
VERTEX
  8
0
  10
514.620394
  20
-115.901958
  42
0.044753
  0
VERTEX
  8
0
  10
514.693457
  20
-115.920420
  42
0.018852
  0
VERTEX
  8
0
  10
514.870771
  20
-115.941867
  42
-0.010163
  0
VERTEX
  8
0
  10
515.069594
  20
-115.962418
  42
-0.027433
  0
VERTEX
  8
0
  10
515.142516
  20
-115.975549
  42
-0.081377
  0
VERTEX
  8
0
  10
515.264225
  20
-116.026351
  42
-0.139459
  0
VERTEX
  8
0
  10
515.316539
  20
-116.084124
  42
0.108772
  0
VERTEX
  8
0
  10
515.405160
  20
-116.194748
  42
0.053366
  0
VERTEX
  8
0
  10
515.645912
  20
-116.349765
  42
0.028147
  0
VERTEX
  8
0
  10
515.885207
  20
-116.453530
  42
0.020840
  0
VERTEX
  8
0
  10
516.220440
  20
-116.561359
  42
0.017185
  0
VERTEX
  8
0
  10
516.541014
  20
-116.638167
  42
0.018851
  0
VERTEX
  8
0
  10
516.837561
  20
-116.686966
  42
0.027156
  0
VERTEX
  8
0
  10
517.140925
  20
-116.708571
  42
0.053600
  0
VERTEX
  8
0
  10
517.294713
  20
-116.694646
  42
-0.113689
  0
VERTEX
  8
0
  10
517.355507
  20
-116.696410
  42
-0.177001
  0
VERTEX
  8
0
  10
517.388204
  20
-116.719058
  42
-0.098573
  0
VERTEX
  8
0
  10
517.401369
  20
-116.748689
  42
-0.050040
  0
VERTEX
  8
0
  10
517.409063
  20
-116.811636
  0
VERTEX
  8
0
  10
517.410589
  20
-116.912847
  42
0.126293
  0
VERTEX
  8
0
  10
517.425236
  20
-116.951391
  42
0.224956
  0
VERTEX
  8
0
  10
517.446083
  20
-116.963158
  42
0.004534
  0
VERTEX
  8
0
  10
518.818630
  20
-117.048695
  42
0.008832
  0
VERTEX
  8
0
  10
519.524172
  20
-117.073758
  42
0.017836
  0
VERTEX
  8
0
  10
520.667945
  20
-117.053367
  42
0.023002
  0
VERTEX
  8
0
  10
521.550800
  20
-116.965241
  42
0.033043
  0
VERTEX
  8
0
  10
522.585730
  20
-116.742978
  42
0.037801
  0
VERTEX
  8
0
  10
523.454210
  20
-116.422826
  42
0.045053
  0
VERTEX
  8
0
  10
524.353175
  20
-115.909557
  42
0.044170
  0
VERTEX
  8
0
  10
525.162644
  20
-115.231732
  42
0.020783
  0
VERTEX
  8
0
  10
525.801866
  20
-117.406409
  42
0.017771
  0
VERTEX
  8
0
  10
526.742974
  20
-119.884224
  42
0.106003
  0
VERTEX
  8
0
  10
526.968439
  20
-120.206994
  42
0.112068
  0
VERTEX
  8
0
  10
527.290813
  20
-120.394424
  42
0.073181
  0
VERTEX
  8
0
  10
527.621415
  20
-120.446870
  42
0.049421
  0
VERTEX
  8
0
  10
528.113756
  20
-120.403662
  42
0.026728
  0
VERTEX
  8
0
  10
528.496705
  20
-120.310052
  42
0.018609
  0
VERTEX
  8
0
  10
529.032116
  20
-120.126421
  42
0.007228
  0
VERTEX
  8
0
  10
529.220438
  20
-120.050751
  42
0.002092
  0
VERTEX
  8
0
  10
529.866202
  20
-119.777187
  42
-0.004954
  0
VERTEX
  8
0
  10
529.931535
  20
-121.755692
  42
-0.003542
  0
VERTEX
  8
0
  10
529.975881
  20
-124.524190
  0
VERTEX
  8
0
  10
530.004542
  20
-129.273234
  0
VERTEX
  8
0
  10
537.334528
  20
-129.134932
  42
0.369113
  0
VERTEX
  8
0
  10
537.349429
  20
-129.121711
  42
0.011910
  0
VERTEX
  8
0
  10
537.411280
  20
-128.581816
  0
VERTEX
  8
0
  10
537.463403
  20
-127.947102
  42
0.001670
  0
VERTEX
  8
0
  10
537.541100
  20
-127.059561
  42
0.004353
  0
VERTEX
  8
0
  10
537.566808
  20
-126.718680
  0
VERTEX
  8
0
  10
537.728409
  20
-124.372784
  42
0.001009
  0
VERTEX
  8
0
  10
537.823107
  20
-122.959143
  42
0.001529
  0
VERTEX
  8
0
  10
537.880842
  20
-122.026322
  42
-0.019124
  0
VERTEX
  8
0
  10
537.895796
  20
-121.872640
  42
-0.001664
  0
VERTEX
  8
0
  10
538.140802
  20
-120.115853
  42
-0.290049
  0
VERTEX
  8
0
  10
538.161863
  20
-120.091176
  42
-0.105004
  0
VERTEX
  8
0
  10
538.245092
  20
-120.083628
  42
-0.031765
  0
VERTEX
  8
0
  10
538.327329
  20
-120.098788
  42
-0.014797
  0
VERTEX
  8
0
  10
538.499942
  20
-120.147564
  42
-0.005173
  0
VERTEX
  8
0
  10
538.596246
  20
-120.178981
  42
-0.001892
  0
VERTEX
  8
0
  10
538.858323
  20
-120.268592
  42
0.002467
  0
VERTEX
  8
0
  10
539.122675
  20
-120.358641
  42
0.004351
  0
VERTEX
  8
0
  10
539.273206
  20
-120.407638
  42
0.023122
  0
VERTEX
  8
0
  10
539.795308
  20
-120.546384
  42
0.042917
  0
VERTEX
  8
0
  10
540.084362
  20
-120.583505
  42
0.044487
  0
VERTEX
  8
0
  10
540.268065
  20
-120.574869
  42
0.066715
  0
VERTEX
  8
0
  10
540.386576
  20
-120.542182
  42
0.102534
  0
VERTEX
  8
0
  10
540.493398
  20
-120.468045
  42
0.108315
  0
VERTEX
  8
0
  10
540.557176
  20
-120.362594
  42
-0.020749
  0
VERTEX
  8
0
  10
540.712006
  20
-119.962993
  42
-0.014193
  0
VERTEX
  8
0
  10
540.978528
  20
-119.396166
  0
VERTEX
  8
0
  10
541.043914
  20
-119.268319
  0
VERTEX
  8
0
  10
541.223932
  20
-118.922018
  42
0.002152
  0
VERTEX
  8
0
  10
541.378774
  20
-118.622305
  42
0.003682
  0
VERTEX
  8
0
  10
541.467217
  20
-118.446104
  42
0.016669
  0
VERTEX
  8
0
  10
541.720934
  20
-117.884762
  42
0.023056
  0
VERTEX
  8
0
  10
541.871620
  20
-117.465543
  42
0.035269
  0
VERTEX
  8
0
  10
542.000136
  20
-116.912809
  42
0.039506
  0
VERTEX
  8
0
  10
542.040115
  20
-116.407621
  42
-0.027680
  0
VERTEX
  8
0
  10
542.587184
  20
-116.530241
  42
-0.020264
  0
VERTEX
  8
0
  10
543.314757
  20
-116.768417
  42
-0.003893
  0
VERTEX
  8
0
  10
543.506345
  20
-116.841554
  42
-0.001781
  0
VERTEX
  8
0
  10
543.923139
  20
-117.006104
  42
0.002478
  0
VERTEX
  8
0
  10
544.317337
  20
-117.161100
  42
0.004618
  0
VERTEX
  8
0
  10
544.530022
  20
-117.241260
  42
0.021945
  0
VERTEX
  8
0
  10
545.247017
  20
-117.468812
  42
0.029635
  0
VERTEX
  8
0
  10
545.792680
  20
-117.581799
  42
0.042629
  0
VERTEX
  8
0
  10
546.505751
  20
-117.624434
  42
0.043004
  0
VERTEX
  8
0
  10
547.209500
  20
-117.545681
  42
0.010363
  0
VERTEX
  8
0
  10
548.291047
  20
-117.305959
  42
0.013759
  0
VERTEX
  8
0
  10
549.096050
  20
-117.086317
  42
0.020261
  0
VERTEX
  8
0
  10
550.070773
  20
-116.747656
  42
0.023130
  0
VERTEX
  8
0
  10
550.895758
  20
-116.378087
  42
0.031462
  0
VERTEX
  8
0
  10
552.769057
  20
-115.279681
  42
0.030226
  0
VERTEX
  8
0
  10
554.563391
  20
-113.905235
  42
0.073240
  0
VERTEX
  8
0
  10
554.628934
  20
-113.829056
  42
0.154058
  0
VERTEX
  8
0
  10
554.641373
  20
-113.782024
  42
0.165754
  0
VERTEX
  8
0
  10
554.625643
  20
-113.742143
  42
0.094534
  0
VERTEX
  8
0
  10
554.568160
  20
-113.695840
  42
0.060311
  0
VERTEX
  8
0
  10
554.464421
  20
-113.655710
  42
0.020275
  0
VERTEX
  8
0
  10
554.141734
  20
-113.587577
  42
-0.006986
  0
VERTEX
  8
0
  10
553.749767
  20
-113.515639
  42
-0.022827
  0
VERTEX
  8
0
  10
553.631287
  20
-113.486503
  42
-0.030497
  0
VERTEX
  8
0
  10
553.516741
  20
-113.444982
  42
-0.050981
  0
VERTEX
  8
0
  10
553.453046
  20
-113.409303
  42
-0.100409
  0
VERTEX
  8
0
  10
553.399477
  20
-113.352736
  42
-0.140419
  0
VERTEX
  8
0
  10
553.383988
  20
-113.298671
  42
0.334449
  0
VERTEX
  8
0
  10
553.370113
  20
-113.280248
  42
0.019604
  0
VERTEX
  8
0
  10
553.026280
  20
-113.195895
  42
-0.006071
  0
VERTEX
  8
0
  10
552.616731
  20
-113.107096
  42
-0.038731
  0
VERTEX
  8
0
  10
552.553949
  20
-113.087463
  0
VERTEX
  8
0
  10
552.495021
  20
-113.065468
  42
-0.015541
  0
VERTEX
  8
0
  10
551.189465
  20
-113.106058
  42
-0.414214
  0
VERTEX
  8
0
  10
530.172696
  20
-92.089289
  42
-0.329016
  0
VERTEX
  8
0
  10
544.991535
  20
-72.007202
  0
SEQEND
  0
POLYLINE
  8
0
  66
1
  70
1
  0
VERTEX
  8
0
  10
562.450832
  20
-94.298466
  0
VERTEX
  8
0
  10
561.050832
  20
-94.298466
  0
VERTEX
  8
0
  10
561.050832
  20
-86.898466
  0
VERTEX
  8
0
  10
562.450832
  20
-86.898466
  0
VERTEX
  8
0
  10
562.450832
  20
-94.298466
  0
SEQEND
  0
POLYLINE
  8
0
  66
1
  70
1
  0
VERTEX
  8
0
  10
534.905273
  20
-63.448335
  42
0.414214
  0
VERTEX
  8
0
  10
533.905273
  20
-62.448335
  42
0.414214
  0
VERTEX
  8
0
  10
532.905273
  20
-63.448335
  42
0.414214
  0
VERTEX
  8
0
  10
533.905273
  20
-64.448335
  42
0.414214
  0
VERTEX
  8
0
  10
534.905273
  20
-63.448335
  0
SEQEND
  0
POLYLINE
  8
0
  66
1
  70
1
  0
VERTEX
  8
0
  10
577.536937
  20
-90.602033
  42
0.414214
  0
VERTEX
  8
0
  10
561.790442
  20
-74.855537
  42
0.414214
  0
VERTEX
  8
0
  10
546.043947
  20
-90.602033
  42
0.414214
  0
VERTEX
  8
0
  10
561.790442
  20
-106.348528
  42
0.414214
  0
VERTEX
  8
0
  10
577.536937
  20
-90.602033
  0
SEQEND
  0
POLYLINE
  8
0
  66
1
  70
1
  0
VERTEX
  8
0
  10
562.350361
  20
-100.361214
  0
VERTEX
  8
0
  10
561.555449
  20
-103.244908
  0
VERTEX
  8
0
  10
561.096167
  20
-103.235985
  0
VERTEX
  8
0
  10
561.748729
  20
-100.349526
  0
VERTEX
  8
0
  10
562.350361
  20
-100.361214
  0
SEQEND
  0
POLYLINE
  8
0
  66
1
  70
1
  0
VERTEX
  8
0
  10
561.321873
  20
-104.341988
  0
VERTEX
  8
0
  10
560.773957
  20
-104.331344
  0
VERTEX
  8
0
  10
560.916574
  20
-103.767184
  0
VERTEX
  8
0
  10
561.464490
  20
-103.777829
  0
VERTEX
  8
0
  10
561.321873
  20
-104.341988
  0
SEQEND
  0
POLYLINE
  8
0
  66
1
  70
1
  0
VERTEX
  8
0
  10
559.472734
  20
-104.194050
  0
VERTEX
  8
0
  10
558.985594
  20
-104.071372
  0
VERTEX
  8
0
  10
560.071461
  20
-101.948570
  0
VERTEX
  8
0
  10
558.671854
  20
-103.139128
  0
VERTEX
  8
0
  10
558.312360
  20
-103.048596
  0
VERTEX
  8
0
  10
558.310631
  20
-101.405408
  0
VERTEX
  8
0
  10
557.177701
  20
-103.616088
  0
VERTEX
  8
0
  10
556.719216
  20
-103.500626
  0
VERTEX
  8
0
  10
558.121494
  20
-100.759405
  0
VERTEX
  8
0
  10
558.718047
  20
-100.909636
  0
VERTEX
  8
0
  10
558.718311
  20
-102.646644
  0
VERTEX
  8
0
  10
560.270646
  20
-101.300630
  0
VERTEX
  8
0
  10
560.877618
  20
-101.453485
  0
VERTEX
  8
0
  10
559.472734
  20
-104.194050
  0
SEQEND
  0
POLYLINE
  8
0
  66
1
  70
1
  0
VERTEX
  8
0
  10
557.301479
  20
-101.615821
  42
-0.039617
  0
VERTEX
  8
0
  10
557.080479
  20
-101.948126
  42
-0.040864
  0
VERTEX
  8
0
  10
556.817362
  20
-102.231835
  42
-0.043696
  0
VERTEX
  8
0
  10
556.511022
  20
-102.466664
  42
-0.048163
  0
VERTEX
  8
0
  10
556.198741
  20
-102.625462
  42
-0.048340
  0
VERTEX
  8
0
  10
555.849804
  20
-102.725510
  42
-0.051505
  0
VERTEX
  8
0
  10
555.510090
  20
-102.752645
  42
-0.064919
  0
VERTEX
  8
0
  10
555.177332
  20
-102.699025
  42
-0.054622
  0
VERTEX
  8
0
  10
554.808592
  20
-102.543751
  42
-0.087349
  0
VERTEX
  8
0
  10
554.415993
  20
-102.225005
  42
-0.110782
  0
VERTEX
  8
0
  10
554.226088
  20
-101.872312
  42
-0.108491
  0
VERTEX
  8
0
  10
554.206715
  20
-101.471013
  42
-0.085153
  0
VERTEX
  8
0
  10
554.375598
  20
-100.990220
  42
-0.039036
  0
VERTEX
  8
0
  10
554.596252
  20
-100.657598
  42
-0.040893
  0
VERTEX
  8
0
  10
554.854755
  20
-100.377595
  42
-0.043325
  0
VERTEX
  8
0
  10
555.158129
  20
-100.146800
  42
-0.045596
  0
VERTEX
  8
0
  10
555.480683
  20
-99.981885
  42
-0.052849
  0
VERTEX
  8
0
  10
555.815123
  20
-99.887722
  42
-0.051608
  0
VERTEX
  8
0
  10
556.170111
  20
-99.864357
  42
-0.060040
  0
VERTEX
  8
0
  10
556.521958
  20
-99.921383
  42
-0.056830
  0
VERTEX
  8
0
  10
556.869526
  20
-100.065943
  42
-0.086227
  0
VERTEX
  8
0
  10
557.251975
  20
-100.375037
  42
-0.106269
  0
VERTEX
  8
0
  10
557.446558
  20
-100.725116
  42
-0.114756
  0
VERTEX
  8
0
  10
557.473200
  20
-101.121869
  42
-0.086774
  0
VERTEX
  8
0
  10
557.301479
  20
-101.615821
  0
SEQEND
  0
POLYLINE
  8
0
  66
1
  70
1
  0
VERTEX
  8
0
  10
556.031999
  20
-102.206842
  42
0.044161
  0
VERTEX
  8
0
  10
556.249630
  20
-102.071119
  42
0.039175
  0
VERTEX
  8
0
  10
556.466108
  20
-101.879641
  42
0.034909
  0
VERTEX
  8
0
  10
556.654945
  20
-101.658773
  42
0.032485
  0
VERTEX
  8
0
  10
556.824120
  20
-101.396363
  42
0.076676
  0
VERTEX
  8
0
  10
556.948704
  20
-101.059916
  42
0.111291
  0
VERTEX
  8
0
  10
556.943709
  20
-100.811183
  42
0.114845
  0
VERTEX
  8
0
  10
556.832063
  20
-100.591633
  42
0.091247
  0
VERTEX
  8
0
  10
556.594057
  20
-100.395326
  42
0.066051
  0
VERTEX
  8
0
  10
556.358330
  20
-100.302324
  42
0.071171
  0
VERTEX
  8
0
  10
556.124204
  20
-100.278415
  42
0.056013
  0
VERTEX
  8
0
  10
555.889916
  20
-100.312082
  42
0.050936
  0
VERTEX
  8
0
  10
555.646119
  20
-100.402852
  42
0.044496
  0
VERTEX
  8
0
  10
555.429665
  20
-100.536290
  42
0.038689
  0
VERTEX
  8
0
  10
555.209663
  20
-100.728747
  42
0.034010
  0
VERTEX
  8
0
  10
555.019256
  20
-100.951735
  42
0.032777
  0
VERTEX
  8
0
  10
554.854263
  20
-101.207330
  42
0.076676
  0
VERTEX
  8
0
  10
554.731318
  20
-101.539351
  42
0.107837
  0
VERTEX
  8
0
  10
554.734674
  20
-101.792510
  42
0.116423
  0
VERTEX
  8
0
  10
554.845382
  20
-102.016014
  42
0.093118
  0
VERTEX
  8
0
  10
555.084061
  20
-102.214369
  42
0.064704
  0
VERTEX
  8
0
  10
555.317440
  20
-102.307168
  42
0.068705
  0
VERTEX
  8
0
  10
555.552608
  20
-102.333627
  42
0.058416
  0
VERTEX
  8
0
  10
555.788779
  20
-102.299899
  42
0.053486
  0
VERTEX
  8
0
  10
556.031999
  20
-102.206842
  0
SEQEND
  0
POLYLINE
  8
0
  66
1
  70
1
  0
VERTEX
  8
0
  10
552.597052
  20
-101.855064
  0
VERTEX
  8
0
  10
552.258766
  20
-101.520923
  0
VERTEX
  8
0
  10
552.890768
  20
-101.121914
  0
VERTEX
  8
0
  10
551.275787
  20
-99.526720
  0
VERTEX
  8
0
  10
550.645697
  20
-99.927616
  0
VERTEX
  8
0
  10
550.303589
  20
-99.589699
  0
VERTEX
  8
0
  10
551.285654
  20
-98.970081
  0
VERTEX
  8
0
  10
551.522645
  20
-99.204168
  42
0.035220
  0
VERTEX
  8
0
  10
552.133760
  20
-99.102391
  42
0.028611
  0
VERTEX
  8
0
  10
552.863668
  20
-98.882472
  42
0.026180
  0
VERTEX
  8
0
  10
553.566197
  20
-98.583622
  42
0.026952
  0
VERTEX
  8
0
  10
554.214004
  20
-98.222591
  0
VERTEX
  8
0
  10
555.557592
  20
-99.549718
  0
VERTEX
  8
0
  10
553.309635
  20
-100.969265
  0
VERTEX
  8
0
  10
553.579117
  20
-101.235446
  0
VERTEX
  8
0
  10
552.597052
  20
-101.855064
  0
SEQEND
  0
POLYLINE
  8
0
  66
1
  70
1
  0
VERTEX
  8
0
  10
552.948415
  20
-100.612470
  0
VERTEX
  8
0
  10
554.846308
  20
-99.413533
  0
VERTEX
  8
0
  10
554.204138
  20
-98.779230
  42
-0.024102
  0
VERTEX
  8
0
  10
553.590476
  20
-99.092498
  42
-0.025841
  0
VERTEX
  8
0
  10
552.991776
  20
-99.326185
  42
-0.026884
  0
VERTEX
  8
0
  10
552.376438
  20
-99.495519
  42
-0.034890
  0
VERTEX
  8
0
  10
551.889599
  20
-99.566627
  0
VERTEX
  8
0
  10
552.948415
  20
-100.612470
  0
SEQEND
  0
POLYLINE
  8
0
  66
1
  70
1
  0
VERTEX
  8
0
  10
552.633440
  20
-98.191830
  42
-0.039617
  0
VERTEX
  8
0
  10
552.281735
  20
-98.380431
  42
-0.040864
  0
VERTEX
  8
0
  10
551.915844
  20
-98.506309
  42
-0.043696
  0
VERTEX
  8
0
  10
551.534927
  20
-98.568691
  42
-0.048163
  0
VERTEX
  8
0
  10
551.184669
  20
-98.561244
  42
-0.048340
  0
VERTEX
  8
0
  10
550.829834
  20
-98.484701
  42
-0.051505
  0
VERTEX
  8
0
  10
550.517553
  20
-98.348237
  42
-0.064919
  0
VERTEX
  8
0
  10
550.249530
  20
-98.143869
  42
-0.054622
  0
VERTEX
  8
0
  10
549.997779
  20
-97.832901
  42
-0.087349
  0
VERTEX
  8
0
  10
549.802174
  20
-97.366563
  42
-0.110782
  0
VERTEX
  8
0
  10
549.801278
  20
-96.965994
  42
-0.108491
  0
VERTEX
  8
0
  10
549.973659
  20
-96.603088
  42
-0.085153
  0
VERTEX
  8
0
  10
550.349526
  20
-96.258983
  42
-0.039036
  0
VERTEX
  8
0
  10
550.701077
  20
-96.069940
  42
-0.040893
  0
VERTEX
  8
0
  10
551.061150
  20
-95.945151
  42
-0.043325
  0
VERTEX
  8
0
  10
551.437547
  20
-95.884924
  42
-0.045596
  0
VERTEX
  8
0
  10
551.799750
  20
-95.891829
  42
-0.052849
  0
VERTEX
  8
0
  10
552.139027
  20
-95.966715
  42
-0.051608
  0
VERTEX
  8
0
  10
552.462993
  20
-96.113713
  42
-0.060040
  0
VERTEX
  8
0
  10
552.746236
  20
-96.330097
  42
-0.056830
  0
VERTEX
  8
0
  10
552.984381
  20
-96.621624
  42
-0.086227
  0
VERTEX
  8
0
  10
553.175595
  20
-97.074662
  42
-0.106269
  0
VERTEX
  8
0
  10
553.181849
  20
-97.475135
  42
-0.114756
  0
VERTEX
  8
0
  10
553.018021
  20
-97.837465
  42
-0.086774
  0
VERTEX
  8
0
  10
552.633440
  20
-98.191830
  0
SEQEND
  0
POLYLINE
  8
0
  66
1
  70
1
  0
VERTEX
  8
0
  10
551.235317
  20
-98.113494
  42
0.044161
  0
VERTEX
  8
0
  10
551.491243
  20
-98.096596
  42
0.039175
  0
VERTEX
  8
0
  10
551.772476
  20
-98.030004
  42
0.034909
  0
VERTEX
  8
0
  10
552.043219
  20
-97.924454
  42
0.032485
  0
VERTEX
  8
0
  10
552.316240
  20
-97.773000
  42
0.076676
  0
VERTEX
  8
0
  10
552.584908
  20
-97.535229
  42
0.111291
  0
VERTEX
  8
0
  10
552.697935
  20
-97.313603
  42
0.114845
  0
VERTEX
  8
0
  10
552.703169
  20
-97.067352
  42
0.091247
  0
VERTEX
  8
0
  10
552.586038
  20
-96.781934
  42
0.066051
  0
VERTEX
  8
0
  10
552.422143
  20
-96.588658
  42
0.071171
  0
VERTEX
  8
0
  10
552.227041
  20
-96.457047
  42
0.056013
  0
VERTEX
  8
0
  10
552.004612
  20
-96.376115
  42
0.050936
  0
VERTEX
  8
0
  10
551.746843
  20
-96.341032
  42
0.044496
  0
VERTEX
  8
0
  10
551.493033
  20
-96.356470
  42
0.038689
  0
VERTEX
  8
0
  10
551.208230
  20
-96.422262
  42
0.034010
  0
VERTEX
  8
0
  10
550.935103
  20
-96.528939
  42
0.032777
  0
VERTEX
  8
0
  10
550.668985
  20
-96.676360
  42
0.076676
  0
VERTEX
  8
0
  10
550.403852
  20
-96.911003
  42
0.107837
  0
VERTEX
  8
0
  10
550.287291
  20
-97.135757
  42
0.116423
  0
VERTEX
  8
0
  10
550.279364
  20
-97.385051
  42
0.093118
  0
VERTEX
  8
0
  10
550.396121
  20
-97.672592
  42
0.064704
  0
VERTEX
  8
0
  10
550.558042
  20
-97.864580
  42
0.068705
  0
VERTEX
  8
0
  10
550.752859
  20
-97.998932
  42
0.058416
  0
VERTEX
  8
0
  10
550.976976
  20
-98.080700
  42
0.053486
  0
VERTEX
  8
0
  10
551.235317
  20
-98.113494
  0
SEQEND
  0
POLYLINE
  8
0
  66
1
  70
1
  0
VERTEX
  8
0
  10
551.876808
  20
-95.863205
  0
VERTEX
  8
0
  10
551.308384
  20
-94.409615
  0
VERTEX
  8
0
  10
548.669918
  20
-94.795264
  0
VERTEX
  8
0
  10
548.485008
  20
-94.322409
  0
VERTEX
  8
0
  10
551.531042
  20
-93.872569
  0
VERTEX
  8
0
  10
552.285354
  20
-95.801516
  0
VERTEX
  8
0
  10
551.876808
  20
-95.863205
  0
SEQEND
  0
POLYLINE
  8
0
  66
1
  70
1
  0
VERTEX
  8
0
  10
548.026378
  20
-91.419906
  0
VERTEX
  8
0
  10
548.035652
  20
-90.917641
  0
VERTEX
  8
0
  10
550.349094
  20
-91.495034
  0
VERTEX
  8
0
  10
548.872731
  20
-90.401105
  0
VERTEX
  8
0
  10
548.879575
  20
-90.030450
  0
VERTEX
  8
0
  10
550.479758
  20
-89.656972
  0
VERTEX
  8
0
  10
548.070069
  20
-89.053620
  0
VERTEX
  8
0
  10
548.078798
  20
-88.580900
  0
VERTEX
  8
0
  10
551.066213
  20
-89.326574
  0
VERTEX
  8
0
  10
551.054856
  20
-89.941647
  0
VERTEX
  8
0
  10
549.362955
  20
-90.334926
  0
VERTEX
  8
0
  10
551.025299
  20
-91.542448
  0
VERTEX
  8
0
  10
551.013744
  20
-92.168265
  0
VERTEX
  8
0
  10
548.026378
  20
-91.419906
  0
SEQEND
  0
POLYLINE
  8
0
  66
1
  70
1
  0
VERTEX
  8
0
  10
549.709093
  20
-86.698312
  42
0.048598
  0
VERTEX
  8
0
  10
549.796839
  20
-86.717920
  42
0.056054
  0
VERTEX
  8
0
  10
549.874846
  20
-86.718758
  42
0.075196
  0
VERTEX
  8
0
  10
549.951867
  20
-86.700071
  42
0.067474
  0
VERTEX
  8
0
  10
550.028308
  20
-86.656011
  42
0.066316
  0
VERTEX
  8
0
  10
550.113557
  20
-86.570623
  42
0.059431
  0
VERTEX
  8
0
  10
550.181958
  20
-86.454791
  42
0.016805
  0
VERTEX
  8
0
  10
550.232352
  20
-86.329724
  42
0.008114
  0
VERTEX
  8
0
  10
550.323668
  20
-86.065887
  0
VERTEX
  8
0
  10
550.467688
  20
-85.626850
  0
VERTEX
  8
0
  10
549.540736
  20
-85.065502
  0
VERTEX
  8
0
  10
549.384994
  20
-85.540274
  42
0.014317
  0
VERTEX
  8
0
  10
549.307984
  20
-85.799909
  42
0.025528
  0
VERTEX
  8
0
  10
549.276507
  20
-85.948559
  42
0.042054
  0
VERTEX
  8
0
  10
549.264826
  20
-86.101332
  42
0.048031
  0
VERTEX
  8
0
  10
549.278724
  20
-86.234834
  42
0.140055
  0
VERTEX
  8
0
  10
549.422803
  20
-86.519583
  42
0.066593
  0
VERTEX
  8
0
  10
549.547491
  20
-86.622719
  42
0.060353
  0
VERTEX
  8
0
  10
549.709093
  20
-86.698312
  0
SEQEND
  0
POLYLINE
  8
0
  66
1
  70
1
  0
VERTEX
  8
0
  10
549.612222
  20
-87.226322
  42
-0.064420
  0
VERTEX
  8
0
  10
549.371154
  20
-87.111168
  42
-0.064934
  0
VERTEX
  8
0
  10
549.169105
  20
-86.939604
  42
-0.057585
  0
VERTEX
  8
0
  10
549.016347
  20
-86.724341
  42
-0.061537
  0
VERTEX
  8
0
  10
548.924869
  20
-86.494776
  42
-0.040127
  0
VERTEX
  8
0
  10
548.882248
  20
-86.266353
  42
-0.041914
  0
VERTEX
  8
0
  10
548.877691
  20
-86.043910
  42
-0.037779
  0
VERTEX
  8
0
  10
548.907564
  20
-85.825271
  42
-0.026423
  0
VERTEX
  8
0
  10
548.989878
  20
-85.520924
  0
VERTEX
  8
0
  10
549.363323
  20
-84.382491
  0
VERTEX
  8
0
  10
551.999318
  20
-85.973781
  0
VERTEX
  8
0
  10
551.840227
  20
-86.458764
  0
VERTEX
  8
0
  10
550.805069
  20
-85.830821
  0
VERTEX
  8
0
  10
550.607461
  20
-86.433220
  42
-0.016729
  0
VERTEX
  8
0
  10
550.490648
  20
-86.752806
  42
-0.031195
  0
VERTEX
  8
0
  10
550.411838
  20
-86.917528
  42
-0.069586
  0
VERTEX
  8
0
  10
550.303045
  20
-87.062188
  42
-0.061579
  0
VERTEX
  8
0
  10
550.142136
  20
-87.188112
  42
-0.123106
  0
VERTEX
  8
0
  10
549.891042
  20
-87.264068
  42
-0.050481
  0
VERTEX
  8
0
  10
549.756879
  20
-87.259548
  42
-0.045635
  0
VERTEX
  8
0
  10
549.612222
  20
-87.226322
  0
SEQEND
  0
POLYLINE
  8
0
  66
1
  70
1
  0
VERTEX
  8
0
  10
548.309973
  20
-87.593586
  0
VERTEX
  8
0
  10
548.468227
  20
-87.111156
  0
VERTEX
  8
0
  10
551.104222
  20
-88.702446
  0
VERTEX
  8
0
  10
550.945131
  20
-89.187429
  0
VERTEX
  8
0
  10
548.309973
  20
-87.593586
  0
SEQEND
  0
POLYLINE
  8
0
  66
1
  70
1
  0
VERTEX
  8
0
  10
550.560509
  20
-84.509237
  42
-0.073652
  0
VERTEX
  8
0
  10
550.377355
  20
-84.339872
  42
-0.074347
  0
VERTEX
  8
0
  10
550.252618
  20
-84.126508
  42
-0.049136
  0
VERTEX
  8
0
  10
550.184487
  20
-83.886430
  42
-0.051275
  0
VERTEX
  8
0
  10
550.166358
  20
-83.647920
  42
-0.040867
  0
VERTEX
  8
0
  10
550.194001
  20
-83.406963
  42
-0.045541
  0
VERTEX
  8
0
  10
550.255621
  20
-83.198133
  42
-0.030944
  0
VERTEX
  8
0
  10
550.351094
  20
-83.001367
  42
-0.021415
  0
VERTEX
  8
0
  10
550.517921
  20
-82.733157
  0
VERTEX
  8
0
  10
551.243703
  20
-81.670605
  0
VERTEX
  8
0
  10
553.332105
  20
-83.933182
  0
VERTEX
  8
0
  10
552.697235
  20
-84.862638
  42
-0.013286
  0
VERTEX
  8
0
  10
552.493058
  20
-85.145135
  42
-0.029407
  0
VERTEX
  8
0
  10
552.390194
  20
-85.264521
  42
-0.048745
  0
VERTEX
  8
0
  10
552.273325
  20
-85.367058
  42
-0.047239
  0
VERTEX
  8
0
  10
552.134791
  20
-85.447922
  42
-0.063413
  0
VERTEX
  8
0
  10
552.000229
  20
-85.489265
  42
-0.074472
  0
VERTEX
  8
0
  10
551.880211
  20
-85.491997
  42
-0.062901
  0
VERTEX
  8
0
  10
551.762977
  20
-85.461870
  42
-0.055578
  0
VERTEX
  8
0
  10
551.642093
  20
-85.397667
  42
-0.082726
  0
VERTEX
  8
0
  10
551.456181
  20
-85.219425
  42
-0.083580
  0
VERTEX
  8
0
  10
551.339668
  20
-84.992647
  42
-0.070403
  0
VERTEX
  8
0
  10
551.296749
  20
-84.741138
  42
-0.061048
  0
VERTEX
  8
0
  10
551.324187
  20
-84.448541
  0
VERTEX
  8
0
  10
551.306441
  20
-84.436420
  42
-0.066141
  0
VERTEX
  8
0
  10
551.133236
  20
-84.551219
  42
-0.071703
  0
VERTEX
  8
0
  10
550.950561
  20
-84.609748
  42
-0.105162
  0
VERTEX
  8
0
  10
550.764668
  20
-84.601816
  42
-0.086984
  0
VERTEX
  8
0
  10
550.560509
  20
-84.509237
  0
SEQEND
  0
POLYLINE
  8
0
  66
1
  70
1
  0
VERTEX
  8
0
  10
551.863057
  20
-84.897951
  42
0.058748
  0
VERTEX
  8
0
  10
551.923545
  20
-84.929588
  42
0.067131
  0
VERTEX
  8
0
  10
551.981765
  20
-84.943249
  42
0.078052
  0
VERTEX
  8
0
  10
552.042185
  20
-84.943192
  42
0.067104
  0
VERTEX
  8
0
  10
552.109406
  20
-84.923078
  42
0.066049
  0
VERTEX
  8
0
  10
552.201138
  20
-84.863584
  42
0.055925
  0
VERTEX
  8
0
  10
552.289219
  20
-84.769375
  42
0.009691
  0
VERTEX
  8
0
  10
552.368053
  20
-84.663719
  42
0.005596
  0
VERTEX
  8
0
  10
552.498911
  20
-84.476672
  0
VERTEX
  8
0
  10
552.779223
  20
-84.066292
  0
VERTEX
  8
0
  10
552.185235
  20
-83.416572
  0
VERTEX
  8
0
  10
551.827647
  20
-83.940084
  42
0.010958
  0
VERTEX
  8
0
  10
551.710508
  20
-84.119914
  42
0.025551
  0
VERTEX
  8
0
  10
551.666005
  20
-84.200543
  42
0.056436
  0
VERTEX
  8
0
  10
551.635640
  20
-84.286248
  42
0.038797
  0
VERTEX
  8
0
  10
551.615883
  20
-84.416806
  42
0.064713
  0
VERTEX
  8
0
  10
551.626595
  20
-84.568718
  42
0.074987
  0
VERTEX
  8
0
  10
551.671643
  20
-84.692380
  42
0.060540
  0
VERTEX
  8
0
  10
551.751222
  20
-84.801795
  42
0.055502
  0
VERTEX
  8
0
  10
551.863057
  20
-84.897951
  0
SEQEND
  0
POLYLINE
  8
0
  66
1
  70
1
  0
VERTEX
  8
0
  10
550.847210
  20
-84.060928
  42
0.055927
  0
VERTEX
  8
0
  10
550.930970
  20
-84.105338
  42
0.060115
  0
VERTEX
  8
0
  10
551.016344
  20
-84.127657
  42
0.092373
  0
VERTEX
  8
0
  10
551.102618
  20
-84.123460
  42
0.066434
  0
VERTEX
  8
0
  10
551.214327
  20
-84.080709
  42
0.064345
  0
VERTEX
  8
0
  10
551.293539
  20
-84.023637
  42
0.049500
  0
VERTEX
  8
0
  10
551.376987
  20
-83.928303
  42
0.006431
  0
VERTEX
  8
0
  10
551.451316
  20
-83.826130
  42
0.004201
  0
VERTEX
  8
0
  10
551.561733
  20
-83.667359
  0
VERTEX
  8
0
  10
551.925382
  20
-83.134974
  0
VERTEX
  8
0
  10
551.225353
  20
-82.373783
  0
VERTEX
  8
0
  10
550.937464
  20
-82.795255
  42
0.011553
  0
VERTEX
  8
0
  10
550.782499
  20
-83.033775
  42
0.018160
  0
VERTEX
  8
0
  10
550.693080
  20
-83.191137
  42
0.039300
  0
VERTEX
  8
0
  10
550.622972
  20
-83.356101
  42
0.051277
  0
VERTEX
  8
0
  10
550.592847
  20
-83.490289
  42
0.059918
  0
VERTEX
  8
0
  10
550.593395
  20
-83.676463
  42
0.076503
  0
VERTEX
  8
0
  10
550.633128
  20
-83.817101
  42
0.074732
  0
VERTEX
  8
0
  10
550.714099
  20
-83.943054
  42
0.062833
  0
VERTEX
  8
0
  10
550.847210
  20
-84.060928
  0
SEQEND
  0
POLYLINE
  8
0
  66
1
  70
1
  0
VERTEX
  8
0
  10
552.807736
  20
-82.806670
  42
-0.039617
  0
VERTEX
  8
0
  10
552.564262
  20
-82.490464
  42
-0.040864
  0
VERTEX
  8
0
  10
552.380353
  20
-82.150024
  42
-0.043696
  0
VERTEX
  8
0
  10
552.256636
  20
-81.784396
  42
-0.048163
  0
VERTEX
  8
0
  10
552.206817
  20
-81.437620
  42
-0.048340
  0
VERTEX
  8
0
  10
552.224419
  20
-81.075050
  42
-0.051505
  0
VERTEX
  8
0
  10
552.308085
  20
-80.744684
  42
-0.064919
  0
VERTEX
  8
0
  10
552.465968
  20
-80.446899
  42
-0.054622
  0
VERTEX
  8
0
  10
552.731677
  20
-80.147769
  42
-0.087349
  0
VERTEX
  8
0
  10
553.159836
  20
-79.878675
  42
-0.110782
  0
VERTEX
  8
0
  10
553.554888
  20
-79.812412
  42
-0.108491
  0
VERTEX
  8
0
  10
553.941062
  20
-79.923252
  42
-0.085153
  0
VERTEX
  8
0
  10
554.341900
  20
-80.237916
  42
-0.039036
  0
VERTEX
  8
0
  10
554.585786
  20
-80.553898
  42
-0.040893
  0
VERTEX
  8
0
  10
554.767671
  20
-80.888776
  42
-0.043325
  0
VERTEX
  8
0
  10
554.888523
  20
-81.250296
  42
-0.045596
  0
VERTEX
  8
0
  10
554.940827
  20
-81.608768
  42
-0.052849
  0
VERTEX
  8
0
  10
554.922319
  20
-81.955718
  42
-0.051608
  0
VERTEX
  8
0
  10
554.830168
  20
-82.299333
  42
-0.060040
  0
VERTEX
  8
0
  10
554.662915
  20
-82.614094
  42
-0.056830
  0
VERTEX
  8
0
  10
554.414165
  20
-82.896627
  42
-0.086227
  0
VERTEX
  8
0
  10
553.998411
  20
-83.159219
  42
-0.106269
  0
VERTEX
  8
0
  10
553.604329
  20
-83.230752
  42
-0.114756
  0
VERTEX
  8
0
  10
553.220118
  20
-83.128258
  42
-0.086774
  0
VERTEX
  8
0
  10
552.807736
  20
-82.806670
  0
SEQEND
  0
POLYLINE
  8
0
  66
1
  70
1
  0
VERTEX
  8
0
  10
552.656829
  20
-81.414509
  42
0.044161
  0
VERTEX
  8
0
  10
552.715271
  20
-81.664246
  42
0.039175
  0
VERTEX
  8
0
  10
552.826871
  20
-81.930840
  42
0.034909
  0
VERTEX
  8
0
  10
552.975195
  20
-82.180724
  42
0.032485
  0
VERTEX
  8
0
  10
553.169178
  20
-82.425366
  42
0.076676
  0
VERTEX
  8
0
  10
553.447612
  20
-82.651623
  42
0.111291
  0
VERTEX
  8
0
  10
553.684713
  20
-82.726962
  42
0.114845
  0
VERTEX
  8
0
  10
553.928517
  20
-82.691935
  42
0.091247
  0
VERTEX
  8
0
  10
554.190990
  20
-82.529790
  42
0.066051
  0
VERTEX
  8
0
  10
554.354924
  20
-82.336548
  42
0.071171
  0
VERTEX
  8
0
  10
554.452928
  20
-82.122581
  42
0.056013
  0
VERTEX
  8
0
  10
554.496471
  20
-81.889926
  42
0.050936
  0
VERTEX
  8
0
  10
554.489012
  20
-81.629887
  42
0.044496
  0
VERTEX
  8
0
  10
554.432356
  20
-81.382000
  42
0.038689
  0
VERTEX
  8
0
  10
554.320963
  20
-81.111754
  42
0.034010
  0
VERTEX
  8
0
  10
554.171137
  20
-80.859701
  42
0.032777
  0
VERTEX
  8
0
  10
553.982260
  20
-80.621213
  42
0.076676
  0
VERTEX
  8
0
  10
553.707489
  20
-80.397932
  42
0.107837
  0
VERTEX
  8
0
  10
553.466725
  20
-80.319616
  42
0.116423
  0
VERTEX
  8
0
  10
553.219480
  20
-80.352484
  42
0.093118
  0
VERTEX
  8
0
  10
552.954851
  20
-80.514606
  42
0.064704
  0
VERTEX
  8
0
  10
552.791865
  20
-80.705690
  42
0.068705
  0
VERTEX
  8
0
  10
552.691112
  20
-80.919823
  42
0.058416
  0
VERTEX
  8
0
  10
552.647019
  20
-81.154281
  42
0.053486
  0
VERTEX
  8
0
  10
552.656829
  20
-81.414509
  0
SEQEND
  0
POLYLINE
  8
0
  66
1
  70
1
  0
VERTEX
  8
0
  10
554.560848
  20
-78.874880
  0
VERTEX
  8
0
  10
555.009665
  20
-78.637507
  0
VERTEX
  8
0
  10
555.368589
  20
-79.988423
  0
VERTEX
  8
0
  10
556.691294
  20
-79.288863
  0
VERTEX
  8
0
  10
556.332370
  20
-77.937947
  0
VERTEX
  8
0
  10
556.781187
  20
-77.700574
  0
VERTEX
  8
0
  10
557.573778
  20
-80.675886
  0
VERTEX
  8
0
  10
557.122586
  20
-80.914515
  0
VERTEX
  8
0
  10
556.796571
  20
-79.689025
  0
VERTEX
  8
0
  10
555.476240
  20
-80.387329
  0
VERTEX
  8
0
  10
555.802256
  20
-81.612818
  0
VERTEX
  8
0
  10
555.351064
  20
-81.851448
  0
VERTEX
  8
0
  10
554.560848
  20
-78.874880
  0
SEQEND
  0
POLYLINE
  8
0
  66
1
  70
1
  0
VERTEX
  8
0
  10
560.642795
  20
-76.828852
  42
-0.079590
  0
VERTEX
  8
0
  10
561.366626
  20
-76.871893
  42
-0.105106
  0
VERTEX
  8
0
  10
561.868590
  20
-77.100698
  42
-0.115648
  0
VERTEX
  8
0
  10
562.217458
  20
-77.517505
  42
-0.092052
  0
VERTEX
  8
0
  10
562.407242
  20
-78.170028
  42
-0.039405
  0
VERTEX
  8
0
  10
562.418574
  20
-78.717819
  42
-0.043181
  0
VERTEX
  8
0
  10
562.346605
  20
-79.212766
  42
-0.045853
  0
VERTEX
  8
0
  10
562.185931
  20
-79.685921
  42
-0.048805
  0
VERTEX
  8
0
  10
561.954013
  20
-80.094248
  42
-0.055130
  0
VERTEX
  8
0
  10
561.646806
  20
-80.439345
  42
-0.052295
  0
VERTEX
  8
0
  10
561.253006
  20
-80.725734
  42
-0.056872
  0
VERTEX
  8
0
  10
560.806972
  20
-80.922567
  42
-0.050673
  0
VERTEX
  8
0
  10
560.271134
  20
-81.031584
  42
-0.032612
  0
VERTEX
  8
0
  10
559.927125
  20
-81.043371
  42
-0.035263
  0
VERTEX
  8
0
  10
559.610364
  20
-81.011125
  42
-0.033485
  0
VERTEX
  8
0
  10
559.300784
  20
-80.938378
  42
-0.028708
  0
VERTEX
  8
0
  10
558.953109
  20
-80.809436
  0
VERTEX
  8
0
  10
559.013652
  20
-80.198661
  0
VERTEX
  8
0
  10
559.053748
  20
-80.194660
  42
0.011711
  0
VERTEX
  8
0
  10
559.152511
  20
-80.271710
  42
0.012409
  0
VERTEX
  8
0
  10
559.249116
  20
-80.339848
  42
0.039717
  0
VERTEX
  8
0
  10
559.349520
  20
-80.400324
  42
0.023151
  0
VERTEX
  8
0
  10
559.533228
  20
-80.481580
  42
0.033514
  0
VERTEX
  8
0
  10
559.690924
  20
-80.533624
  42
0.026567
  0
VERTEX
  8
0
  10
559.896206
  20
-80.574948
  42
0.034722
  0
VERTEX
  8
0
  10
560.105124
  20
-80.593476
  42
0.029631
  0
VERTEX
  8
0
  10
560.350620
  20
-80.583600
  42
0.056475
  0
VERTEX
  8
0
  10
560.710911
  20
-80.505947
  42
0.060423
  0
VERTEX
  8
0
  10
561.021868
  20
-80.357340
  42
0.053167
  0
VERTEX
  8
0
  10
561.292622
  20
-80.141621
  42
0.051300
  0
VERTEX
  8
0
  10
561.520764
  20
-79.864808
  42
0.049993
  0
VERTEX
  8
0
  10
561.685422
  20
-79.555785
  42
0.042897
  0
VERTEX
  8
0
  10
561.807464
  20
-79.166673
  42
0.040385
  0
VERTEX
  8
0
  10
561.860892
  20
-78.761992
  42
0.037515
  0
VERTEX
  8
0
  10
561.850149
  20
-78.322805
  42
0.079905
  0
VERTEX
  8
0
  10
561.715119
  20
-77.813010
  42
0.106842
  0
VERTEX
  8
0
  10
561.481182
  20
-77.493015
  42
0.116427
  0
VERTEX
  8
0
  10
561.134939
  20
-77.310197
  42
0.088591
  0
VERTEX
  8
0
  10
560.624790
  20
-77.270700
  42
0.029044
  0
VERTEX
  8
0
  10
560.374093
  20
-77.310521
  42
0.031527
  0
VERTEX
  8
0
  10
560.149235
  20
-77.374846
  42
0.022132
  0
VERTEX
  8
0
  10
559.929763
  20
-77.466127
  42
0.025399
  0
VERTEX
  8
0
  10
559.746902
  20
-77.563475
  42
0.015522
  0
VERTEX
  8
0
  10
559.584869
  20
-77.668597
  42
0.017996
  0
VERTEX
  8
0
  10
559.451487
  20
-77.768432
  42
0.011090
  0
VERTEX
  8
0
  10
559.324023
  20
-77.875947
  42
0.014468
  0
VERTEX
  8
0
  10
559.230652
  20
-77.963249
  0
VERTEX
  8
0
  10
559.193229
  20
-77.966983
  0
VERTEX
  8
0
  10
559.257518
  20
-77.339635
  42
-0.022453
  0
VERTEX
  8
0
  10
559.530675
  20
-77.182508
  42
-0.018383
  0
VERTEX
  8
0
  10
559.878801
  20
-77.018471
  42
-0.038946
  0
VERTEX
  8
0
  10
560.238493
  20
-76.898821
  42
-0.035972
  0
VERTEX
  8
0
  10
560.642795
  20
-76.828852
  0
SEQEND
  0
POLYLINE
  8
0
  66
1
  70
1
  0
VERTEX
  8
0
  10
541.336092
  20
-85.871384
  0
VERTEX
  8
0
  10
541.233234
  20
-85.274927
  0
VERTEX
  8
0
  10
541.741447
  20
-85.603653
  42
0.271133
  0
VERTEX
  8
0
  10
541.952554
  20
-85.613076
  0
VERTEX
  8
0
  10
542.488034
  20
-85.330935
  0
VERTEX
  8
0
  10
542.332443
  20
-85.915857
  42
0.271133
  0
VERTEX
  8
0
  10
542.388717
  20
-86.119543
  0
VERTEX
  8
0
  10
542.822521
  20
-86.541629
  0
VERTEX
  8
0
  10
542.218147
  20
-86.574404
  42
0.271133
  0
VERTEX
  8
0
  10
542.041820
  20
-86.690866
  0
VERTEX
  8
0
  10
541.774445
  20
-87.233870
  0
VERTEX
  8
0
  10
541.556512
  20
-86.669204
  42
0.271133
  0
VERTEX
  8
0
  10
541.391262
  20
-86.537496
  0
VERTEX
  8
0
  10
540.792212
  20
-86.451005
  0
VERTEX
  8
0
  10
541.261895
  20
-86.069247
  42
0.271133
  0
VERTEX
  8
0
  10
541.336092
  20
-85.871384
  0
SEQEND
  0
POLYLINE
  8
0
  66
1
  70
1
  0
VERTEX
  8
0
  10
538.912376
  20
-78.443540
  42
0.414214
  0
VERTEX
  8
0
  10
538.208034
  20
-79.147882
  42
0.414214
  0
VERTEX
  8
0
  10
538.912376
  20
-79.852224
  42
0.414214
  0
VERTEX
  8
0
  10
539.616718
  20
-79.147882
  42
0.414214
  0
VERTEX
  8
0
  10
538.912376
  20
-78.443540
  0
SEQEND
  0
POLYLINE
  8
0
  66
1
  70
1
  0
VERTEX
  8
0
  10
539.165313
  20
-86.977624
  0
VERTEX
  8
0
  10
539.165313
  20
-80.258175
  42
0.340250
  0
VERTEX
  8
0
  10
540.032825
  20
-79.130946
  42
0.414214
  0
VERTEX
  8
0
  10
538.866718
  20
-77.964839
  42
0.414214
  0
VERTEX
  8
0
  10
537.700611
  20
-79.130946
  42
0.346669
  0
VERTEX
  8
0
  10
538.594087
  20
-80.264735
  0
VERTEX
  8
0
  10
538.594087
  20
-87.247468
  42
-0.001955
  0
VERTEX
  8
0
  10
538.421819
  20
-87.322636
  42
0.037699
  0
VERTEX
  8
0
  10
537.988280
  20
-87.549937
  42
0.056848
  0
VERTEX
  8
0
  10
537.733743
  20
-87.752352
  42
0.040164
  0
VERTEX
  8
0
  10
536.823064
  20
-88.822396
  42
0.040587
  0
VERTEX
  8
0
  10
536.103744
  20
-90.012404
  42
0.052897
  0
VERTEX
  8
0
  10
535.566052
  20
-91.454573
  42
0.064696
  0
VERTEX
  8
0
  10
535.412733
  20
-92.705408
  42
-0.019931
  0
VERTEX
  8
0
  10
535.398920
  20
-93.128818
  42
-0.011042
  0
VERTEX
  8
0
  10
535.326744
  20
-93.889898
  42
0.005978
  0
VERTEX
  8
0
  10
535.238106
  20
-94.733564
  42
0.014565
  0
VERTEX
  8
0
  10
535.215974
  20
-95.081104
  42
0.122225
  0
VERTEX
  8
0
  10
535.280728
  20
-95.386749
  42
0.128136
  0
VERTEX
  8
0
  10
535.474567
  20
-95.613686
  42
0.090445
  0
VERTEX
  8
0
  10
535.732882
  20
-95.731721
  42
0.072978
  0
VERTEX
  8
0
  10
536.082023
  20
-95.767641
  42
0.157929
  0
VERTEX
  8
0
  10
536.765378
  20
-95.513190
  42
0.207439
  0
VERTEX
  8
0
  10
537.032256
  20
-95.015248
  42
-0.007137
  0
VERTEX
  8
0
  10
537.159780
  20
-93.707372
  42
-0.006344
  0
VERTEX
  8
0
  10
537.342848
  20
-92.240509
  42
-0.017708
  0
VERTEX
  8
0
  10
537.401938
  20
-91.900884
  42
-0.014066
  0
VERTEX
  8
0
  10
537.503311
  20
-91.478976
  42
-0.032859
  0
VERTEX
  8
0
  10
537.681690
  20
-90.957567
  42
-0.097829
  0
VERTEX
  8
0
  10
537.785602
  20
-90.802493
  0
VERTEX
  8
0
  10
537.804850
  20
-91.260326
  0
VERTEX
  8
0
  10
537.811608
  20
-91.689468
  0
VERTEX
  8
0
  10
537.811858
  20
-91.878188
  0
VERTEX
  8
0
  10
537.786765
  20
-93.634270
  42
0.010847
  0
VERTEX
  8
0
  10
537.805175
  20
-94.651125
  42
0.014969
  0
VERTEX
  8
0
  10
537.856526
  20
-95.386326
  42
-0.026099
  0
VERTEX
  8
0
  10
537.921141
  20
-96.746133
  42
-0.017168
  0
VERTEX
  8
0
  10
537.840406
  20
-98.813250
  0
VERTEX
  8
0
  10
537.699871
  20
-100.531231
  42
0.004418
  0
VERTEX
  8
0
  10
537.625392
  20
-101.557715
  42
0.006644
  0
VERTEX
  8
0
  10
537.590975
  20
-102.241281
  42
0.116951
  0
VERTEX
  8
0
  10
537.642717
  20
-102.502122
  42
0.118988
  0
VERTEX
  8
0
  10
537.804184
  20
-102.707811
  42
0.082682
  0
VERTEX
  8
0
  10
538.019519
  20
-102.826406
  42
0.064811
  0
VERTEX
  8
0
  10
538.325510
  20
-102.891301
  42
0.120850
  0
VERTEX
  8
0
  10
538.977999
  20
-102.785342
  42
0.178260
  0
VERTEX
  8
0
  10
539.310102
  20
-102.473255
  42
0.065553
  0
VERTEX
  8
0
  10
539.479373
  20
-101.983432
  42
0.039406
  0
VERTEX
  8
0
  10
539.584889
  20
-101.130168
  0
VERTEX
  8
0
  10
539.590371
  20
-100.961264
  0
VERTEX
  8
0
  10
539.599773
  20
-100.408494
  42
-0.006887
  0
VERTEX
  8
0
  10
539.611627
  20
-99.972243
  42
-0.012431
  0
VERTEX
  8
0
  10
539.627526
  20
-99.730967
  42
-0.005282
  0
VERTEX
  8
0
  10
539.650659
  20
-99.503218
  42
-0.017736
  0
VERTEX
  8
0
  10
539.660664
  20
-99.435763
  42
-0.033241
  0
VERTEX
  8
0
  10
539.668655
  20
-99.404360
  42
-0.256388
  0
VERTEX
  8
0
  10
539.671918
  20
-99.401301
  42
-0.384803
  0
VERTEX
  8
0
  10
539.674898
  20
-99.402865
  42
-0.045838
  0
VERTEX
  8
0
  10
539.681262
  20
-99.426688
  0
VERTEX
  8
0
  10
539.724035
  20
-99.893082
  42
-0.001038
  0
VERTEX
  8
0
  10
539.831207
  20
-100.931932
  42
-0.004396
  0
VERTEX
  8
0
  10
539.853846
  20
-101.177494
  42
-0.007192
  0
VERTEX
  8
0
  10
539.864202
  20
-101.327870
  42
-0.001697
  0
VERTEX
  8
0
  10
539.896750
  20
-101.965804
  42
0.159782
  0
VERTEX
  8
0
  10
540.019623
  20
-102.287872
  42
0.117009
  0
VERTEX
  8
0
  10
540.388196
  20
-102.571853
  42
0.084249
  0
VERTEX
  8
0
  10
540.833766
  20
-102.688205
  42
0.109881
  0
VERTEX
  8
0
  10
541.185530
  20
-102.641659
  42
0.116338
  0
VERTEX
  8
0
  10
541.470313
  20
-102.454233
  42
0.100649
  0
VERTEX
  8
0
  10
541.677756
  20
-102.120744
  42
0.057458
  0
VERTEX
  8
0
  10
541.760152
  20
-101.785573
  42
0.038226
  0
VERTEX
  8
0
  10
541.785955
  20
-101.268367
  42
0.019752
  0
VERTEX
  8
0
  10
541.760726
  20
-100.887043
  42
0.013553
  0
VERTEX
  8
0
  10
541.687066
  20
-100.335084
  0
VERTEX
  8
0
  10
541.558024
  20
-99.571452
  42
-0.016075
  0
VERTEX
  8
0
  10
541.363833
  20
-97.811764
  42
-0.012586
  0
VERTEX
  8
0
  10
541.244978
  20
-95.553931
  42
-0.005268
  0
VERTEX
  8
0
  10
541.229206
  20
-94.620058
  42
-0.001588
  0
VERTEX
  8
0
  10
541.219366
  20
-91.521076
  42
-0.041278
  0
VERTEX
  8
0
  10
541.230124
  20
-91.390987
  42
-0.300974
  0
VERTEX
  8
0
  10
541.243405
  20
-91.376722
  42
-0.302652
  0
VERTEX
  8
0
  10
541.257743
  20
-91.381978
  42
-0.050824
  0
VERTEX
  8
0
  10
541.299971
  20
-91.454039
  0
VERTEX
  8
0
  10
541.312632
  20
-91.483384
  0
VERTEX
  8
0
  10
541.365734
  20
-91.615788
  42
0.016479
  0
VERTEX
  8
0
  10
541.406089
  20
-91.708731
  42
0.085914
  0
VERTEX
  8
0
  10
541.417366
  20
-91.724729
  42
-0.099571
  0
VERTEX
  8
0
  10
541.588706
  20
-91.982349
  42
-0.045351
  0
VERTEX
  8
0
  10
541.786465
  20
-92.626706
  42
-0.008723
  0
VERTEX
  8
0
  10
541.828319
  20
-92.844686
  42
-0.005796
  0
VERTEX
  8
0
  10
541.881755
  20
-93.174420
  0
VERTEX
  8
0
  10
541.943282
  20
-93.580126
  0
VERTEX
  8
0
  10
541.951636
  20
-93.630786
  42
-0.042167
  0
VERTEX
  8
0
  10
541.970652
  20
-93.839977
  42
-0.010805
  0
VERTEX
  8
0
  10
541.958180
  20
-94.658233
  42
0.041776
  0
VERTEX
  8
0
  10
541.989015
  20
-95.318711
  42
0.083566
  0
VERTEX
  8
0
  10
542.086225
  20
-95.636447
  42
0.094145
  0
VERTEX
  8
0
  10
542.288207
  20
-95.901380
  42
0.110859
  0
VERTEX
  8
0
  10
542.535840
  20
-96.040175
  42
0.090776
  0
VERTEX
  8
0
  10
542.793842
  20
-96.068406
  42
0.075356
  0
VERTEX
  8
0
  10
543.098010
  20
-95.999591
  42
0.123466
  0
VERTEX
  8
0
  10
543.625677
  20
-95.623988
  42
0.142494
  0
VERTEX
  8
0
  10
543.857412
  20
-95.109788
  42
0.066847
  0
VERTEX
  8
0
  10
543.867615
  20
-93.616959
  42
0.054313
  0
VERTEX
  8
0
  10
543.440119
  20
-91.832854
  42
0.029134
  0
VERTEX
  8
0
  10
542.933586
  20
-90.641273
  42
0.018379
  0
VERTEX
  8
0
  10
541.955580
  20
-88.838015
  42
0.027036
  0
VERTEX
  8
0
  10
542.509313
  20
-88.600017
  42
0.038828
  0
VERTEX
  8
0
  10
542.870062
  20
-88.384944
  42
0.059744
  0
VERTEX
  8
0
  10
543.259186
  20
-88.033491
  42
0.063392
  0
VERTEX
  8
0
  10
543.534351
  20
-87.622758
  42
0.343844
  0
VERTEX
  8
0
  10
543.034777
  20
-85.141882
  42
0.335186
  0
VERTEX
  8
0
  10
540.457484
  20
-84.979581
  42
0.075672
  0
VERTEX
  8
0
  10
540.337294
  20
-85.088228
  42
0.014502
  0
VERTEX
  8
0
  10
539.824629
  20
-85.754632
  42
0.028133
  0
VERTEX
  8
0
  10
539.316669
  20
-86.546273
  42
0.076547
  0
VERTEX
  8
0
  10
539.193807
  20
-86.871263
  42
0.050255
  0
VERTEX
  8
0
  10
539.181348
  20
-86.903689
  42
0.045249
  0
VERTEX
  8
0
  10
539.174596
  20
-86.941655
  0
VERTEX
  8
0
  10
539.170659
  20
-86.972912
  0
VERTEX
  8
0
  10
539.168977
  20
-86.975401
  42
-0.000734
  0
VERTEX
  8
0
  10
539.165313
  20
-86.977624
  0
SEQEND
  0
ENDSEC
  0
EOF
