  0
SECTION
  2
ENTITIES
  0
POLYLINE
  8
0
  66
1
  70
1
  0
VERTEX
  8
0
  10
619.429930
  20
56.746722
  42
0.105162
  0
VERTEX
  8
0
  10
620.277414
  20
57.210817
  42
0.104643
  0
VERTEX
  8
0
  10
620.866318
  20
57.982751
  42
0.064789
  0
VERTEX
  8
0
  10
621.120281
  20
58.765388
  42
0.046128
  0
VERTEX
  8
0
  10
621.226454
  20
59.913800
  42
0.024698
  0
VERTEX
  8
0
  10
621.208922
  20
60.268522
  42
0.029983
  0
VERTEX
  8
0
  10
621.162669
  20
60.557480
  42
0.070498
  0
VERTEX
  8
0
  10
620.934180
  20
61.165559
  42
0.067231
  0
VERTEX
  8
0
  10
620.530612
  20
61.713914
  42
0.043486
  0
VERTEX
  8
0
  10
620.116361
  20
62.073710
  42
0.030296
  0
VERTEX
  8
0
  10
619.452952
  20
62.496758
  42
0.136738
  0
VERTEX
  8
0
  10
620.060046
  20
63.572965
  42
0.117693
  0
VERTEX
  8
0
  10
620.070775
  20
65.001672
  42
0.019508
  0
VERTEX
  8
0
  10
619.960295
  20
65.407475
  42
0.039728
  0
VERTEX
  8
0
  10
619.882790
  20
65.599161
  42
0.047678
  0
VERTEX
  8
0
  10
619.594699
  20
66.059766
  42
0.048609
  0
VERTEX
  8
0
  10
619.230906
  20
66.449209
  42
0.032770
  0
VERTEX
  8
0
  10
618.896551
  20
66.706981
  42
0.021044
  0
VERTEX
  8
0
  10
618.336131
  20
67.049945
  42
-0.286499
  0
VERTEX
  8
0
  10
618.307207
  20
67.102187
  42
-0.028730
  0
VERTEX
  8
0
  10
618.367583
  20
67.649626
  42
0.009740
  0
VERTEX
  8
0
  10
618.461092
  20
68.277637
  42
0.070361
  0
VERTEX
  8
0
  10
618.460018
  20
68.365949
  42
0.077492
  0
VERTEX
  8
0
  10
618.203650
  20
69.173716
  42
0.086403
  0
VERTEX
  8
0
  10
617.752522
  20
69.786795
  42
0.065955
  0
VERTEX
  8
0
  10
617.217908
  20
70.178497
  42
0.050481
  0
VERTEX
  8
0
  10
616.421701
  20
70.514872
  42
0.028077
  0
VERTEX
  8
0
  10
615.778990
  20
70.674002
  42
0.018726
  0
VERTEX
  8
0
  10
614.797672
  20
70.821436
  0
VERTEX
  8
0
  10
613.210557
  20
70.977746
  42
-0.097824
  0
VERTEX
  8
0
  10
612.718088
  20
71.136658
  42
-0.161036
  0
VERTEX
  8
0
  10
612.501678
  20
71.371627
  42
-0.121942
  0
VERTEX
  8
0
  10
612.450272
  20
71.650499
  42
-0.073721
  0
VERTEX
  8
0
  10
612.546039
  20
72.105218
  42
-0.052304
  0
VERTEX
  8
0
  10
612.819045
  20
72.657269
  42
-0.027749
  0
VERTEX
  8
0
  10
613.491527
  20
73.600720
  42
0.038801
  0
VERTEX
  8
0
  10
612.019040
  20
73.286695
  42
0.032649
  0
VERTEX
  8
0
  10
610.340770
  20
72.668462
  42
0.008551
  0
VERTEX
  8
0
  10
609.906280
  20
72.466388
  42
0.024812
  0
VERTEX
  8
0
  10
609.761444
  20
72.386880
  42
0.020050
  0
VERTEX
  8
0
  10
608.898325
  20
71.806785
  42
0.038408
  0
VERTEX
  8
0
  10
608.485704
  20
71.453114
  42
0.023971
  0
VERTEX
  8
0
  10
608.401374
  20
71.360287
  42
0.007123
  0
VERTEX
  8
0
  10
608.137678
  20
71.031036
  42
0.084133
  0
VERTEX
  8
0
  10
607.665513
  20
70.152539
  42
0.080458
  0
VERTEX
  8
0
  10
607.494594
  20
69.124373
  42
0.056905
  0
VERTEX
  8
0
  10
607.594392
  20
68.216853
  42
0.045450
  0
VERTEX
  8
0
  10
607.947099
  20
67.130941
  42
-0.351834
  0
VERTEX
  8
0
  10
607.936221
  20
67.091895
  42
-0.029521
  0
VERTEX
  8
0
  10
607.572479
  20
66.862105
  0
VERTEX
  8
0
  10
607.080487
  20
66.597168
  42
0.204056
  0
VERTEX
  8
0
  10
605.878542
  20
64.860492
  42
0.200322
  0
VERTEX
  8
0
  10
606.289734
  20
62.751923
  42
-0.087931
  0
VERTEX
  8
0
  10
606.360636
  20
62.589942
  42
-0.131732
  0
VERTEX
  8
0
  10
606.357684
  20
62.470826
  42
-0.099662
  0
VERTEX
  8
0
  10
606.310348
  20
62.381087
  42
-0.061132
  0
VERTEX
  8
0
  10
606.191718
  20
62.267286
  42
-0.019513
  0
VERTEX
  8
0
  10
606.143979
  20
62.234381
  42
-0.004127
  0
VERTEX
  8
0
  10
605.911258
  20
62.089702
  42
0.021894
  0
VERTEX
  8
0
  10
605.731636
  20
61.968982
  42
0.037487
  0
VERTEX
  8
0
  10
605.635731
  20
61.886472
  42
0.021192
  0
VERTEX
  8
0
  10
605.339657
  20
61.564177
  42
0.029467
  0
VERTEX
  8
0
  10
605.151180
  20
61.311943
  42
0.037687
  0
VERTEX
  8
0
  10
604.974984
  20
60.995065
  42
0.035183
  0
VERTEX
  8
0
  10
604.837541
  20
60.631894
  42
0.057105
  0
VERTEX
  8
0
  10
604.799154
  20
60.417748
  42
0.015822
  0
VERTEX
  8
0
  10
604.774388
  20
59.635275
  42
0.002118
  0
VERTEX
  8
0
  10
604.775694
  20
59.326754
  42
0.016982
  0
VERTEX
  8
0
  10
604.777327
  20
59.288299
  42
0.045257
  0
VERTEX
  8
0
  10
604.807546
  20
59.108860
  42
0.051634
  0
VERTEX
  8
0
  10
604.863837
  20
58.959523
  42
0.010728
  0
VERTEX
  8
0
  10
605.137387
  20
58.440565
  42
0.028431
  0
VERTEX
  8
0
  10
605.255687
  20
58.253293
  42
-0.195105
  0
VERTEX
  8
0
  10
605.276300
  20
58.244932
  42
-0.012027
  0
VERTEX
  8
0
  10
605.519818
  20
57.996796
  42
0.005156
  0
VERTEX
  8
0
  10
605.780462
  20
57.723805
  42
0.044522
  0
VERTEX
  8
0
  10
605.813697
  20
57.695283
  0
VERTEX
  8
0
  10
605.790080
  20
57.683878
  42
0.098465
  0
VERTEX
  8
0
  10
605.798495
  20
57.675499
  42
0.027132
  0
VERTEX
  8
0
  10
605.835287
  20
57.653808
  42
0.014976
  0
VERTEX
  8
0
  10
605.883955
  20
57.630388
  42
0.004742
  0
VERTEX
  8
0
  10
606.040405
  20
57.562562
  42
-0.004742
  0
VERTEX
  8
0
  10
606.196855
  20
57.494736
  42
-0.014976
  0
VERTEX
  8
0
  10
606.245524
  20
57.471316
  42
-0.027132
  0
VERTEX
  8
0
  10
606.282316
  20
57.449625
  42
-0.098465
  0
VERTEX
  8
0
  10
606.290730
  20
57.441246
  0
VERTEX
  8
0
  10
606.267114
  20
57.429841
  42
0.068202
  0
VERTEX
  8
0
  10
607.055270
  20
57.162117
  42
0.039760
  0
VERTEX
  8
0
  10
608.469856
  20
57.003327
  42
0.007126
  0
VERTEX
  8
0
  10
608.870017
  20
56.996101
  42
0.003580
  0
VERTEX
  8
0
  10
609.666511
  20
56.998774
  42
-0.004008
  0
VERTEX
  8
0
  10
610.426658
  20
57.000675
  42
-0.009032
  0
VERTEX
  8
0
  10
610.763875
  20
56.992723
  0
VERTEX
  8
0
  10
616.682660
  20
56.733125
  42
0.005296
  0
VERTEX
  8
0
  10
616.924839
  20
56.726007
  42
0.000600
  0
VERTEX
  8
0
  10
619.062141
  20
56.688402
  42
0.043440
  0
VERTEX
  8
0
  10
619.224588
  20
56.699863
  42
0.033562
  0
VERTEX
  8
0
  10
619.429930
  20
56.746722
  0
SEQEND
  0
POLYLINE
  8
0
  66
1
  70
1
  0
VERTEX
  8
0
  10
607.042252
  20
57.743910
  42
-0.173844
  0
VERTEX
  8
0
  10
606.184123
  20
58.051568
  42
-0.146449
  0
VERTEX
  8
0
  10
605.585882
  20
58.942221
  42
-0.148423
  0
VERTEX
  8
0
  10
605.579521
  20
60.012295
  42
-0.175273
  0
VERTEX
  8
0
  10
606.122178
  20
60.747609
  42
-0.042478
  0
VERTEX
  8
0
  10
606.576757
  20
60.997778
  42
-0.046961
  0
VERTEX
  8
0
  10
607.021812
  20
61.147411
  42
-0.027471
  0
VERTEX
  8
0
  10
607.324731
  20
61.201144
  42
-0.012331
  0
VERTEX
  8
0
  10
608.006525
  20
61.266776
  42
-0.000567
  0
VERTEX
  8
0
  10
608.849736
  20
61.326045
  42
-0.000618
  0
VERTEX
  8
0
  10
609.622662
  20
61.378534
  42
0.005302
  0
VERTEX
  8
0
  10
609.997236
  20
61.407498
  42
0.000568
  0
VERTEX
  8
0
  10
613.487927
  20
61.718690
  42
-0.008825
  0
VERTEX
  8
0
  10
615.838285
  20
61.889156
  42
-0.013689
  0
VERTEX
  8
0
  10
617.357179
  20
61.930747
  42
-0.123207
  0
VERTEX
  8
0
  10
618.586253
  20
61.623218
  42
-0.147845
  0
VERTEX
  8
0
  10
619.338858
  20
60.872838
  42
-0.076947
  0
VERTEX
  8
0
  10
619.516458
  20
60.370329
  42
-0.075175
  0
VERTEX
  8
0
  10
619.536123
  20
59.825297
  42
-0.073712
  0
VERTEX
  8
0
  10
619.385317
  20
59.261035
  42
-0.063266
  0
VERTEX
  8
0
  10
619.039047
  20
58.676338
  42
-0.103091
  0
VERTEX
  8
0
  10
618.618180
  20
58.318743
  42
-0.076131
  0
VERTEX
  8
0
  10
617.918242
  20
58.065723
  42
-0.030144
  0
VERTEX
  8
0
  10
617.531987
  20
58.013404
  42
-0.012495
  0
VERTEX
  8
0
  10
616.593511
  20
57.967029
  42
0.002087
  0
VERTEX
  8
0
  10
616.238808
  20
57.956896
  0
VERTEX
  8
0
  10
613.606544
  20
57.869221
  42
-0.003325
  0
VERTEX
  8
0
  10
611.793006
  20
57.819867
  42
-0.005139
  0
VERTEX
  8
0
  10
610.619270
  20
57.807802
  42
-0.002383
  0
VERTEX
  8
0
  10
609.604252
  20
57.784833
  42
-0.000944
  0
VERTEX
  8
0
  10
607.042252
  20
57.743910
  0
SEQEND
  0
POLYLINE
  8
0
  66
1
  70
1
  0
VERTEX
  8
0
  10
615.314323
  20
67.024850
  0
VERTEX
  8
0
  10
610.966801
  20
67.024850
  42
-0.011476
  0
VERTEX
  8
0
  10
609.119030
  20
67.067265
  42
-0.049810
  0
VERTEX
  8
0
  10
608.696711
  20
67.129124
  42
-0.156202
  0
VERTEX
  8
0
  10
608.559633
  20
67.214090
  42
-0.087760
  0
VERTEX
  8
0
  10
608.416654
  20
67.457587
  42
-0.041583
  0
VERTEX
  8
0
  10
608.347182
  20
67.705941
  42
-0.027826
  0
VERTEX
  8
0
  10
608.295743
  20
68.087510
  42
-0.018949
  0
VERTEX
  8
0
  10
608.282132
  20
68.423618
  42
-0.018637
  0
VERTEX
  8
0
  10
608.293994
  20
68.765413
  42
-0.022630
  0
VERTEX
  8
0
  10
608.331738
  20
69.085952
  42
-0.046610
  0
VERTEX
  8
0
  10
608.371425
  20
69.237815
  42
-0.077898
  0
VERTEX
  8
0
  10
608.903678
  20
70.202325
  42
-0.077152
  0
VERTEX
  8
0
  10
609.712047
  20
70.966133
  42
-0.056903
  0
VERTEX
  8
0
  10
610.584632
  20
71.430863
  42
-0.044604
  0
VERTEX
  8
0
  10
611.792930
  20
71.786893
  42
0.053006
  0
VERTEX
  8
0
  10
611.834941
  20
71.391718
  42
0.064900
  0
VERTEX
  8
0
  10
611.943775
  20
71.085457
  42
0.063002
  0
VERTEX
  8
0
  10
612.109901
  20
70.841010
  42
0.057625
  0
VERTEX
  8
0
  10
612.349903
  20
70.624956
  42
0.067541
  0
VERTEX
  8
0
  10
612.777194
  20
70.400907
  42
0.035818
  0
VERTEX
  8
0
  10
613.649557
  20
70.153403
  0
VERTEX
  8
0
  10
614.403857
  20
70.005673
  42
-0.010511
  0
VERTEX
  8
0
  10
614.845509
  20
69.906648
  42
-0.015827
  0
VERTEX
  8
0
  10
615.134991
  20
69.825521
  42
-0.069022
  0
VERTEX
  8
0
  10
615.858486
  20
69.482510
  42
-0.100904
  0
VERTEX
  8
0
  10
616.249306
  20
69.094596
  42
-0.080814
  0
VERTEX
  8
0
  10
616.491338
  20
68.562263
  42
-0.097597
  0
VERTEX
  8
0
  10
616.525727
  20
68.077825
  42
-0.092038
  0
VERTEX
  8
0
  10
616.381565
  20
67.623507
  42
-0.073776
  0
VERTEX
  8
0
  10
616.028422
  20
67.147325
  42
-0.155111
  0
VERTEX
  8
0
  10
615.885794
  20
67.073501
  42
-0.042490
  0
VERTEX
  8
0
  10
615.314323
  20
67.024850
  0
SEQEND
  0
POLYLINE
  8
0
  66
1
  70
1
  0
VERTEX
  8
0
  10
616.925583
  20
63.600629
  42
-0.414214
  0
VERTEX
  8
0
  10
616.943209
  20
63.585206
  0
VERTEX
  8
0
  10
616.963865
  20
63.275368
  42
-0.414214
  0
VERTEX
  8
0
  10
616.948442
  20
63.257742
  0
VERTEX
  8
0
  10
615.213348
  20
63.142069
  42
-0.185729
  0
VERTEX
  8
0
  10
615.207014
  20
63.143721
  0
VERTEX
  8
0
  10
615.200404
  20
63.149505
  0
VERTEX
  8
0
  10
615.129348
  20
63.250581
  42
-0.147202
  0
VERTEX
  8
0
  10
615.124253
  20
63.264765
  42
-0.281640
  0
VERTEX
  8
0
  10
615.131689
  20
63.277709
  42
0.026498
  0
VERTEX
  8
0
  10
615.667275
  20
63.862850
  42
0.032627
  0
VERTEX
  8
0
  10
616.043302
  20
64.386241
  42
0.035888
  0
VERTEX
  8
0
  10
616.136729
  20
64.565370
  42
0.027387
  0
VERTEX
  8
0
  10
616.228516
  20
64.813542
  42
0.042468
  0
VERTEX
  8
0
  10
616.286199
  20
65.072662
  42
0.050223
  0
VERTEX
  8
0
  10
616.293788
  20
65.297165
  42
0.075524
  0
VERTEX
  8
0
  10
616.240137
  20
65.540136
  42
0.089499
  0
VERTEX
  8
0
  10
616.130745
  20
65.719922
  42
0.117376
  0
VERTEX
  8
0
  10
615.951673
  20
65.847796
  42
0.113739
  0
VERTEX
  8
0
  10
615.727680
  20
65.883930
  42
0.056875
  0
VERTEX
  8
0
  10
615.556015
  20
65.852657
  42
0.059167
  0
VERTEX
  8
0
  10
615.402281
  20
65.785470
  42
0.199800
  0
VERTEX
  8
0
  10
615.389698
  20
65.775302
  42
0.097468
  0
VERTEX
  8
0
  10
615.380110
  20
65.744571
  0
VERTEX
  8
0
  10
615.340451
  20
65.312451
  42
-0.236068
  0
VERTEX
  8
0
  10
615.336871
  20
65.303913
  42
-0.162278
  0
VERTEX
  8
0
  10
615.324752
  20
65.298955
  0
VERTEX
  8
0
  10
615.151243
  20
65.287388
  42
-0.414214
  0
VERTEX
  8
0
  10
615.133617
  20
65.302811
  0
VERTEX
  8
0
  10
615.096023
  20
65.866717
  42
-0.130520
  0
VERTEX
  8
0
  10
615.098925
  20
65.881563
  42
-0.102393
  0
VERTEX
  8
0
  10
615.110620
  20
65.896736
  42
-0.051419
  0
VERTEX
  8
0
  10
615.231832
  20
65.964025
  42
-0.029940
  0
VERTEX
  8
0
  10
615.455573
  20
66.044219
  42
-0.027930
  0
VERTEX
  8
0
  10
615.630379
  20
66.083200
  42
-0.024253
  0
VERTEX
  8
0
  10
615.835228
  20
66.106876
  42
-0.072913
  0
VERTEX
  8
0
  10
616.186660
  20
66.079054
  42
-0.093375
  0
VERTEX
  8
0
  10
616.439894
  20
65.968757
  42
-0.230999
  0
VERTEX
  8
0
  10
616.728663
  20
65.465166
  42
-0.057103
  0
VERTEX
  8
0
  10
616.716961
  20
65.219060
  42
-0.043381
  0
VERTEX
  8
0
  10
616.637364
  20
64.905117
  42
-0.030563
  0
VERTEX
  8
0
  10
616.535717
  20
64.665705
  42
-0.028587
  0
VERTEX
  8
0
  10
616.397619
  20
64.424386
  42
-0.029153
  0
VERTEX
  8
0
  10
616.130428
  20
64.063309
  42
-0.017768
  0
VERTEX
  8
0
  10
615.638722
  20
63.514839
  0
VERTEX
  8
0
  10
616.925583
  20
63.600629
  0
SEQEND
  0
POLYLINE
  8
0
  66
1
  70
1
  0
VERTEX
  8
0
  10
614.810421
  20
63.459619
  42
-0.414214
  0
VERTEX
  8
0
  10
614.828048
  20
63.444196
  0
VERTEX
  8
0
  10
614.848703
  20
63.134357
  42
-0.414214
  0
VERTEX
  8
0
  10
614.833280
  20
63.116731
  0
VERTEX
  8
0
  10
613.098187
  20
63.001058
  42
-0.185729
  0
VERTEX
  8
0
  10
613.091852
  20
63.002711
  0
VERTEX
  8
0
  10
613.085243
  20
63.008494
  0
VERTEX
  8
0
  10
613.014186
  20
63.109570
  42
-0.147202
  0
VERTEX
  8
0
  10
613.009091
  20
63.123754
  42
-0.281640
  0
VERTEX
  8
0
  10
613.016527
  20
63.136698
  42
0.026498
  0
VERTEX
  8
0
  10
613.552113
  20
63.721839
  42
0.032627
  0
VERTEX
  8
0
  10
613.928140
  20
64.245230
  42
0.035888
  0
VERTEX
  8
0
  10
614.021568
  20
64.424359
  42
0.027387
  0
VERTEX
  8
0
  10
614.113354
  20
64.672532
  42
0.042468
  0
VERTEX
  8
0
  10
614.171037
  20
64.931651
  42
0.050223
  0
VERTEX
  8
0
  10
614.178627
  20
65.156154
  42
0.075524
  0
VERTEX
  8
0
  10
614.124975
  20
65.399125
  42
0.089499
  0
VERTEX
  8
0
  10
614.015583
  20
65.578911
  42
0.117376
  0
VERTEX
  8
0
  10
613.836512
  20
65.706786
  42
0.113739
  0
VERTEX
  8
0
  10
613.612518
  20
65.742919
  42
0.056875
  0
VERTEX
  8
0
  10
613.440854
  20
65.711647
  42
0.059167
  0
VERTEX
  8
0
  10
613.287119
  20
65.644459
  42
0.199800
  0
VERTEX
  8
0
  10
613.274537
  20
65.634292
  42
0.097468
  0
VERTEX
  8
0
  10
613.264949
  20
65.603561
  0
VERTEX
  8
0
  10
613.225289
  20
65.171440
  42
-0.236068
  0
VERTEX
  8
0
  10
613.221709
  20
65.162902
  42
-0.162278
  0
VERTEX
  8
0
  10
613.209591
  20
65.157945
  0
VERTEX
  8
0
  10
613.036082
  20
65.146377
  42
-0.414214
  0
VERTEX
  8
0
  10
613.018455
  20
65.161800
  0
VERTEX
  8
0
  10
612.980862
  20
65.725706
  42
-0.130520
  0
VERTEX
  8
0
  10
612.983763
  20
65.740552
  42
-0.102393
  0
VERTEX
  8
0
  10
612.995458
  20
65.755726
  42
-0.051419
  0
VERTEX
  8
0
  10
613.116670
  20
65.823014
  42
-0.029940
  0
VERTEX
  8
0
  10
613.340411
  20
65.903209
  42
-0.027930
  0
VERTEX
  8
0
  10
613.515217
  20
65.942189
  42
-0.024253
  0
VERTEX
  8
0
  10
613.720066
  20
65.965865
  42
-0.072913
  0
VERTEX
  8
0
  10
614.071499
  20
65.938044
  42
-0.093375
  0
VERTEX
  8
0
  10
614.324733
  20
65.827746
  42
-0.230999
  0
VERTEX
  8
0
  10
614.613502
  20
65.324156
  42
-0.057103
  0
VERTEX
  8
0
  10
614.601799
  20
65.078050
  42
-0.043381
  0
VERTEX
  8
0
  10
614.522203
  20
64.764106
  42
-0.030563
  0
VERTEX
  8
0
  10
614.420555
  20
64.524695
  42
-0.028587
  0
VERTEX
  8
0
  10
614.282457
  20
64.283375
  42
-0.029153
  0
VERTEX
  8
0
  10
614.015267
  20
63.922298
  42
-0.017768
  0
VERTEX
  8
0
  10
613.523560
  20
63.373828
  0
VERTEX
  8
0
  10
614.810421
  20
63.459619
  0
SEQEND
  0
POLYLINE
  8
0
  66
1
  70
1
  0
VERTEX
  8
0
  10
611.882451
  20
63.046570
  42
0.178806
  0
VERTEX
  8
0
  10
612.086167
  20
63.137651
  42
0.126742
  0
VERTEX
  8
0
  10
612.246683
  20
63.402815
  42
0.057660
  0
VERTEX
  8
0
  10
612.310088
  20
63.746417
  42
0.033476
  0
VERTEX
  8
0
  10
612.310303
  20
64.346926
  42
0.038181
  0
VERTEX
  8
0
  10
612.224962
  20
64.940091
  42
0.059488
  0
VERTEX
  8
0
  10
612.097134
  20
65.303706
  42
0.115927
  0
VERTEX
  8
0
  10
611.876437
  20
65.572359
  42
0.181667
  0
VERTEX
  8
0
  10
611.659918
  20
65.637643
  42
0.178127
  0
VERTEX
  8
0
  10
611.455772
  20
65.546691
  42
0.126022
  0
VERTEX
  8
0
  10
611.293621
  20
65.281260
  42
0.056761
  0
VERTEX
  8
0
  10
611.231580
  20
64.937988
  42
0.033005
  0
VERTEX
  8
0
  10
611.231929
  20
64.339352
  42
0.038261
  0
VERTEX
  8
0
  10
611.317356
  20
63.746260
  42
0.059914
  0
VERTEX
  8
0
  10
611.444960
  20
63.384638
  42
0.115508
  0
VERTEX
  8
0
  10
611.666448
  20
63.112363
  42
0.183123
  0
VERTEX
  8
0
  10
611.882451
  20
63.046570
  0
SEQEND
  0
POLYLINE
  8
0
  66
1
  70
1
  0
VERTEX
  8
0
  10
611.709217
  20
65.831808
  42
-0.125436
  0
VERTEX
  8
0
  10
612.126605
  20
65.754562
  42
-0.138408
  0
VERTEX
  8
0
  10
612.419917
  20
65.503655
  42
-0.081504
  0
VERTEX
  8
0
  10
612.595018
  20
65.121438
  42
-0.050134
  0
VERTEX
  8
0
  10
612.707997
  20
64.450206
  42
-0.054377
  0
VERTEX
  8
0
  10
612.678597
  20
63.751909
  42
-0.084004
  0
VERTEX
  8
0
  10
612.536416
  20
63.320467
  42
-0.124293
  0
VERTEX
  8
0
  10
612.236042
  20
62.989011
  42
-0.130907
  0
VERTEX
  8
0
  10
611.833152
  20
62.852405
  42
-0.125968
  0
VERTEX
  8
0
  10
611.417331
  20
62.929812
  42
-0.135946
  0
VERTEX
  8
0
  10
611.118046
  20
63.184414
  42
-0.085203
  0
VERTEX
  8
0
  10
610.948385
  20
63.550877
  42
-0.049296
  0
VERTEX
  8
0
  10
610.834234
  20
64.236073
  42
-0.054820
  0
VERTEX
  8
0
  10
610.864159
  20
64.932163
  42
-0.083919
  0
VERTEX
  8
0
  10
611.007881
  20
65.365949
  42
-0.125780
  0
VERTEX
  8
0
  10
611.304755
  20
65.694874
  42
-0.130675
  0
VERTEX
  8
0
  10
611.709217
  20
65.831808
  0
SEQEND
  0
POLYLINE
  8
0
  66
1
  70
1
  0
VERTEX
  8
0
  10
610.580098
  20
63.177597
  42
-0.414214
  0
VERTEX
  8
0
  10
610.597724
  20
63.162174
  0
VERTEX
  8
0
  10
610.618380
  20
62.852336
  42
-0.414214
  0
VERTEX
  8
0
  10
610.602957
  20
62.834710
  0
VERTEX
  8
0
  10
608.867864
  20
62.719037
  42
-0.185729
  0
VERTEX
  8
0
  10
608.861529
  20
62.720689
  0
VERTEX
  8
0
  10
608.854919
  20
62.726473
  0
VERTEX
  8
0
  10
608.783863
  20
62.827549
  42
-0.147202
  0
VERTEX
  8
0
  10
608.778768
  20
62.841733
  42
-0.281640
  0
VERTEX
  8
0
  10
608.786204
  20
62.854677
  42
0.026498
  0
VERTEX
  8
0
  10
609.321790
  20
63.439818
  42
0.032627
  0
VERTEX
  8
0
  10
609.697817
  20
63.963209
  42
0.035888
  0
VERTEX
  8
0
  10
609.791245
  20
64.142338
  42
0.027387
  0
VERTEX
  8
0
  10
609.883031
  20
64.390510
  42
0.042468
  0
VERTEX
  8
0
  10
609.940714
  20
64.649629
  42
0.050223
  0
VERTEX
  8
0
  10
609.948304
  20
64.874133
  42
0.075524
  0
VERTEX
  8
0
  10
609.894652
  20
65.117103
  42
0.089499
  0
VERTEX
  8
0
  10
609.785260
  20
65.296890
  42
0.117376
  0
VERTEX
  8
0
  10
609.606189
  20
65.424764
  42
0.113739
  0
VERTEX
  8
0
  10
609.382195
  20
65.460897
  42
0.056875
  0
VERTEX
  8
0
  10
609.210531
  20
65.429625
  42
0.059167
  0
VERTEX
  8
0
  10
609.056796
  20
65.362438
  42
0.199800
  0
VERTEX
  8
0
  10
609.044213
  20
65.352270
  42
0.097468
  0
VERTEX
  8
0
  10
609.034626
  20
65.321539
  0
VERTEX
  8
0
  10
608.994966
  20
64.889418
  42
-0.236068
  0
VERTEX
  8
0
  10
608.991386
  20
64.880880
  42
-0.162278
  0
VERTEX
  8
0
  10
608.979268
  20
64.875923
  0
VERTEX
  8
0
  10
608.805758
  20
64.864356
  42
-0.414214
  0
VERTEX
  8
0
  10
608.788132
  20
64.879779
  0
VERTEX
  8
0
  10
608.750538
  20
65.443684
  42
-0.130520
  0
VERTEX
  8
0
  10
608.753440
  20
65.458530
  42
-0.102393
  0
VERTEX
  8
0
  10
608.765135
  20
65.473704
  42
-0.051419
  0
VERTEX
  8
0
  10
608.886347
  20
65.540992
  42
-0.029940
  0
VERTEX
  8
0
  10
609.110088
  20
65.621187
  42
-0.027930
  0
VERTEX
  8
0
  10
609.284894
  20
65.660168
  42
-0.024253
  0
VERTEX
  8
0
  10
609.489743
  20
65.683843
  42
-0.072913
  0
VERTEX
  8
0
  10
609.841176
  20
65.656022
  42
-0.093375
  0
VERTEX
  8
0
  10
610.094410
  20
65.545724
  42
-0.230999
  0
VERTEX
  8
0
  10
610.383179
  20
65.042134
  42
-0.057103
  0
VERTEX
  8
0
  10
610.371476
  20
64.796028
  42
-0.043381
  0
VERTEX
  8
0
  10
610.291880
  20
64.482084
  42
-0.030563
  0
VERTEX
  8
0
  10
610.190232
  20
64.242673
  42
-0.028587
  0
VERTEX
  8
0
  10
610.052134
  20
64.001353
  42
-0.029153
  0
VERTEX
  8
0
  10
609.784944
  20
63.640277
  42
-0.017768
  0
VERTEX
  8
0
  10
609.293237
  20
63.091806
  0
VERTEX
  8
0
  10
610.580098
  20
63.177597
  0
SEQEND
  0
POLYLINE
  8
0
  66
1
  70
1
  0
VERTEX
  8
0
  10
583.094037
  20
61.149565
  42
-0.073346
  0
VERTEX
  8
0
  10
582.746018
  20
61.200893
  42
-0.050553
  0
VERTEX
  8
0
  10
582.276033
  20
61.396217
  42
-0.018060
  0
VERTEX
  8
0
  10
582.113432
  20
61.491709
  42
-0.004407
  0
VERTEX
  8
0
  10
581.465500
  20
61.912466
  42
0.021441
  0
VERTEX
  8
0
  10
580.950753
  20
62.222338
  42
0.037743
  0
VERTEX
  8
0
  10
580.639296
  20
62.362756
  42
0.073075
  0
VERTEX
  8
0
  10
580.174631
  20
62.458020
  42
0.086179
  0
VERTEX
  8
0
  10
579.774281
  20
62.411529
  42
0.014220
  0
VERTEX
  8
0
  10
579.732772
  20
62.397958
  42
0.000639
  0
VERTEX
  8
0
  10
578.818299
  20
62.068604
  42
-0.016568
  0
VERTEX
  8
0
  10
578.111295
  20
61.839135
  42
-0.030493
  0
VERTEX
  8
0
  10
577.716878
  20
61.751044
  42
-0.085441
  0
VERTEX
  8
0
  10
577.187916
  20
61.757231
  42
-0.180286
  0
VERTEX
  8
0
  10
576.967362
  20
61.889108
  42
-0.111928
  0
VERTEX
  8
0
  10
576.897402
  20
62.033115
  42
-0.077070
  0
VERTEX
  8
0
  10
576.879987
  20
62.263456
  42
-0.050559
  0
VERTEX
  8
0
  10
576.926141
  20
62.517949
  42
-0.031123
  0
VERTEX
  8
0
  10
577.067092
  20
62.913059
  42
0.038452
  0
VERTEX
  8
0
  10
577.480607
  20
64.128139
  42
0.038874
  0
VERTEX
  8
0
  10
577.699725
  20
65.378738
  42
0.028476
  0
VERTEX
  8
0
  10
577.739297
  20
66.397974
  42
0.021943
  0
VERTEX
  8
0
  10
577.657296
  20
67.718684
  42
0.005438
  0
VERTEX
  8
0
  10
577.603282
  20
68.179172
  42
0.003543
  0
VERTEX
  8
0
  10
577.507698
  20
68.884352
  0
VERTEX
  8
0
  10
577.339054
  20
70.070000
  42
-0.013973
  0
VERTEX
  8
0
  10
577.185034
  20
71.521524
  42
-0.019445
  0
VERTEX
  8
0
  10
577.144251
  20
72.569789
  42
-0.077262
  0
VERTEX
  8
0
  10
577.276591
  20
73.421113
  42
-0.054217
  0
VERTEX
  8
0
  10
577.772091
  20
74.540397
  42
-0.032347
  0
VERTEX
  8
0
  10
578.361864
  20
75.421696
  42
-0.023753
  0
VERTEX
  8
0
  10
579.293861
  20
76.523878
  42
-0.022792
  0
VERTEX
  8
0
  10
580.583546
  20
77.789023
  42
-0.013870
  0
VERTEX
  8
0
  10
582.848694
  20
79.706549
  42
-0.024043
  0
VERTEX
  8
0
  10
584.088397
  20
80.604116
  42
-0.039593
  0
VERTEX
  8
0
  10
584.905091
  20
81.049686
  42
-0.060486
  0
VERTEX
  8
0
  10
585.596805
  20
81.263257
  42
-0.117556
  0
VERTEX
  8
0
  10
585.972487
  20
81.242426
  42
-0.098114
  0
VERTEX
  8
0
  10
586.164717
  20
81.141117
  42
-0.095455
  0
VERTEX
  8
0
  10
586.308498
  20
80.970355
  42
-0.077124
  0
VERTEX
  8
0
  10
586.395397
  20
80.736336
  42
-0.050445
  0
VERTEX
  8
0
  10
586.433675
  20
80.357901
  42
-0.028854
  0
VERTEX
  8
0
  10
586.395290
  20
79.693290
  42
-0.022611
  0
VERTEX
  8
0
  10
586.259485
  20
78.854951
  42
-0.009446
  0
VERTEX
  8
0
  10
586.180141
  20
78.507812
  42
-0.002894
  0
VERTEX
  8
0
  10
585.893321
  20
77.381639
  42
0.010122
  0
VERTEX
  8
0
  10
585.673321
  20
76.462478
  42
0.016670
  0
VERTEX
  8
0
  10
585.569796
  20
75.897883
  42
0.029474
  0
VERTEX
  8
0
  10
585.495960
  20
75.071219
  42
0.034554
  0
VERTEX
  8
0
  10
585.523522
  20
74.363603
  42
0.025235
  0
VERTEX
  8
0
  10
585.818561
  20
72.517437
  42
0.018838
  0
VERTEX
  8
0
  10
586.429766
  20
70.089396
  42
0.003464
  0
VERTEX
  8
0
  10
586.608779
  20
69.492142
  42
0.001407
  0
VERTEX
  8
0
  10
587.063736
  20
68.026314
  42
-0.002609
  0
VERTEX
  8
0
  10
587.473703
  20
66.694144
  42
-0.004476
  0
VERTEX
  8
0
  10
587.701618
  20
65.914414
  42
-0.060046
  0
VERTEX
  8
0
  10
587.863023
  20
64.884675
  42
-0.074101
  0
VERTEX
  8
0
  10
587.768112
  20
64.043822
  42
-0.071940
  0
VERTEX
  8
0
  10
587.465026
  20
63.334805
  42
-0.065759
  0
VERTEX
  8
0
  10
586.935755
  20
62.678861
  42
-0.084837
  0
VERTEX
  8
0
  10
585.732547
  20
61.871023
  42
-0.056212
  0
VERTEX
  8
0
  10
583.657706
  20
61.207078
  42
-0.023933
  0
VERTEX
  8
0
  10
583.368758
  20
61.163544
  42
-0.025426
  0
VERTEX
  8
0
  10
583.094037
  20
61.149565
  0
SEQEND
  0
POLYLINE
  8
0
  66
1
  70
1
  0
VERTEX
  8
0
  10
569.927340
  20
111.277580
  42
0.414214
  0
VERTEX
  8
0
  10
568.927340
  20
110.277580
  42
0.414214
  0
VERTEX
  8
0
  10
569.927340
  20
109.277580
  42
0.414214
  0
VERTEX
  8
0
  10
570.927340
  20
110.277580
  42
0.414214
  0
VERTEX
  8
0
  10
569.927340
  20
111.277580
  0
SEQEND
  0
POLYLINE
  8
0
  66
1
  70
1
  0
VERTEX
  8
0
  10
609.809979
  20
79.028884
  42
0.414214
  0
VERTEX
  8
0
  10
608.809979
  20
78.028884
  42
0.414214
  0
VERTEX
  8
0
  10
609.809979
  20
77.028884
  42
0.414214
  0
VERTEX
  8
0
  10
610.809979
  20
78.028884
  42
0.414214
  0
VERTEX
  8
0
  10
609.809979
  20
79.028884
  0
SEQEND
  0
POLYLINE
  8
0
  66
1
  70
1
  0
VERTEX
  8
0
  10
584.842357
  20
58.799968
  42
0.046997
  0
VERTEX
  8
0
  10
585.656713
  20
59.087032
  42
0.035474
  0
VERTEX
  8
0
  10
586.657623
  20
59.638709
  42
0.006520
  0
VERTEX
  8
0
  10
586.900891
  20
59.800782
  42
0.002694
  0
VERTEX
  8
0
  10
587.482301
  20
60.203800
  42
-0.004656
  0
VERTEX
  8
0
  10
588.019171
  20
60.572833
  42
-0.008057
  0
VERTEX
  8
0
  10
588.334782
  20
60.778161
  42
0.004291
  0
VERTEX
  8
0
  10
590.234674
  20
61.993913
  42
0.026863
  0
VERTEX
  8
0
  10
590.525646
  20
62.206754
  42
-0.041773
  0
VERTEX
  8
0
  10
591.036153
  20
62.557330
  42
-0.027186
  0
VERTEX
  8
0
  10
591.886294
  20
62.982670
  42
-0.005815
  0
VERTEX
  8
0
  10
592.177173
  20
63.104936
  42
-0.003459
  0
VERTEX
  8
0
  10
592.669867
  20
63.301361
  42
0.000928
  0
VERTEX
  8
0
  10
593.284389
  20
63.542758
  42
0.003116
  0
VERTEX
  8
0
  10
593.466798
  20
63.616120
  42
0.020213
  0
VERTEX
  8
0
  10
594.384777
  20
64.036059
  42
0.031992
  0
VERTEX
  8
0
  10
594.934318
  20
64.360576
  42
0.057297
  0
VERTEX
  8
0
  10
595.568032
  20
64.907317
  42
0.070322
  0
VERTEX
  8
0
  10
595.956010
  20
65.469510
  42
0.100346
  0
VERTEX
  8
0
  10
596.137026
  20
66.140167
  42
0.071637
  0
VERTEX
  8
0
  10
596.060200
  20
67.105403
  42
0.015169
  0
VERTEX
  8
0
  10
595.976135
  20
67.430841
  42
0.009113
  0
VERTEX
  8
0
  10
595.810102
  20
67.965021
  42
-0.001792
  0
VERTEX
  8
0
  10
595.584533
  20
68.654942
  42
-0.007375
  0
VERTEX
  8
0
  10
595.532808
  20
68.823550
  42
-0.053388
  0
VERTEX
  8
0
  10
595.353296
  20
69.831568
  42
-0.088216
  0
VERTEX
  8
0
  10
595.419433
  20
70.450736
  42
-0.062065
  0
VERTEX
  8
0
  10
595.580479
  20
70.824992
  42
-0.057513
  0
VERTEX
  8
0
  10
595.844752
  20
71.176089
  42
-0.051308
  0
VERTEX
  8
0
  10
596.212582
  20
71.491062
  42
-0.038758
  0
VERTEX
  8
0
  10
596.765675
  20
71.813747
  42
-0.035943
  0
VERTEX
  8
0
  10
597.620125
  20
72.153842
  42
-0.027841
  0
VERTEX
  8
0
  10
598.769527
  20
72.448902
  42
-0.011033
  0
VERTEX
  8
0
  10
599.189763
  20
72.522575
  42
-0.002771
  0
VERTEX
  8
0
  10
600.870065
  20
72.769557
  42
-0.002332
  0
VERTEX
  8
0
  10
601.167499
  20
72.810180
  0
VERTEX
  8
0
  10
602.937571
  20
73.042108
  42
0.035300
  0
VERTEX
  8
0
  10
604.746766
  20
73.408984
  42
0.030647
  0
VERTEX
  8
0
  10
606.756397
  20
74.101636
  42
0.009044
  0
VERTEX
  8
0
  10
607.512382
  20
74.431359
  42
0.006662
  0
VERTEX
  8
0
  10
608.524031
  20
74.910949
  0
VERTEX
  8
0
  10
610.326346
  20
75.813551
  42
-0.070125
  0
VERTEX
  8
0
  10
611.016963
  20
76.045198
  42
-0.063331
  0
VERTEX
  8
0
  10
611.821501
  20
76.091197
  42
-0.039908
  0
VERTEX
  8
0
  10
612.465213
  20
75.994466
  42
-0.027762
  0
VERTEX
  8
0
  10
613.362615
  20
75.732098
  42
-0.006623
  0
VERTEX
  8
0
  10
613.670885
  20
75.618454
  42
-0.004380
  0
VERTEX
  8
0
  10
614.133075
  20
75.436419
  0
VERTEX
  8
0
  10
614.894227
  20
75.128733
  42
0.018659
  0
VERTEX
  8
0
  10
615.804871
  20
74.808425
  42
0.031503
  0
VERTEX
  8
0
  10
616.360877
  20
74.673584
  42
0.027617
  0
VERTEX
  8
0
  10
618.257336
  20
74.445450
  42
0.024365
  0
VERTEX
  8
0
  10
620.421764
  20
74.411295
  42
0.025310
  0
VERTEX
  8
0
  10
622.705850
  20
74.602579
  42
0.026768
  0
VERTEX
  8
0
  10
624.835173
  20
75.006981
  42
0.033206
  0
VERTEX
  8
0
  10
627.088067
  20
75.722682
  42
0.039121
  0
VERTEX
  8
0
  10
628.893612
  20
76.599739
  42
0.052145
  0
VERTEX
  8
0
  10
630.664558
  20
77.903450
  42
0.061078
  0
VERTEX
  8
0
  10
631.889592
  20
79.328669
  42
0.061391
  0
VERTEX
  8
0
  10
632.146424
  20
79.840121
  42
0.086722
  0
VERTEX
  8
0
  10
632.215117
  20
80.240934
  42
0.101680
  0
VERTEX
  8
0
  10
632.141524
  20
80.593223
  42
0.110583
  0
VERTEX
  8
0
  10
631.946504
  20
80.861332
  42
0.184018
  0
VERTEX
  8
0
  10
631.319148
  20
81.095817
  42
0.123645
  0
VERTEX
  8
0
  10
630.371283
  20
80.851445
  42
0.003737
  0
VERTEX
  8
0
  10
630.005334
  20
80.648746
  42
0.001041
  0
VERTEX
  8
0
  10
628.698269
  20
79.908355
  42
-0.005135
  0
VERTEX
  8
0
  10
627.718965
  20
79.364167
  42
-0.008437
  0
VERTEX
  8
0
  10
627.114183
  20
79.049268
  42
-0.033827
  0
VERTEX
  8
0
  10
625.285621
  20
78.285724
  42
-0.038333
  0
VERTEX
  8
0
  10
623.591372
  20
77.850764
  42
0.008741
  0
VERTEX
  8
0
  10
622.587098
  20
77.655378
  42
0.008836
  0
VERTEX
  8
0
  10
621.601005
  20
77.427290
  42
-0.046425
  0
VERTEX
  8
0
  10
619.901285
  20
77.166586
  42
-0.051553
  0
VERTEX
  8
0
  10
618.353411
  20
77.234123
  42
-0.049350
  0
VERTEX
  8
0
  10
616.955256
  20
77.584050
  42
-0.047227
  0
VERTEX
  8
0
  10
615.591765
  20
78.223032
  42
-0.039431
  0
VERTEX
  8
0
  10
614.447969
  20
79.024918
  42
-0.034532
  0
VERTEX
  8
0
  10
613.291496
  20
80.122561
  42
-0.027321
  0
VERTEX
  8
0
  10
612.361646
  20
81.254196
  42
-0.023693
  0
VERTEX
  8
0
  10
611.428033
  20
82.661258
  42
-0.042516
  0
VERTEX
  8
0
  10
611.318597
  20
82.885819
  42
-0.027122
  0
VERTEX
  8
0
  10
611.197682
  20
83.257842
  42
-0.009310
  0
VERTEX
  8
0
  10
611.169139
  20
83.373776
  42
-0.001844
  0
VERTEX
  8
0
  10
611.038143
  20
83.962076
  42
0.012588
  0
VERTEX
  8
0
  10
610.931574
  20
84.396462
  42
0.021891
  0
VERTEX
  8
0
  10
610.853203
  20
84.641515
  42
0.044412
  0
VERTEX
  8
0
  10
610.699806
  20
84.965605
  42
0.063726
  0
VERTEX
  8
0
  10
610.546648
  20
85.163715
  42
-0.079584
  0
VERTEX
  8
0
  10
610.344406
  20
85.443107
  42
-0.041511
  0
VERTEX
  8
0
  10
610.097350
  20
86.053212
  42
-0.019805
  0
VERTEX
  8
0
  10
609.959133
  20
86.568262
  42
-0.012680
  0
VERTEX
  8
0
  10
609.795966
  20
87.384859
  42
-0.004901
  0
VERTEX
  8
0
  10
609.737813
  20
87.740555
  42
-0.001673
  0
VERTEX
  8
0
  10
609.581211
  20
88.784437
  42
0.006496
  0
VERTEX
  8
0
  10
609.455647
  20
89.569721
  42
0.016427
  0
VERTEX
  8
0
  10
609.391798
  20
89.877731
  42
0.034546
  0
VERTEX
  8
0
  10
608.069253
  20
94.059449
  42
0.042031
  0
VERTEX
  8
0
  10
606.469927
  20
97.292434
  42
0.029975
  0
VERTEX
  8
0
  10
605.264732
  20
99.041516
  42
0.034199
  0
VERTEX
  8
0
  10
604.020573
  20
100.427188
  42
0.042352
  0
VERTEX
  8
0
  10
602.440507
  20
101.721032
  42
0.045846
  0
VERTEX
  8
0
  10
600.793383
  20
102.642046
  0
VERTEX
  8
0
  10
597.201564
  20
104.248593
  42
0.005586
  0
VERTEX
  8
0
  10
595.121461
  20
105.136700
  42
0.007532
  0
VERTEX
  8
0
  10
593.562081
  20
105.754639
  42
-0.002862
  0
VERTEX
  8
0
  10
592.660578
  20
106.102172
  42
-0.001557
  0
VERTEX
  8
0
  10
591.009398
  20
106.755528
  42
0.001195
  0
VERTEX
  8
0
  10
589.292762
  20
107.436223
  42
0.002591
  0
VERTEX
  8
0
  10
588.498953
  20
107.744057
  42
0.013269
  0
VERTEX
  8
0
  10
585.544438
  20
108.783267
  42
0.017758
  0
VERTEX
  8
0
  10
583.292585
  20
109.421474
  42
-0.018864
  0
VERTEX
  8
0
  10
579.874283
  20
110.398435
  42
-0.022200
  0
VERTEX
  8
0
  10
577.047190
  20
111.464170
  42
0.036363
  0
VERTEX
  8
0
  10
573.993777
  20
112.517543
  42
0.040108
  0
VERTEX
  8
0
  10
571.111461
  20
113.040046
  42
0.056897
  0
VERTEX
  8
0
  10
567.752418
  20
112.991297
  42
0.069586
  0
VERTEX
  8
0
  10
565.098796
  20
112.265079
  42
0.011751
  0
VERTEX
  8
0
  10
564.364759
  20
111.928809
  42
0.005703
  0
VERTEX
  8
0
  10
562.877462
  20
111.183602
  42
-0.005096
  0
VERTEX
  8
0
  10
561.350470
  20
110.416188
  42
-0.010529
  0
VERTEX
  8
0
  10
560.600059
  20
110.067985
  42
-0.022087
  0
VERTEX
  8
0
  10
559.293384
  20
109.562341
  42
-0.028872
  0
VERTEX
  8
0
  10
558.259263
  20
109.279111
  42
-0.041935
  0
VERTEX
  8
0
  10
556.985298
  20
109.118021
  42
-0.047295
  0
VERTEX
  8
0
  10
555.847752
  20
109.177864
  42
0.033634
  0
VERTEX
  8
0
  10
551.843071
  20
109.498264
  42
0.044918
  0
VERTEX
  8
0
  10
548.841145
  20
109.266112
  42
0.033609
  0
VERTEX
  8
0
  10
547.051758
  20
108.839303
  42
0.038298
  0
VERTEX
  8
0
  10
545.550808
  20
108.243461
  42
0.046532
  0
VERTEX
  8
0
  10
544.034506
  20
107.319117
  42
0.048275
  0
VERTEX
  8
0
  10
542.766712
  20
106.168641
  42
0.028774
  0
VERTEX
  8
0
  10
542.338018
  20
105.638367
  42
0.023464
  0
VERTEX
  8
0
  10
541.883092
  20
104.937004
  42
0.005106
  0
VERTEX
  8
0
  10
541.762448
  20
104.725452
  42
0.002711
  0
VERTEX
  8
0
  10
541.541533
  20
104.323604
  42
-0.002421
  0
VERTEX
  8
0
  10
541.318456
  20
103.917263
  42
-0.005069
  0
VERTEX
  8
0
  10
541.209001
  20
103.724782
  42
-0.025478
  0
VERTEX
  8
0
  10
540.779823
  20
103.067039
  42
-0.033591
  0
VERTEX
  8
0
  10
540.397594
  20
102.609756
  42
-0.044959
  0
VERTEX
  8
0
  10
539.819890
  20
102.105569
  42
-0.041034
  0
VERTEX
  8
0
  10
539.102026
  20
101.669708
  42
-0.018850
  0
VERTEX
  8
0
  10
538.628428
  20
101.454823
  42
-0.012249
  0
VERTEX
  8
0
  10
537.880597
  20
101.170123
  0
VERTEX
  8
0
  10
536.581619
  20
100.719667
  42
0.014508
  0
VERTEX
  8
0
  10
535.843048
  20
100.426280
  42
0.020650
  0
VERTEX
  8
0
  10
535.339813
  20
100.184164
  42
0.033397
  0
VERTEX
  8
0
  10
534.736213
  20
99.808679
  42
0.040556
  0
VERTEX
  8
0
  10
534.289901
  20
99.429440
  42
0.071923
  0
VERTEX
  8
0
  10
534.069515
  20
99.134548
  42
0.076514
  0
VERTEX
  8
0
  10
533.952247
  20
98.808715
  42
0.063952
  0
VERTEX
  8
0
  10
533.931198
  20
98.485385
  42
0.051982
  0
VERTEX
  8
0
  10
533.997208
  20
98.092819
  42
0.064160
  0
VERTEX
  8
0
  10
534.269859
  20
97.445425
  42
0.041605
  0
VERTEX
  8
0
  10
534.888890
  20
96.559561
  42
0.025098
  0
VERTEX
  8
0
  10
535.503342
  20
95.891013
  42
0.022001
  0
VERTEX
  8
0
  10
536.272782
  20
95.197763
  42
0.020587
  0
VERTEX
  8
0
  10
536.998064
  20
94.648467
  42
0.035122
  0
VERTEX
  8
0
  10
537.456718
  20
94.375523
  42
0.062067
  0
VERTEX
  8
0
  10
539.270486
  20
93.728583
  42
0.052846
  0
VERTEX
  8
0
  10
541.515399
  20
93.473717
  42
0.029377
  0
VERTEX
  8
0
  10
543.147188
  20
93.557474
  42
0.017814
  0
VERTEX
  8
0
  10
545.811734
  20
93.948317
  0
VERTEX
  8
0
  10
547.993280
  20
94.360059
  42
-0.006075
  0
VERTEX
  8
0
  10
549.270897
  20
94.579214
  42
-0.008698
  0
VERTEX
  8
0
  10
550.167350
  20
94.705850
  42
-0.033876
  0
VERTEX
  8
0
  10
552.614973
  20
94.841133
  42
-0.046211
  0
VERTEX
  8
0
  10
554.403876
  20
94.652846
  42
-0.047145
  0
VERTEX
  8
0
  10
558.530456
  20
93.414939
  42
-0.045722
  0
VERTEX
  8
0
  10
562.476292
  20
91.375509
  42
-0.037930
  0
VERTEX
  8
0
  10
565.729225
  20
88.932026
  42
-0.032987
  0
VERTEX
  8
0
  10
569.033946
  20
85.623212
  0
VERTEX
  8
0
  10
570.043823
  20
84.504865
  42
-0.011110
  0
VERTEX
  8
0
  10
570.577419
  20
83.884232
  42
-0.017115
  0
VERTEX
  8
0
  10
570.900581
  20
83.462371
  42
-0.060067
  0
VERTEX
  8
0
  10
571.572142
  20
82.231536
  42
-0.056769
  0
VERTEX
  8
0
  10
571.962084
  20
80.800694
  42
-0.009167
  0
VERTEX
  8
0
  10
572.174110
  20
79.231639
  42
-0.021426
  0
VERTEX
  8
0
  10
572.223629
  20
78.555803
  42
0.010849
  0
VERTEX
  8
0
  10
572.294451
  20
77.194804
  42
0.006545
  0
VERTEX
  8
0
  10
572.490208
  20
74.944612
  42
-0.000781
  0
VERTEX
  8
0
  10
572.802919
  20
71.773837
  42
-0.004306
  0
VERTEX
  8
0
  10
572.853793
  20
71.198083
  42
-0.011578
  0
VERTEX
  8
0
  10
572.974703
  20
69.055180
  42
-0.015691
  0
VERTEX
  8
0
  10
572.977599
  20
67.471215
  42
-0.024311
  0
VERTEX
  8
0
  10
572.823970
  20
65.509723
  42
-0.029560
  0
VERTEX
  8
0
  10
572.524839
  20
63.919002
  42
-0.054557
  0
VERTEX
  8
0
  10
572.406751
  20
63.599457
  42
-0.060986
  0
VERTEX
  8
0
  10
572.238391
  20
63.345163
  42
-0.050705
  0
VERTEX
  8
0
  10
572.046689
  20
63.161921
  42
-0.041760
  0
VERTEX
  8
0
  10
571.777229
  20
62.986132
  42
-0.023373
  0
VERTEX
  8
0
  10
571.564757
  20
62.884063
  42
-0.014173
  0
VERTEX
  8
0
  10
571.202854
  20
62.742547
  42
0.001031
  0
VERTEX
  8
0
  10
570.647899
  20
62.542189
  42
0.007993
  0
VERTEX
  8
0
  10
570.576767
  20
62.515048
  42
0.092666
  0
VERTEX
  8
0
  10
570.346835
  20
62.369185
  42
0.040419
  0
VERTEX
  8
0
  10
569.928842
  20
61.911305
  42
0.028601
  0
VERTEX
  8
0
  10
569.569169
  20
61.387721
  42
0.027769
  0
VERTEX
  8
0
  10
569.261741
  20
60.810244
  42
0.039671
  0
VERTEX
  8
0
  10
569.009537
  20
60.128604
  42
0.060307
  0
VERTEX
  8
0
  10
568.935760
  20
59.655226
  42
0.050389
  0
VERTEX
  8
0
  10
568.953425
  20
59.390183
  42
0.066001
  0
VERTEX
  8
0
  10
569.013281
  20
59.196035
  42
0.085320
  0
VERTEX
  8
0
  10
569.135047
  20
59.018468
  42
0.084154
  0
VERTEX
  8
0
  10
569.311194
  20
58.889615
  42
0.064441
  0
VERTEX
  8
0
  10
569.632951
  20
58.777625
  42
0.027462
  0
VERTEX
  8
0
  10
570.420587
  20
58.657516
  42
0.014857
  0
VERTEX
  8
0
  10
571.221665
  20
58.604000
  42
0.009249
  0
VERTEX
  8
0
  10
572.510905
  20
58.580150
  42
-0.008033
  0
VERTEX
  8
0
  10
573.608352
  20
58.562518
  42
-0.004552
  0
VERTEX
  8
0
  10
575.543631
  20
58.482676
  42
0.001255
  0
VERTEX
  8
0
  10
577.966896
  20
58.366694
  42
0.004029
  0
VERTEX
  8
0
  10
578.722294
  20
58.338537
  42
0.009805
  0
VERTEX
  8
0
  10
580.530646
  20
58.321195
  42
0.013152
  0
VERTEX
  8
0
  10
581.878125
  20
58.370159
  42
0.020346
  0
VERTEX
  8
0
  10
583.529553
  20
58.541377
  42
0.025251
  0
VERTEX
  8
0
  10
584.842357
  20
58.799968
  0
SEQEND
  0
POLYLINE
  8
0
  66
1
  70
1
  0
VERTEX
  8
0
  10
591.567591
  20
64.476244
  0
VERTEX
  8
0
  10
591.612054
  20
64.494411
  42
-0.003450
  0
VERTEX
  8
0
  10
592.122715
  20
64.698009
  0
VERTEX
  8
0
  10
592.730310
  20
64.936685
  0
VERTEX
  8
0
  10
592.902617
  20
65.005984
  42
0.015139
  0
VERTEX
  8
0
  10
593.510365
  20
65.276883
  42
0.053582
  0
VERTEX
  8
0
  10
593.298194
  20
65.498833
  42
0.058324
  0
VERTEX
  8
0
  10
592.980450
  20
65.708988
  42
0.047418
  0
VERTEX
  8
0
  10
592.544616
  20
65.879571
  42
0.081913
  0
VERTEX
  8
0
  10
592.297143
  20
65.908116
  42
0.065171
  0
VERTEX
  8
0
  10
591.989779
  20
65.852572
  42
0.055396
  0
VERTEX
  8
0
  10
591.711886
  20
65.728600
  42
0.058066
  0
VERTEX
  8
0
  10
591.480066
  20
65.553718
  42
0.075996
  0
VERTEX
  8
0
  10
591.296220
  20
65.315262
  42
0.097715
  0
VERTEX
  8
0
  10
591.224452
  20
65.091434
  42
0.060475
  0
VERTEX
  8
0
  10
591.225146
  20
64.961223
  42
0.059519
  0
VERTEX
  8
0
  10
591.257237
  20
64.832886
  42
0.057534
  0
VERTEX
  8
0
  10
591.323012
  20
64.706194
  42
0.047934
  0
VERTEX
  8
0
  10
591.431913
  20
64.574140
  42
0.080357
  0
VERTEX
  8
0
  10
591.567591
  20
64.476244
  0
SEQEND
  0
POLYLINE
  8
0
  66
1
  70
1
  0
VERTEX
  8
0
  10
576.084633
  20
74.514549
  42
0.034555
  0
VERTEX
  8
0
  10
575.552818
  20
74.941877
  42
0.037158
  0
VERTEX
  8
0
  10
574.948448
  20
75.298854
  42
0.037594
  0
VERTEX
  8
0
  10
574.305203
  20
75.558830
  42
0.020540
  0
VERTEX
  8
0
  10
573.927725
  20
75.662431
  0
VERTEX
  8
0
  10
573.973622
  20
75.185596
  42
-0.037725
  0
VERTEX
  8
0
  10
574.599021
  20
74.929110
  42
-0.038929
  0
VERTEX
  8
0
  10
575.268624
  20
74.525515
  42
-0.039041
  0
VERTEX
  8
0
  10
575.342941
  20
74.463135
  42
-0.011694
  0
VERTEX
  8
0
  10
575.568370
  20
74.231155
  0
VERTEX
  8
0
  10
575.656010
  20
74.134794
  0
VERTEX
  8
0
  10
575.710816
  20
74.071466
  0
VERTEX
  8
0
  10
575.737375
  20
74.038854
  0
VERTEX
  8
0
  10
575.748997
  20
74.023129
  0
VERTEX
  8
0
  10
575.754423
  20
74.014567
  0
VERTEX
  8
0
  10
575.755930
  20
74.011166
  0
VERTEX
  8
0
  10
575.755282
  20
74.009245
  0
VERTEX
  8
0
  10
575.753272
  20
74.008990
  42
0.019393
  0
VERTEX
  8
0
  10
575.132634
  20
74.229738
  42
0.014492
  0
VERTEX
  8
0
  10
574.284135
  20
74.468189
  42
0.012221
  0
VERTEX
  8
0
  10
574.039806
  20
74.522963
  42
-0.000640
  0
VERTEX
  8
0
  10
574.295905
  20
71.918725
  42
-0.004306
  0
VERTEX
  8
0
  10
574.349053
  20
71.317237
  42
-0.011578
  0
VERTEX
  8
0
  10
574.473876
  20
69.104984
  42
-0.015691
  0
VERTEX
  8
0
  10
574.476944
  20
67.426895
  42
-0.010095
  0
VERTEX
  8
0
  10
574.433291
  20
66.549998
  42
0.028269
  0
VERTEX
  8
0
  10
574.719379
  20
66.588509
  42
0.077905
  0
VERTEX
  8
0
  10
575.502374
  20
66.870627
  42
0.066061
  0
VERTEX
  8
0
  10
576.184433
  20
67.371331
  42
0.003492
  0
VERTEX
  8
0
  10
576.165697
  20
67.560149
  42
0.005438
  0
VERTEX
  8
0
  10
576.115484
  20
67.988232
  42
0.003543
  0
VERTEX
  8
0
  10
576.022755
  20
68.672348
  0
VERTEX
  8
0
  10
575.854001
  20
69.858769
  0
VERTEX
  8
0
  10
575.852432
  20
69.870110
  42
-0.013973
  0
VERTEX
  8
0
  10
575.689568
  20
71.404987
  42
-0.019445
  0
VERTEX
  8
0
  10
575.644251
  20
72.569788
  42
-0.077262
  0
VERTEX
  8
0
  10
575.847376
  20
73.876465
  42
-0.023780
  0
VERTEX
  8
0
  10
576.084633
  20
74.514549
  0
SEQEND
  0
POLYLINE
  8
0
  66
1
  70
1
  0
VERTEX
  8
0
  10
561.016161
  20
93.931640
  42
-0.022241
  0
VERTEX
  8
0
  10
563.019185
  20
92.806377
  42
-0.054986
  0
VERTEX
  8
0
  10
563.135776
  20
92.896881
  42
-0.074498
  0
VERTEX
  8
0
  10
563.341151
  20
92.984077
  42
-0.063281
  0
VERTEX
  8
0
  10
563.601327
  20
93.017138
  42
-0.052019
  0
VERTEX
  8
0
  10
563.837413
  20
92.992509
  42
-0.061939
  0
VERTEX
  8
0
  10
564.026115
  20
92.927535
  42
-0.062571
  0
VERTEX
  8
0
  10
564.180881
  20
92.826070
  42
-0.061510
  0
VERTEX
  8
0
  10
564.308169
  20
92.687405
  42
-0.095343
  0
VERTEX
  8
0
  10
564.450823
  20
92.376081
  42
-0.072198
  0
VERTEX
  8
0
  10
564.493739
  20
91.927637
  42
-0.012840
  0
VERTEX
  8
0
  10
564.486272
  20
91.827470
  42
-0.023700
  0
VERTEX
  8
0
  10
566.596964
  20
90.165562
  42
0.031972
  0
VERTEX
  8
0
  10
566.542092
  20
91.161710
  42
0.048821
  0
VERTEX
  8
0
  10
566.301715
  20
92.254505
  42
0.030462
  0
VERTEX
  8
0
  10
566.082489
  20
92.811468
  42
0.033729
  0
VERTEX
  8
0
  10
565.821694
  20
93.285100
  42
0.039087
  0
VERTEX
  8
0
  10
565.476881
  20
93.739726
  42
0.041623
  0
VERTEX
  8
0
  10
565.088625
  20
94.109170
  42
0.045117
  0
VERTEX
  8
0
  10
564.616578
  20
94.423324
  42
0.043823
  0
VERTEX
  8
0
  10
564.081120
  20
94.655694
  42
0.042805
  0
VERTEX
  8
0
  10
563.478851
  20
94.800714
  42
0.037701
  0
VERTEX
  8
0
  10
562.777792
  20
94.853651
  42
0.049624
  0
VERTEX
  8
0
  10
562.308966
  20
94.807007
  42
0.053792
  0
VERTEX
  8
0
  10
561.894326
  20
94.676098
  42
0.051152
  0
VERTEX
  8
0
  10
561.543438
  20
94.477279
  42
0.050425
  0
VERTEX
  8
0
  10
561.235480
  20
94.208002
  42
0.040383
  0
VERTEX
  8
0
  10
561.016161
  20
93.931640
  0
SEQEND
  0
POLYLINE
  8
0
  66
1
  70
1
  0
VERTEX
  8
0
  10
535.666267
  20
98.035343
  42
0.031997
  0
VERTEX
  8
0
  10
536.042818
  20
97.517918
  42
0.025098
  0
VERTEX
  8
0
  10
536.555433
  20
96.960173
  42
0.022001
  0
VERTEX
  8
0
  10
537.226848
  20
96.355241
  42
0.020587
  0
VERTEX
  8
0
  10
537.853702
  20
95.880491
  42
0.035122
  0
VERTEX
  8
0
  10
538.131486
  20
95.715183
  42
0.062067
  0
VERTEX
  8
0
  10
539.595840
  20
95.192873
  42
0.052846
  0
VERTEX
  8
0
  10
541.526578
  20
94.973675
  0
VERTEX
  8
0
  10
541.578768
  20
94.973396
  42
0.038478
  0
VERTEX
  8
0
  10
541.157291
  20
95.816689
  42
0.062453
  0
VERTEX
  8
0
  10
540.239221
  20
96.987118
  42
0.068740
  0
VERTEX
  8
0
  10
539.157262
  20
97.798818
  42
0.039517
  0
VERTEX
  8
0
  10
538.517745
  20
98.090088
  42
0.041836
  0
VERTEX
  8
0
  10
537.876976
  20
98.263818
  42
0.045667
  0
VERTEX
  8
0
  10
537.183124
  20
98.326341
  42
0.045731
  0
VERTEX
  8
0
  10
536.490419
  20
98.261871
  42
0.037716
  0
VERTEX
  8
0
  10
535.748638
  20
98.064861
  0
VERTEX
  8
0
  10
535.666267
  20
98.035343
  0
SEQEND
  0
POLYLINE
  8
0
  66
1
  70
1
  0
VERTEX
  8
0
  10
541.559433
  20
101.655889
  0
VERTEX
  8
0
  10
541.481338
  20
101.572694
  42
-0.044959
  0
VERTEX
  8
0
  10
540.700808
  20
100.891492
  42
-0.041034
  0
VERTEX
  8
0
  10
539.772847
  20
100.328068
  42
-0.018850
  0
VERTEX
  8
0
  10
539.196288
  20
100.066466
  42
-0.009564
  0
VERTEX
  8
0
  10
538.560009
  20
99.820315
  42
-0.053411
  0
VERTEX
  8
0
  10
539.741685
  20
99.336199
  42
-0.038343
  0
VERTEX
  8
0
  10
540.535054
  20
98.825211
  42
0.024635
  0
VERTEX
  8
0
  10
540.704382
  20
98.914448
  42
0.069444
  0
VERTEX
  8
0
  10
541.192350
  20
99.303384
  42
0.067567
  0
VERTEX
  8
0
  10
541.555399
  20
99.807365
  42
0.070890
  0
VERTEX
  8
0
  10
541.757261
  20
100.364185
  42
0.083103
  0
VERTEX
  8
0
  10
541.782672
  20
100.992475
  42
0.084763
  0
VERTEX
  8
0
  10
541.603664
  20
101.582581
  42
0.039639
  0
VERTEX
  8
0
  10
541.559433
  20
101.655889
  0
SEQEND
  0
POLYLINE
  8
0
  66
1
  70
1
  0
VERTEX
  8
0
  10
542.998885
  20
103.862069
  0
VERTEX
  8
0
  10
542.859895
  20
103.608118
  42
-0.002421
  0
VERTEX
  8
0
  10
542.629830
  20
103.189047
  42
-0.005069
  0
VERTEX
  8
0
  10
542.505337
  20
102.970122
  42
-0.025478
  0
VERTEX
  8
0
  10
541.992680
  20
102.184442
  42
-0.011183
  0
VERTEX
  8
0
  10
541.831577
  20
101.973153
  42
-0.027069
  0
VERTEX
  8
0
  10
541.927665
  20
101.837222
  42
-0.068281
  0
VERTEX
  8
0
  10
542.164269
  20
101.314239
  42
-0.051742
  0
VERTEX
  8
0
  10
542.262662
  20
100.788811
  42
-0.045821
  0
VERTEX
  8
0
  10
542.256719
  20
100.185550
  42
-0.043213
  0
VERTEX
  8
0
  10
542.147239
  20
99.609458
  42
-0.047404
  0
VERTEX
  8
0
  10
541.954406
  20
99.110679
  42
-0.076421
  0
VERTEX
  8
0
  10
541.534197
  20
98.517312
  42
-0.055241
  0
VERTEX
  8
0
  10
541.200399
  20
98.240867
  42
-0.060188
  0
VERTEX
  8
0
  10
542.139093
  20
97.028468
  42
-0.069654
  0
VERTEX
  8
0
  10
542.843235
  20
95.360793
  42
-0.011031
  0
VERTEX
  8
0
  10
542.920764
  20
95.041742
  0
VERTEX
  8
0
  10
542.982490
  20
95.048405
  42
0.017787
  0
VERTEX
  8
0
  10
545.537465
  20
95.423035
  0
VERTEX
  8
0
  10
547.715083
  20
95.834035
  42
-0.006106
  0
VERTEX
  8
0
  10
549.035280
  20
96.060593
  42
-0.006770
  0
VERTEX
  8
0
  10
549.772856
  20
96.167688
  0
VERTEX
  8
0
  10
549.728014
  20
96.261136
  42
0.045617
  0
VERTEX
  8
0
  10
549.677626
  20
96.342438
  42
0.020645
  0
VERTEX
  8
0
  10
549.543760
  20
96.505536
  0
VERTEX
  8
0
  10
549.493373
  20
96.561086
  0
VERTEX
  8
0
  10
549.410427
  20
96.650147
  0
VERTEX
  8
0
  10
549.268905
  20
96.800530
  42
-0.010133
  0
VERTEX
  8
0
  10
549.102325
  20
96.986578
  42
-0.018946
  0
VERTEX
  8
0
  10
549.019145
  20
97.091118
  42
-0.048477
  0
VERTEX
  8
0
  10
548.927500
  20
97.244936
  42
-0.110560
  0
VERTEX
  8
0
  10
548.910181
  20
97.322301
  42
-0.025248
  0
VERTEX
  8
0
  10
548.217868
  20
98.226395
  42
-0.028100
  0
VERTEX
  8
0
  10
547.685757
  20
99.100484
  42
-0.029887
  0
VERTEX
  8
0
  10
547.262440
  20
100.021333
  42
-0.030704
  0
VERTEX
  8
0
  10
546.961714
  20
100.960954
  42
-0.029624
  0
VERTEX
  8
0
  10
546.779307
  20
101.913898
  42
-0.027821
  0
VERTEX
  8
0
  10
546.702656
  20
102.944084
  42
-0.024488
  0
VERTEX
  8
0
  10
546.733184
  20
103.950477
  42
-0.021468
  0
VERTEX
  8
0
  10
546.873184
  20
105.090248
  42
0.143893
  0
VERTEX
  8
0
  10
546.867582
  20
105.136444
  42
0.152438
  0
VERTEX
  8
0
  10
546.838910
  20
105.169866
  42
0.179547
  0
VERTEX
  8
0
  10
546.797138
  20
105.178504
  42
0.159837
  0
VERTEX
  8
0
  10
546.754659
  20
105.157011
  42
-0.044163
  0
VERTEX
  8
0
  10
546.385851
  20
104.848173
  42
-0.036150
  0
VERTEX
  8
0
  10
545.881101
  20
104.547944
  42
-0.026874
  0
VERTEX
  8
0
  10
545.393563
  20
104.335703
  42
-0.022881
  0
VERTEX
  8
0
  10
544.799136
  20
104.144568
  42
-0.033392
  0
VERTEX
  8
0
  10
543.714791
  20
103.926353
  42
-0.021140
  0
VERTEX
  8
0
  10
542.998885
  20
103.862069
  0
SEQEND
  0
POLYLINE
  8
0
  66
1
  70
1
  0
VERTEX
  8
0
  10
547.652889
  20
107.454218
  0
VERTEX
  8
0
  10
547.496958
  20
107.406893
  42
0.038298
  0
VERTEX
  8
0
  10
546.209268
  20
106.895711
  42
0.046532
  0
VERTEX
  8
0
  10
544.930838
  20
106.116375
  42
0.038329
  0
VERTEX
  8
0
  10
544.078510
  20
105.373235
  42
0.033233
  0
VERTEX
  8
0
  10
545.167744
  20
105.708676
  42
0.039143
  0
VERTEX
  8
0
  10
546.142462
  20
106.171647
  42
0.049254
  0
VERTEX
  8
0
  10
547.077597
  20
106.839397
  42
0.050076
  0
VERTEX
  8
0
  10
547.652889
  20
107.454218
  0
SEQEND
  0
POLYLINE
  8
0
  66
1
  70
1
  0
VERTEX
  8
0
  10
560.083335
  20
108.248963
  42
-0.004738
  0
VERTEX
  8
0
  10
559.772427
  20
108.140892
  42
-0.028872
  0
VERTEX
  8
0
  10
558.571367
  20
107.811940
  42
-0.041935
  0
VERTEX
  8
0
  10
557.048218
  20
107.619341
  42
-0.047295
  0
VERTEX
  8
0
  10
555.627929
  20
107.694059
  42
0.033634
  0
VERTEX
  8
0
  10
551.824181
  20
107.998383
  42
0.015677
  0
VERTEX
  8
0
  10
550.865681
  20
107.980403
  42
0.008928
  0
VERTEX
  8
0
  10
550.660123
  20
107.753592
  42
0.055454
  0
VERTEX
  8
0
  10
549.604075
  20
106.234979
  42
0.055258
  0
VERTEX
  8
0
  10
548.904484
  20
104.515632
  42
0.034240
  0
VERTEX
  8
0
  10
548.760664
  20
103.832769
  42
0.030744
  0
VERTEX
  8
0
  10
548.700385
  20
103.058107
  42
0.027175
  0
VERTEX
  8
0
  10
548.729187
  20
102.303494
  42
0.025369
  0
VERTEX
  8
0
  10
548.844631
  20
101.502908
  42
0.048142
  0
VERTEX
  8
0
  10
549.311924
  20
99.937832
  42
0.049563
  0
VERTEX
  8
0
  10
550.052255
  20
98.534357
  42
0.060161
  0
VERTEX
  8
0
  10
551.128455
  20
97.268572
  42
0.071908
  0
VERTEX
  8
0
  10
552.275553
  20
96.479706
  42
0.019626
  0
VERTEX
  8
0
  10
552.585218
  20
96.341563
  0
VERTEX
  8
0
  10
552.633739
  20
96.341015
  42
-0.046211
  0
VERTEX
  8
0
  10
554.697796
  20
96.123768
  0
VERTEX
  8
0
  10
554.791923
  20
96.104766
  42
0.026596
  0
VERTEX
  8
0
  10
555.262720
  20
96.208686
  42
0.025862
  0
VERTEX
  8
0
  10
555.637746
  20
96.333856
  42
0.021935
  0
VERTEX
  8
0
  10
556.063728
  20
96.522922
  42
0.019691
  0
VERTEX
  8
0
  10
556.473985
  20
96.747557
  42
0.018550
  0
VERTEX
  8
0
  10
556.889985
  20
97.018582
  42
0.039362
  0
VERTEX
  8
0
  10
557.709811
  20
97.699647
  42
0.044674
  0
VERTEX
  8
0
  10
558.321931
  20
98.412359
  42
0.028785
  0
VERTEX
  8
0
  10
558.591487
  20
98.839670
  42
0.032920
  0
VERTEX
  8
0
  10
558.779460
  20
99.239571
  42
0.040449
  0
VERTEX
  8
0
  10
558.915390
  20
99.690582
  42
0.045507
  0
VERTEX
  8
0
  10
558.965920
  20
100.106396
  42
0.052597
  0
VERTEX
  8
0
  10
558.932393
  20
100.551857
  42
0.052976
  0
VERTEX
  8
0
  10
558.807231
  20
100.977379
  42
0.052767
  0
VERTEX
  8
0
  10
558.580388
  20
101.395230
  42
0.045682
  0
VERTEX
  8
0
  10
558.229312
  20
101.817069
  42
0.030029
  0
VERTEX
  8
0
  10
557.926212
  20
102.085796
  42
0.034785
  0
VERTEX
  8
0
  10
557.636674
  20
102.282089
  42
0.037652
  0
VERTEX
  8
0
  10
557.337624
  20
102.426903
  42
0.041668
  0
VERTEX
  8
0
  10
557.050031
  20
102.513479
  42
0.084801
  0
VERTEX
  8
0
  10
556.499212
  20
102.535482
  42
0.083453
  0
VERTEX
  8
0
  10
555.963497
  20
102.372232
  42
0.070067
  0
VERTEX
  8
0
  10
555.516997
  20
102.065308
  42
0.060202
  0
VERTEX
  8
0
  10
555.107233
  20
101.587046
  42
0.052957
  0
VERTEX
  8
0
  10
554.811544
  20
101.022313
  42
0.048353
  0
VERTEX
  8
0
  10
554.618766
  20
100.351644
  0
VERTEX
  8
0
  10
554.616956
  20
100.337555
  0
VERTEX
  8
0
  10
554.601396
  20
100.111595
  42
-0.007376
  0
VERTEX
  8
0
  10
554.582324
  20
99.873784
  42
-0.012972
  0
VERTEX
  8
0
  10
554.565985
  20
99.739093
  42
-0.041719
  0
VERTEX
  8
0
  10
554.521540
  20
99.549318
  42
-0.178186
  0
VERTEX
  8
0
  10
554.492497
  20
99.512365
  42
-0.258040
  0
VERTEX
  8
0
  10
554.469494
  20
99.511284
  42
-0.125427
  0
VERTEX
  8
0
  10
554.435212
  20
99.540612
  42
-0.049876
  0
VERTEX
  8
0
  10
554.406352
  20
99.591735
  42
-0.023127
  0
VERTEX
  8
0
  10
554.360894
  20
99.709637
  42
-0.051656
  0
VERTEX
  8
0
  10
554.235970
  20
100.272163
  42
-0.045878
  0
VERTEX
  8
0
  10
554.220657
  20
100.920415
  42
-0.045059
  0
VERTEX
  8
0
  10
554.323813
  20
101.567316
  42
-0.047764
  0
VERTEX
  8
0
  10
554.532072
  20
102.149304
  42
-0.058204
  0
VERTEX
  8
0
  10
554.877660
  20
102.706231
  42
-0.066829
  0
VERTEX
  8
0
  10
555.289626
  20
103.102267
  42
-0.080886
  0
VERTEX
  8
0
  10
555.845241
  20
103.385063
  42
-0.077501
  0
VERTEX
  8
0
  10
556.487800
  20
103.485263
  42
-0.030137
  0
VERTEX
  8
0
  10
556.743079
  20
103.469863
  42
-0.024545
  0
VERTEX
  8
0
  10
557.052491
  20
103.416881
  42
-0.069448
  0
VERTEX
  8
0
  10
557.975210
  20
103.072363
  42
-0.072472
  0
VERTEX
  8
0
  10
558.732192
  20
102.507923
  42
-0.037848
  0
VERTEX
  8
0
  10
559.185178
  20
101.980626
  42
-0.041771
  0
VERTEX
  8
0
  10
559.514825
  20
101.443662
  42
-0.041910
  0
VERTEX
  8
0
  10
559.737536
  20
100.891397
  42
-0.042664
  0
VERTEX
  8
0
  10
559.861930
  20
100.319776
  42
-0.075882
  0
VERTEX
  8
0
  10
559.837751
  20
99.244104
  42
-0.066903
  0
VERTEX
  8
0
  10
559.468790
  20
98.082506
  42
-0.054519
  0
VERTEX
  8
0
  10
558.861838
  20
97.092745
  42
-0.050012
  0
VERTEX
  8
0
  10
557.991249
  20
96.174862
  42
-0.043723
  0
VERTEX
  8
0
  10
557.083383
  20
95.520535
  42
-0.021888
  0
VERTEX
  8
0
  10
559.094715
  20
94.804763
  42
-0.012160
  0
VERTEX
  8
0
  10
560.247143
  20
94.303909
  42
-0.045293
  0
VERTEX
  8
0
  10
560.510243
  20
94.699721
  42
-0.051930
  0
VERTEX
  8
0
  10
560.862788
  20
95.055425
  42
-0.052647
  0
VERTEX
  8
0
  10
561.275787
  20
95.326538
  42
-0.047090
  0
VERTEX
  8
0
  10
561.707926
  20
95.499936
  42
-0.043098
  0
VERTEX
  8
0
  10
562.206227
  20
95.601638
  42
-0.036591
  0
VERTEX
  8
0
  10
562.689358
  20
95.621962
  42
-0.032905
  0
VERTEX
  8
0
  10
563.224425
  20
95.569953
  42
-0.055329
  0
VERTEX
  8
0
  10
564.226436
  20
95.289153
  42
-0.051433
  0
VERTEX
  8
0
  10
565.215554
  20
94.765945
  42
-0.055560
  0
VERTEX
  8
0
  10
566.078670
  20
94.038463
  42
-0.066540
  0
VERTEX
  8
0
  10
566.632084
  20
93.273952
  42
-0.021519
  0
VERTEX
  8
0
  10
566.668931
  20
93.197801
  42
-0.005906
  0
VERTEX
  8
0
  10
566.787724
  20
92.913518
  0
VERTEX
  8
0
  10
566.930501
  20
92.564965
  0
VERTEX
  8
0
  10
566.985782
  20
92.436516
  42
0.022098
  0
VERTEX
  8
0
  10
567.107900
  20
92.192165
  42
0.077468
  0
VERTEX
  8
0
  10
567.156079
  20
92.130378
  42
0.065124
  0
VERTEX
  8
0
  10
567.174277
  20
92.117281
  42
0.120872
  0
VERTEX
  8
0
  10
567.186093
  20
92.114224
  42
0.164675
  0
VERTEX
  8
0
  10
567.197410
  20
92.117897
  42
0.109866
  0
VERTEX
  8
0
  10
567.208888
  20
92.131204
  42
0.091344
  0
VERTEX
  8
0
  10
567.221165
  20
92.169440
  42
0.032134
  0
VERTEX
  8
0
  10
567.228440
  20
92.282533
  42
0.039589
  0
VERTEX
  8
0
  10
567.494763
  20
94.598614
  42
0.037518
  0
VERTEX
  8
0
  10
567.397260
  20
97.056296
  42
0.033046
  0
VERTEX
  8
0
  10
566.980114
  20
99.339357
  42
0.031036
  0
VERTEX
  8
0
  10
566.229098
  20
101.693281
  42
0.025165
  0
VERTEX
  8
0
  10
565.653617
  20
102.977763
  42
0.026925
  0
VERTEX
  8
0
  10
564.993774
  20
104.115990
  42
0.028435
  0
VERTEX
  8
0
  10
564.210535
  20
105.176661
  42
0.029364
  0
VERTEX
  8
0
  10
563.338645
  20
106.109523
  42
0.029830
  0
VERTEX
  8
0
  10
562.357503
  20
106.937298
  42
0.029448
  0
VERTEX
  8
0
  10
561.271495
  20
107.652384
  42
0.028656
  0
VERTEX
  8
0
  10
560.100007
  20
108.241753
  0
VERTEX
  8
0
  10
560.083335
  20
108.248963
  0
SEQEND
  0
POLYLINE
  8
0
  66
1
  70
1
  0
VERTEX
  8
0
  10
562.414509
  20
109.268440
  0
VERTEX
  8
0
  10
562.010345
  20
109.069130
  42
-0.004485
  0
VERTEX
  8
0
  10
561.668239
  20
108.905333
  42
-0.028337
  0
VERTEX
  8
0
  10
562.820786
  20
108.242374
  42
-0.029352
  0
VERTEX
  8
0
  10
563.883405
  20
107.455596
  42
-0.028122
  0
VERTEX
  8
0
  10
564.808671
  20
106.589716
  42
-0.027632
  0
VERTEX
  8
0
  10
565.646436
  20
105.609220
  42
-0.049323
  0
VERTEX
  8
0
  10
566.915842
  20
103.553754
  42
-0.044841
  0
VERTEX
  8
0
  10
567.864117
  20
101.072554
  42
-0.019039
  0
VERTEX
  8
0
  10
568.159654
  20
99.850915
  42
0.032237
  0
VERTEX
  8
0
  10
567.681391
  20
101.935617
  42
0.036676
  0
VERTEX
  8
0
  10
566.887917
  20
104.022850
  42
0.041477
  0
VERTEX
  8
0
  10
565.726512
  20
106.053599
  42
0.044990
  0
VERTEX
  8
0
  10
564.349385
  20
107.714255
  42
0.051876
  0
VERTEX
  8
0
  10
562.566477
  20
109.170482
  0
VERTEX
  8
0
  10
562.414509
  20
109.268440
  0
SEQEND
  0
POLYLINE
  8
0
  66
1
  70
1
  0
VERTEX
  8
0
  10
567.731943
  20
111.473503
  42
0.063203
  0
VERTEX
  8
0
  10
565.691309
  20
110.887063
  42
0.011751
  0
VERTEX
  8
0
  10
565.021363
  20
110.580153
  42
0.002021
  0
VERTEX
  8
0
  10
564.503145
  20
110.325258
  0
VERTEX
  8
0
  10
564.821915
  20
110.100224
  42
-0.003699
  0
VERTEX
  8
0
  10
565.429212
  20
109.668020
  42
-0.007274
  0
VERTEX
  8
0
  10
565.733176
  20
109.441483
  42
-0.014489
  0
VERTEX
  8
0
  10
566.216311
  20
109.047589
  42
-0.018109
  0
VERTEX
  8
0
  10
566.581565
  20
108.707876
  42
-0.043528
  0
VERTEX
  8
0
  10
568.110196
  20
106.887106
  42
-0.044190
  0
VERTEX
  8
0
  10
569.280066
  20
104.858367
  42
-0.038647
  0
VERTEX
  8
0
  10
570.032539
  20
102.843958
  42
-0.035145
  0
VERTEX
  8
0
  10
570.525283
  20
100.531903
  42
-0.027770
  0
VERTEX
  8
0
  10
570.704207
  20
98.411705
  42
-0.023960
  0
VERTEX
  8
0
  10
570.656756
  20
95.946610
  42
-0.017726
  0
VERTEX
  8
0
  10
570.437863
  20
93.820766
  42
-0.014937
  0
VERTEX
  8
0
  10
570.014028
  20
91.320612
  0
VERTEX
  8
0
  10
569.966909
  20
91.117491
  42
0.005760
  0
VERTEX
  8
0
  10
569.926057
  20
90.929846
  42
0.008676
  0
VERTEX
  8
0
  10
569.902542
  20
90.804534
  42
0.021331
  0
VERTEX
  8
0
  10
569.880011
  20
90.625930
  42
0.052967
  0
VERTEX
  8
0
  10
569.881683
  20
90.553280
  42
0.085667
  0
VERTEX
  8
0
  10
569.893347
  20
90.515543
  42
0.202323
  0
VERTEX
  8
0
  10
569.906555
  20
90.504398
  42
0.199313
  0
VERTEX
  8
0
  10
569.925601
  20
90.506152
  42
0.075158
  0
VERTEX
  8
0
  10
569.965088
  20
90.535268
  42
-0.029068
  0
VERTEX
  8
0
  10
571.746933
  20
92.121160
  42
-0.026467
  0
VERTEX
  8
0
  10
573.884557
  20
93.635120
  42
-0.021938
  0
VERTEX
  8
0
  10
574.094633
  20
93.755247
  42
-0.011978
  0
VERTEX
  8
0
  10
574.493269
  20
93.948609
  0
VERTEX
  8
0
  10
574.566895
  20
93.981870
  0
VERTEX
  8
0
  10
574.848742
  20
94.107762
  0
VERTEX
  8
0
  10
575.074133
  20
94.209211
  0
VERTEX
  8
0
  10
575.213347
  20
94.273513
  42
0.013569
  0
VERTEX
  8
0
  10
575.629348
  20
94.482668
  42
0.020470
  0
VERTEX
  8
0
  10
575.895103
  20
94.639788
  42
0.037597
  0
VERTEX
  8
0
  10
576.207696
  20
94.877436
  42
0.054803
  0
VERTEX
  8
0
  10
576.388851
  20
95.077390
  42
0.042659
  0
VERTEX
  8
0
  10
577.045466
  20
96.169446
  42
0.053242
  0
VERTEX
  8
0
  10
577.395621
  20
97.129601
  42
0.037253
  0
VERTEX
  8
0
  10
577.495299
  20
97.714343
  42
0.041552
  0
VERTEX
  8
0
  10
577.501317
  20
98.246291
  42
0.048792
  0
VERTEX
  8
0
  10
577.403720
  20
98.817412
  42
0.049262
  0
VERTEX
  8
0
  10
577.198759
  20
99.353460
  42
0.064294
  0
VERTEX
  8
0
  10
576.846716
  20
99.876912
  42
0.063596
  0
VERTEX
  8
0
  10
576.368688
  20
100.298976
  42
0.061145
  0
VERTEX
  8
0
  10
575.821418
  20
100.579829
  42
0.063565
  0
VERTEX
  8
0
  10
575.244454
  20
100.711910
  42
0.070463
  0
VERTEX
  8
0
  10
574.640181
  20
100.686148
  42
0.075061
  0
VERTEX
  8
0
  10
574.103268
  20
100.500355
  42
0.082286
  0
VERTEX
  8
0
  10
573.613428
  20
100.130147
  42
0.074075
  0
VERTEX
  8
0
  10
573.222342
  20
99.572405
  42
0.084474
  0
VERTEX
  8
0
  10
573.070387
  20
99.072513
  42
0.068413
  0
VERTEX
  8
0
  10
573.076861
  20
98.428980
  42
0.057954
  0
VERTEX
  8
0
  10
573.237723
  20
97.830196
  42
0.062143
  0
VERTEX
  8
0
  10
573.516271
  20
97.323163
  42
0.037657
  0
VERTEX
  8
0
  10
573.704844
  20
97.100080
  42
0.043572
  0
VERTEX
  8
0
  10
573.896934
  20
96.936085
  42
0.053807
  0
VERTEX
  8
0
  10
574.127999
  20
96.806209
  42
0.060702
  0
VERTEX
  8
0
  10
574.353768
  20
96.740481
  42
0.068249
  0
VERTEX
  8
0
  10
574.604335
  20
96.734026
  42
0.064121
  0
VERTEX
  8
0
  10
574.863423
  20
96.797044
  42
0.058585
  0
VERTEX
  8
0
  10
575.120082
  20
96.931873
  42
0.046198
  0
VERTEX
  8
0
  10
575.402549
  20
97.166463
  42
0.121112
  0
VERTEX
  8
0
  10
575.517182
  20
97.355828
  42
0.118765
  0
VERTEX
  8
0
  10
575.532258
  20
97.580932
  42
0.083764
  0
VERTEX
  8
0
  10
575.462206
  20
97.781071
  42
0.072706
  0
VERTEX
  8
0
  10
575.314812
  20
97.975368
  42
0.076734
  0
VERTEX
  8
0
  10
575.118134
  20
98.116818
  42
0.097108
  0
VERTEX
  8
0
  10
574.933337
  20
98.169300
  42
0.064789
  0
VERTEX
  8
0
  10
574.830318
  20
98.164528
  42
0.069119
  0
VERTEX
  8
0
  10
574.738314
  20
98.134680
  42
0.071874
  0
VERTEX
  8
0
  10
574.651368
  20
98.075804
  42
0.061092
  0
VERTEX
  8
0
  10
574.570955
  20
97.982256
  42
-0.026013
  0
VERTEX
  8
0
  10
574.454285
  20
97.825561
  42
-0.060021
  0
VERTEX
  8
0
  10
574.392668
  20
97.767130
  42
-0.063865
  0
VERTEX
  8
0
  10
574.362285
  20
97.750079
  42
-0.142474
  0
VERTEX
  8
0
  10
574.346496
  20
97.748482
  42
-0.204084
  0
VERTEX
  8
0
  10
574.335455
  20
97.755793
  42
-0.126377
  0
VERTEX
  8
0
  10
574.328660
  20
97.775511
  42
-0.098311
  0
VERTEX
  8
0
  10
574.334468
  20
97.825548
  42
-0.045119
  0
VERTEX
  8
0
  10
574.377059
  20
97.925805
  42
-0.038658
  0
VERTEX
  8
0
  10
574.444565
  20
98.031317
  42
-0.034751
  0
VERTEX
  8
0
  10
574.535991
  20
98.136418
  42
-0.052504
  0
VERTEX
  8
0
  10
574.691603
  20
98.262381
  42
-0.064219
  0
VERTEX
  8
0
  10
574.839382
  20
98.333277
  42
-0.066303
  0
VERTEX
  8
0
  10
574.987385
  20
98.361226
  42
-0.066829
  0
VERTEX
  8
0
  10
575.136360
  20
98.349397
  42
-0.106254
  0
VERTEX
  8
0
  10
575.385324
  20
98.236899
  42
-0.083274
  0
VERTEX
  8
0
  10
575.626577
  20
97.987357
  42
-0.156992
  0
VERTEX
  8
0
  10
575.838447
  20
97.279702
  42
-0.193580
  0
VERTEX
  8
0
  10
575.600579
  20
96.721713
  42
-0.048305
  0
VERTEX
  8
0
  10
575.324733
  20
96.494575
  42
-0.056422
  0
VERTEX
  8
0
  10
575.053093
  20
96.353293
  42
-0.056753
  0
VERTEX
  8
0
  10
574.777321
  20
96.281849
  42
-0.056175
  0
VERTEX
  8
0
  10
574.489644
  20
96.273827
  42
-0.088544
  0
VERTEX
  8
0
  10
573.989195
  20
96.407481
  42
-0.068015
  0
VERTEX
  8
0
  10
573.424535
  20
96.772146
  42
-0.049793
  0
VERTEX
  8
0
  10
572.989607
  20
97.227879
  42
-0.046353
  0
VERTEX
  8
0
  10
572.624607
  20
97.797455
  42
-0.051492
  0
VERTEX
  8
0
  10
572.378378
  20
98.424160
  42
-0.067973
  0
VERTEX
  8
0
  10
572.309219
  20
98.930537
  42
-0.024253
  0
VERTEX
  8
0
  10
572.313821
  20
99.025351
  42
-0.009792
  0
VERTEX
  8
0
  10
572.341154
  20
99.258758
  42
-0.010709
  0
VERTEX
  8
0
  10
572.385064
  20
99.535110
  42
-0.011967
  0
VERTEX
  8
0
  10
572.435528
  20
99.780373
  42
-0.020756
  0
VERTEX
  8
0
  10
572.518838
  20
100.083323
  42
-0.033685
  0
VERTEX
  8
0
  10
572.590196
  20
100.263435
  42
-0.031584
  0
VERTEX
  8
0
  10
572.644347
  20
100.360767
  42
-0.048319
  0
VERTEX
  8
0
  10
572.689470
  20
100.418026
  42
-0.083881
  0
VERTEX
  8
0
  10
572.750411
  20
100.463348
  42
-0.118571
  0
VERTEX
  8
0
  10
572.803013
  20
100.476000
  42
-0.043331
  0
VERTEX
  8
0
  10
573.042098
  20
100.755933
  42
-0.038315
  0
VERTEX
  8
0
  10
573.360200
  20
101.024269
  42
-0.039939
  0
VERTEX
  8
0
  10
573.722229
  20
101.243408
  42
-0.046578
  0
VERTEX
  8
0
  10
574.060546
  20
101.375170
  42
-0.040535
  0
VERTEX
  8
0
  10
574.689246
  20
101.500831
  42
-0.045799
  0
VERTEX
  8
0
  10
575.256771
  20
101.514861
  42
-0.046539
  0
VERTEX
  8
0
  10
575.783503
  20
101.429950
  42
-0.047821
  0
VERTEX
  8
0
  10
576.271594
  20
101.252662
  42
-0.084706
  0
VERTEX
  8
0
  10
577.050033
  20
100.705128
  42
-0.073823
  0
VERTEX
  8
0
  10
577.702311
  20
99.831648
  42
-0.060600
  0
VERTEX
  8
0
  10
578.086151
  20
98.850738
  42
-0.056387
  0
VERTEX
  8
0
  10
578.243241
  20
97.730229
  42
-0.058909
  0
VERTEX
  8
0
  10
578.137912
  20
96.576605
  42
-0.063815
  0
VERTEX
  8
0
  10
577.784928
  20
95.566508
  42
-0.012090
  0
VERTEX
  8
0
  10
578.063237
  20
95.641132
  42
-0.008046
  0
VERTEX
  8
0
  10
578.485582
  20
95.736331
  0
VERTEX
  8
0
  10
579.221404
  20
95.885638
  42
0.008272
  0
VERTEX
  8
0
  10
579.649458
  20
95.983184
  42
0.011860
  0
VERTEX
  8
0
  10
579.945049
  20
96.063186
  42
0.019495
  0
VERTEX
  8
0
  10
580.319879
  20
96.190328
  42
0.024415
  0
VERTEX
  8
0
  10
580.609174
  20
96.317728
  42
0.030352
  0
VERTEX
  8
0
  10
580.980954
  20
96.532739
  42
0.022796
  0
VERTEX
  8
0
  10
581.442628
  20
96.869777
  42
0.016496
  0
VERTEX
  8
0
  10
581.837862
  20
97.208924
  42
0.014029
  0
VERTEX
  8
0
  10
582.277357
  20
97.635274
  42
0.011628
  0
VERTEX
  8
0
  10
582.660626
  20
98.047289
  42
0.011324
  0
VERTEX
  8
0
  10
583.034335
  20
98.487953
  42
0.011282
  0
VERTEX
  8
0
  10
583.368395
  20
98.920027
  42
0.013247
  0
VERTEX
  8
0
  10
583.634538
  20
99.301552
  42
0.012728
  0
VERTEX
  8
0
  10
584.450437
  20
100.611202
  42
0.014254
  0
VERTEX
  8
0
  10
585.114890
  20
101.818300
  42
0.019686
  0
VERTEX
  8
0
  10
585.815351
  20
103.324428
  42
0.022966
  0
VERTEX
  8
0
  10
586.303683
  20
104.662110
  42
0.031398
  0
VERTEX
  8
0
  10
586.695286
  20
106.253185
  42
0.014387
  0
VERTEX
  8
0
  10
586.775052
  20
106.781740
  42
0.007760
  0
VERTEX
  8
0
  10
585.084444
  20
107.355539
  42
0.017758
  0
VERTEX
  8
0
  10
582.935070
  20
107.964702
  42
-0.018864
  0
VERTEX
  8
0
  10
579.407982
  20
108.972755
  42
-0.022200
  0
VERTEX
  8
0
  10
576.456312
  20
110.085452
  42
0.036363
  0
VERTEX
  8
0
  10
573.608875
  20
111.067767
  42
0.013272
  0
VERTEX
  8
0
  10
572.741859
  20
111.273484
  42
0.006645
  0
VERTEX
  8
0
  10
572.701119
  20
111.083284
  42
0.061751
  0
VERTEX
  8
0
  10
572.569546
  20
109.317420
  42
0.065688
  0
VERTEX
  8
0
  10
572.903237
  20
107.485327
  42
0.063932
  0
VERTEX
  8
0
  10
573.716375
  20
105.753799
  42
0.058693
  0
VERTEX
  8
0
  10
574.256318
  20
105.091507
  42
0.051644
  0
VERTEX
  8
0
  10
575.019097
  20
104.491688
  42
0.048255
  0
VERTEX
  8
0
  10
575.877656
  20
104.059087
  42
0.049870
  0
VERTEX
  8
0
  10
576.774191
  20
103.810340
  42
0.058813
  0
VERTEX
  8
0
  10
577.745238
  20
103.758341
  42
0.067374
  0
VERTEX
  8
0
  10
578.578327
  20
103.925946
  42
0.039370
  0
VERTEX
  8
0
  10
578.997724
  20
104.109117
  42
0.040419
  0
VERTEX
  8
0
  10
579.372744
  20
104.350166
  42
0.042381
  0
VERTEX
  8
0
  10
579.721554
  20
104.666605
  42
0.040348
  0
VERTEX
  8
0
  10
580.028172
  20
105.054696
  42
0.079406
  0
VERTEX
  8
0
  10
580.225252
  20
105.484959
  42
0.060180
  0
VERTEX
  8
0
  10
580.318828
  20
106.100662
  42
0.051781
  0
VERTEX
  8
0
  10
580.274134
  20
106.713035
  42
0.055479
  0
VERTEX
  8
0
  10
580.111755
  20
107.262853
  42
0.076482
  0
VERTEX
  8
0
  10
579.797376
  20
107.774837
  42
0.101625
  0
VERTEX
  8
0
  10
579.439953
  20
108.055049
  42
0.063715
  0
VERTEX
  8
0
  10
579.200244
  20
108.138519
  42
0.061931
  0
VERTEX
  8
0
  10
578.940090
  20
108.160455
  42
0.058576
  0
VERTEX
  8
0
  10
578.660893
  20
108.116372
  42
0.047543
  0
VERTEX
  8
0
  10
578.336420
  20
107.991031
  42
0.012727
  0
VERTEX
  8
0
  10
577.856299
  20
107.735494
  42
0.015244
  0
VERTEX
  8
0
  10
577.467976
  20
107.500054
  42
0.019370
  0
VERTEX
  8
0
  10
577.181585
  20
107.298068
  42
0.033048
  0
VERTEX
  8
0
  10
577.026920
  20
107.162671
  42
0.032452
  0
VERTEX
  8
0
  10
576.948447
  20
107.073338
  42
0.051941
  0
VERTEX
  8
0
  10
576.909419
  20
107.009983
  42
0.094862
  0
VERTEX
  8
0
  10
576.889857
  20
106.936198
  42
0.134210
  0
VERTEX
  8
0
  10
576.900502
  20
106.882812
  42
-0.054023
  0
VERTEX
  8
0
  10
576.798592
  20
106.893856
  42
-0.082970
  0
VERTEX
  8
0
  10
576.736401
  20
106.918800
  42
-0.101012
  0
VERTEX
  8
0
  10
576.692274
  20
106.959773
  42
-0.098700
  0
VERTEX
  8
0
  10
576.666912
  20
107.015907
  42
-0.113489
  0
VERTEX
  8
0
  10
576.666740
  20
107.125518
  42
-0.057295
  0
VERTEX
  8
0
  10
576.738238
  20
107.328344
  42
-0.027910
  0
VERTEX
  8
0
  10
576.826977
  20
107.487295
  42
-0.020607
  0
VERTEX
  8
0
  10
576.967401
  20
107.689850
  42
-0.015134
  0
VERTEX
  8
0
  10
577.097329
  20
107.851289
  42
-0.019368
  0
VERTEX
  8
0
  10
577.207326
  20
107.970154
  42
-0.062858
  0
VERTEX
  8
0
  10
577.771717
  20
108.408044
  42
-0.071955
  0
VERTEX
  8
0
  10
578.349439
  20
108.645949
  42
-0.071035
  0
VERTEX
  8
0
  10
578.929198
  20
108.707131
  42
-0.070439
  0
VERTEX
  8
0
  10
579.507842
  20
108.603428
  42
-0.065229
  0
VERTEX
  8
0
  10
580.028096
  20
108.353236
  42
-0.061096
  0
VERTEX
  8
0
  10
580.499023
  20
107.956122
  42
-0.059017
  0
VERTEX
  8
0
  10
580.873951
  20
107.442211
  42
-0.055290
  0
VERTEX
  8
0
  10
581.139466
  20
106.817562
  42
-0.044505
  0
VERTEX
  8
0
  10
581.276328
  20
106.150982
  42
-0.052047
  0
VERTEX
  8
0
  10
581.281892
  20
105.568708
  42
-0.053332
  0
VERTEX
  8
0
  10
581.173484
  20
105.036675
  42
-0.054265
  0
VERTEX
  8
0
  10
580.957821
  20
104.548507
  42
-0.048277
  0
VERTEX
  8
0
  10
580.665730
  20
104.140141
  42
-0.043813
  0
VERTEX
  8
0
  10
580.267132
  20
103.756832
  42
-0.036639
  0
VERTEX
  8
0
  10
579.836178
  20
103.458808
  42
-0.032555
  0
VERTEX
  8
0
  10
579.309699
  20
103.193558
  42
-0.053315
  0
VERTEX
  8
0
  10
578.227315
  20
102.864565
  42
-0.048683
  0
VERTEX
  8
0
  10
576.994118
  20
102.751709
  42
-0.024554
  0
VERTEX
  8
0
  10
576.393046
  20
102.784878
  42
-0.026200
  0
VERTEX
  8
0
  10
575.835722
  20
102.872882
  42
-0.029771
  0
VERTEX
  8
0
  10
575.278416
  20
103.026236
  42
-0.033912
  0
VERTEX
  8
0
  10
574.810094
  20
103.221952
  42
-0.036620
  0
VERTEX
  8
0
  10
573.909565
  20
103.757913
  42
-0.037408
  0
VERTEX
  8
0
  10
573.114951
  20
104.406880
  42
-0.035558
  0
VERTEX
  8
0
  10
572.454556
  20
105.130011
  42
-0.034812
  0
VERTEX
  8
0
  10
571.890276
  20
105.955873
  42
-0.062776
  0
VERTEX
  8
0
  10
571.142790
  20
107.702287
  42
-0.010144
  0
VERTEX
  8
0
  10
571.052110
  20
108.044892
  42
-0.117198
  0
VERTEX
  8
0
  10
569.927339
  20
107.777580
  42
-0.414214
  0
VERTEX
  8
0
  10
567.427340
  20
110.277581
  42
-0.125350
  0
VERTEX
  8
0
  10
567.731943
  20
111.473503
  0
SEQEND
  0
POLYLINE
  8
0
  66
1
  70
1
  0
VERTEX
  8
0
  10
590.247750
  20
105.444425
  42
0.001051
  0
VERTEX
  8
0
  10
588.743185
  20
106.040527
  0
VERTEX
  8
0
  10
588.689944
  20
106.061470
  0
VERTEX
  8
0
  10
588.688485
  20
106.042677
  0
VERTEX
  8
0
  10
588.670983
  20
105.830170
  42
-0.006034
  0
VERTEX
  8
0
  10
588.609927
  20
105.203427
  42
-0.008180
  0
VERTEX
  8
0
  10
588.551766
  20
104.742568
  42
-0.014985
  0
VERTEX
  8
0
  10
589.351370
  20
105.112852
  42
-0.018382
  0
VERTEX
  8
0
  10
590.021958
  20
105.370602
  42
-0.007099
  0
VERTEX
  8
0
  10
590.247750
  20
105.444425
  0
SEQEND
  0
POLYLINE
  8
0
  66
1
  70
1
  0
VERTEX
  8
0
  10
599.959811
  20
101.371682
  0
VERTEX
  8
0
  10
597.272083
  20
102.573844
  42
-0.091775
  0
VERTEX
  8
0
  10
597.408216
  20
101.026481
  42
-0.111745
  0
VERTEX
  8
0
  10
596.817251
  20
99.230279
  42
-0.032587
  0
VERTEX
  8
0
  10
596.531003
  20
98.816834
  42
-0.036062
  0
VERTEX
  8
0
  10
596.223575
  20
98.482042
  42
-0.036830
  0
VERTEX
  8
0
  10
595.888304
  20
98.209665
  42
-0.038222
  0
VERTEX
  8
0
  10
595.529602
  20
97.998422
  42
-0.070494
  0
VERTEX
  8
0
  10
594.801879
  20
97.761242
  42
-0.064081
  0
VERTEX
  8
0
  10
593.961506
  20
97.722287
  42
-0.051348
  0
VERTEX
  8
0
  10
593.186363
  20
97.866764
  42
-0.045219
  0
VERTEX
  8
0
  10
592.354453
  20
98.196395
  42
-0.040009
  0
VERTEX
  8
0
  10
591.616385
  20
98.646484
  42
-0.039474
  0
VERTEX
  8
0
  10
590.949935
  20
99.215262
  0
VERTEX
  8
0
  10
590.699385
  20
99.716255
  42
-0.070411
  0
VERTEX
  8
0
  10
590.533240
  20
100.212527
  42
-0.059446
  0
VERTEX
  8
0
  10
590.493826
  20
100.830269
  42
-0.055070
  0
VERTEX
  8
0
  10
590.593255
  20
101.427160
  42
-0.061642
  0
VERTEX
  8
0
  10
590.803047
  20
101.925838
  42
-0.038151
  0
VERTEX
  8
0
  10
590.959222
  20
102.155292
  42
-0.043754
  0
VERTEX
  8
0
  10
591.126264
  20
102.330575
  42
-0.052877
  0
VERTEX
  8
0
  10
591.333993
  20
102.477736
  42
-0.057855
  0
VERTEX
  8
0
  10
591.548855
  20
102.567344
  42
-0.062966
  0
VERTEX
  8
0
  10
591.794075
  20
102.605353
  42
-0.058266
  0
VERTEX
  8
0
  10
592.061043
  20
102.581693
  42
-0.053199
  0
VERTEX
  8
0
  10
592.336888
  20
102.493001
  42
-0.042680
  0
VERTEX
  8
0
  10
592.653056
  20
102.319169
  42
-0.161581
  0
VERTEX
  8
0
  10
592.989611
  20
101.887666
  42
-0.150472
  0
VERTEX
  8
0
  10
593.014965
  20
101.302568
  42
-0.072585
  0
VERTEX
  8
0
  10
592.903170
  20
101.038378
  42
-0.078316
  0
VERTEX
  8
0
  10
592.731427
  20
100.835115
  42
-0.091553
  0
VERTEX
  8
0
  10
592.484907
  20
100.690560
  42
-0.087157
  0
VERTEX
  8
0
  10
592.189474
  20
100.638668
  42
0.023824
  0
VERTEX
  8
0
  10
592.348092
  20
100.774641
  42
0.023317
  0
VERTEX
  8
0
  10
592.496358
  20
100.928205
  42
0.033640
  0
VERTEX
  8
0
  10
592.651876
  20
101.131103
  42
0.044267
  0
VERTEX
  8
0
  10
592.744790
  20
101.301897
  42
0.075105
  0
VERTEX
  8
0
  10
592.802503
  20
101.518995
  42
0.100515
  0
VERTEX
  8
0
  10
592.787273
  20
101.686901
  42
0.119278
  0
VERTEX
  8
0
  10
592.690468
  20
101.852786
  42
0.085574
  0
VERTEX
  8
0
  10
592.476311
  20
102.010373
  42
0.046806
  0
VERTEX
  8
0
  10
592.255838
  20
102.095912
  42
0.056597
  0
VERTEX
  8
0
  10
592.062679
  20
102.127776
  42
0.059091
  0
VERTEX
  8
0
  10
591.881600
  20
102.115510
  42
0.060409
  0
VERTEX
  8
0
  10
591.712303
  20
102.061961
  42
0.097259
  0
VERTEX
  8
0
  10
591.453371
  20
101.876744
  42
0.074405
  0
VERTEX
  8
0
  10
591.216777
  20
101.536365
  42
0.054041
  0
VERTEX
  8
0
  10
591.081644
  20
101.167210
  42
0.049773
  0
VERTEX
  8
0
  10
591.020644
  20
100.744961
  42
0.055557
  0
VERTEX
  8
0
  10
591.049400
  20
100.316359
  42
0.071535
  0
VERTEX
  8
0
  10
591.154817
  20
99.999125
  42
0.087275
  0
VERTEX
  8
0
  10
591.630929
  20
99.356653
  42
0.084207
  0
VERTEX
  8
0
  10
592.318832
  20
98.895154
  42
0.069292
  0
VERTEX
  8
0
  10
593.066818
  20
98.676391
  42
0.063740
  0
VERTEX
  8
0
  10
593.913246
  20
98.660423
  42
0.062870
  0
VERTEX
  8
0
  10
594.735242
  20
98.856375
  42
0.067234
  0
VERTEX
  8
0
  10
595.431393
  20
99.231151
  42
0.081063
  0
VERTEX
  8
0
  10
596.021318
  20
99.826408
  42
0.085414
  0
VERTEX
  8
0
  10
596.366604
  20
100.543561
  42
0.037008
  0
VERTEX
  8
0
  10
596.484609
  20
101.113056
  42
0.041152
  0
VERTEX
  8
0
  10
596.509754
  20
101.635646
  42
0.041770
  0
VERTEX
  8
0
  10
596.451682
  20
102.126883
  42
0.043077
  0
VERTEX
  8
0
  10
596.315772
  20
102.586922
  42
0.053013
  0
VERTEX
  8
0
  10
596.039027
  20
103.119423
  42
0.004059
  0
VERTEX
  8
0
  10
594.547916
  20
103.750682
  42
0.007532
  0
VERTEX
  8
0
  10
593.030547
  20
104.351973
  42
-0.002862
  0
VERTEX
  8
0
  10
592.113023
  20
104.705682
  0
VERTEX
  8
0
  10
592.001784
  20
104.749325
  42
0.039849
  0
VERTEX
  8
0
  10
591.294598
  20
104.606969
  42
0.017934
  0
VERTEX
  8
0
  10
590.872155
  20
104.469707
  42
0.014585
  0
VERTEX
  8
0
  10
590.364833
  20
104.267549
  42
0.015302
  0
VERTEX
  8
0
  10
589.823236
  20
104.013261
  42
0.016186
  0
VERTEX
  8
0
  10
589.327343
  20
103.741106
  42
0.021256
  0
VERTEX
  8
0
  10
588.793297
  20
103.393648
  42
0.026448
  0
VERTEX
  8
0
  10
588.392540
  20
103.074711
  42
0.039924
  0
VERTEX
  8
0
  10
587.994869
  20
102.661230
  42
0.055672
  0
VERTEX
  8
0
  10
587.770838
  20
102.315433
  42
-0.010336
  0
VERTEX
  8
0
  10
586.957316
  20
100.769143
  42
-0.013480
  0
VERTEX
  8
0
  10
586.277749
  20
99.614472
  42
-0.018460
  0
VERTEX
  8
0
  10
585.381359
  20
98.292402
  42
-0.019785
  0
VERTEX
  8
0
  10
584.453163
  20
97.126336
  42
0.013474
  0
VERTEX
  8
0
  10
584.257945
  20
96.920303
  42
0.035263
  0
VERTEX
  8
0
  10
584.191292
  20
96.834600
  42
0.039604
  0
VERTEX
  8
0
  10
584.161028
  20
96.780665
  42
0.068075
  0
VERTEX
  8
0
  10
584.150492
  20
96.746147
  42
0.103343
  0
VERTEX
  8
0
  10
584.152051
  20
96.712034
  42
0.110655
  0
VERTEX
  8
0
  10
584.166575
  20
96.683586
  42
0.116930
  0
VERTEX
  8
0
  10
584.210466
  20
96.650527
  42
0.040197
  0
VERTEX
  8
0
  10
584.359759
  20
96.598991
  0
VERTEX
  8
0
  10
584.751596
  20
96.506513
  42
-0.023576
  0
VERTEX
  8
0
  10
586.384615
  20
96.429470
  42
-0.022507
  0
VERTEX
  8
0
  10
588.080389
  20
96.191720
  42
-0.019719
  0
VERTEX
  8
0
  10
589.638762
  20
95.837125
  42
-0.018276
  0
VERTEX
  8
0
  10
591.286197
  20
95.328034
  42
-0.015432
  0
VERTEX
  8
0
  10
592.768045
  20
94.758183
  42
-0.014029
  0
VERTEX
  8
0
  10
594.358255
  20
94.036490
  42
-0.011413
  0
VERTEX
  8
0
  10
595.756668
  20
93.313924
  42
-0.010195
  0
VERTEX
  8
0
  10
597.285798
  20
92.438126
  42
-0.011355
  0
VERTEX
  8
0
  10
597.253816
  20
93.678908
  42
-0.014378
  0
VERTEX
  8
0
  10
597.279002
  20
94.658938
  42
-0.019578
  0
VERTEX
  8
0
  10
597.387334
  20
95.812996
  42
-0.021379
  0
VERTEX
  8
0
  10
597.572674
  20
96.858205
  42
-0.073108
  0
VERTEX
  8
0
  10
598.582274
  20
99.506580
  42
-0.063078
  0
VERTEX
  8
0
  10
599.959811
  20
101.371682
  0
SEQEND
  0
POLYLINE
  8
0
  66
1
  70
1
  0
VERTEX
  8
0
  10
606.674469
  20
93.507560
  0
VERTEX
  8
0
  10
606.673700
  20
93.509511
  42
0.027683
  0
VERTEX
  8
0
  10
605.750109
  20
95.519486
  42
-0.037553
  0
VERTEX
  8
0
  10
605.668169
  20
95.319338
  42
0.006783
  0
VERTEX
  8
0
  10
605.543861
  20
95.899817
  42
0.008921
  0
VERTEX
  8
0
  10
605.185996
  20
96.516856
  42
0.006250
  0
VERTEX
  8
0
  10
604.971858
  20
96.861540
  42
0.041357
  0
VERTEX
  8
0
  10
604.856878
  20
96.903799
  42
0.113319
  0
VERTEX
  8
0
  10
604.474925
  20
96.920566
  42
0.086233
  0
VERTEX
  8
0
  10
604.006153
  20
96.747404
  42
0.071071
  0
VERTEX
  8
0
  10
603.611701
  20
96.436312
  42
0.072417
  0
VERTEX
  8
0
  10
603.326575
  20
96.033972
  42
0.094088
  0
VERTEX
  8
0
  10
603.178899
  20
95.528631
  42
0.104994
  0
VERTEX
  8
0
  10
603.231991
  20
95.058815
  42
0.073923
  0
VERTEX
  8
0
  10
603.562250
  20
94.407572
  42
0.078471
  0
VERTEX
  8
0
  10
604.043174
  20
93.915089
  42
0.066847
  0
VERTEX
  8
0
  10
604.596513
  20
93.607636
  42
0.059195
  0
VERTEX
  8
0
  10
605.287499
  20
93.427211
  42
0.049028
  0
VERTEX
  8
0
  10
605.963685
  20
93.400705
  42
0.045241
  0
VERTEX
  8
0
  10
606.674469
  20
93.507560
  0
SEQEND
  0
POLYLINE
  8
0
  66
1
  70
1
  0
VERTEX
  8
0
  10
607.957329
  20
89.420496
  0
VERTEX
  8
0
  10
607.933816
  20
89.525183
  42
0.017506
  0
VERTEX
  8
0
  10
607.363854
  20
91.566655
  42
0.033115
  0
VERTEX
  8
0
  10
607.294241
  20
91.197755
  42
0.058708
  0
VERTEX
  8
0
  10
607.292423
  20
90.596464
  42
0.068650
  0
VERTEX
  8
0
  10
607.420470
  20
90.097784
  42
0.088519
  0
VERTEX
  8
0
  10
607.715610
  20
89.632222
  42
0.054986
  0
VERTEX
  8
0
  10
607.957329
  20
89.420496
  0
SEQEND
  0
POLYLINE
  8
0
  66
1
  70
1
  0
VERTEX
  8
0
  10
607.435070
  20
78.809786
  0
VERTEX
  8
0
  10
607.294795
  20
79.931981
  42
-0.032525
  0
VERTEX
  8
0
  10
607.359125
  20
80.919871
  42
-0.036609
  0
VERTEX
  8
0
  10
607.536701
  20
81.781546
  42
-0.043691
  0
VERTEX
  8
0
  10
607.861130
  20
82.633764
  42
-0.049734
  0
VERTEX
  8
0
  10
608.280397
  20
83.316900
  42
-0.058048
  0
VERTEX
  8
0
  10
608.864260
  20
83.924096
  42
-0.042655
  0
VERTEX
  8
0
  10
609.345103
  20
84.255720
  42
-0.024381
  0
VERTEX
  8
0
  10
609.191021
  20
84.455725
  42
0.068034
  0
VERTEX
  8
0
  10
608.412751
  20
83.833765
  42
0.064244
  0
VERTEX
  8
0
  10
607.701445
  20
82.863090
  42
0.056413
  0
VERTEX
  8
0
  10
607.254759
  20
81.780657
  42
0.055623
  0
VERTEX
  8
0
  10
607.056729
  20
80.609763
  42
0.061741
  0
VERTEX
  8
0
  10
607.138637
  20
79.387518
  42
0.050897
  0
VERTEX
  8
0
  10
607.375748
  20
78.598554
  42
-0.021951
  0
VERTEX
  8
0
  10
607.435070
  20
78.809786
  0
SEQEND
  0
POLYLINE
  8
0
  66
1
  70
1
  0
VERTEX
  8
0
  10
611.778115
  20
79.570455
  0
VERTEX
  8
0
  10
611.779805
  20
79.570156
  42
-0.000698
  0
VERTEX
  8
0
  10
611.753005
  20
79.601986
  42
-0.004031
  0
VERTEX
  8
0
  10
611.778115
  20
79.570455
  0
SEQEND
  0
POLYLINE
  8
0
  66
1
  70
1
  0
VERTEX
  8
0
  10
610.245826
  20
80.490598
  42
-0.009331
  0
VERTEX
  8
0
  10
610.236524
  20
80.543144
  42
-0.056418
  0
VERTEX
  8
0
  10
610.222431
  20
80.864458
  42
-0.052402
  0
VERTEX
  8
0
  10
610.282214
  20
81.205379
  42
-0.043762
  0
VERTEX
  8
0
  10
610.389679
  20
81.485967
  42
-0.006164
  0
VERTEX
  8
0
  10
610.140271
  20
81.892057
  42
-0.042516
  0
VERTEX
  8
0
  10
609.919284
  20
82.345519
  42
-0.027122
  0
VERTEX
  8
0
  10
609.748104
  20
82.872193
  42
-0.009310
  0
VERTEX
  8
0
  10
609.706208
  20
83.042363
  42
-0.001844
  0
VERTEX
  8
0
  10
609.572808
  20
83.641459
  0
VERTEX
  8
0
  10
609.571994
  20
83.645178
  42
0.041681
  0
VERTEX
  8
0
  10
609.039060
  20
83.127712
  42
0.054205
  0
VERTEX
  8
0
  10
608.519749
  20
82.382321
  42
0.054230
  0
VERTEX
  8
0
  10
608.172972
  20
81.543108
  42
0.049981
  0
VERTEX
  8
0
  10
608.011534
  20
80.673796
  42
0.043245
  0
VERTEX
  8
0
  10
608.013979
  20
79.767960
  42
-0.203100
  0
VERTEX
  8
0
  10
609.809980
  20
80.528884
  42
-0.043837
  0
VERTEX
  8
0
  10
610.245826
  20
80.490598
  0
SEQEND
  0
POLYLINE
  8
0
  66
1
  70
1
  0
VERTEX
  8
0
  10
612.264389
  20
77.553625
  42
-0.024641
  0
VERTEX
  8
0
  10
612.805614
  20
77.455331
  42
-0.027762
  0
VERTEX
  8
0
  10
613.862770
  20
77.146257
  42
-0.006623
  0
VERTEX
  8
0
  10
614.208324
  20
77.018868
  42
-0.004380
  0
VERTEX
  8
0
  10
614.694962
  20
76.827204
  0
VERTEX
  8
0
  10
615.450212
  20
76.521904
  42
0.018522
  0
VERTEX
  8
0
  10
616.249453
  20
76.241026
  0
VERTEX
  8
0
  10
616.311713
  20
76.222431
  42
-0.043350
  0
VERTEX
  8
0
  10
614.830067
  20
76.930818
  42
-0.039431
  0
VERTEX
  8
0
  10
613.492853
  20
77.868305
  42
-0.029692
  0
VERTEX
  8
0
  10
612.358781
  20
78.924032
  42
-0.021893
  0
VERTEX
  8
0
  10
612.133082
  20
78.952568
  42
-0.094894
  0
VERTEX
  8
0
  10
612.309979
  20
78.028883
  42
-0.047853
  0
VERTEX
  8
0
  10
612.264389
  20
77.553625
  0
SEQEND
  0
POLYLINE
  8
0
  66
1
  70
1
  0
VERTEX
  8
0
  10
602.413044
  20
74.486198
  0
VERTEX
  8
0
  10
602.742695
  20
74.529395
  42
0.035325
  0
VERTEX
  8
0
  10
604.345741
  20
74.854383
  42
0.030647
  0
VERTEX
  8
0
  10
606.181691
  20
75.487173
  42
0.009044
  0
VERTEX
  8
0
  10
606.887942
  20
75.795205
  42
0.003457
  0
VERTEX
  8
0
  10
607.395658
  20
76.031922
  0
VERTEX
  8
0
  10
607.333494
  20
76.110749
  42
-0.034803
  0
VERTEX
  8
0
  10
606.913087
  20
76.731485
  42
-0.031958
  0
VERTEX
  8
0
  10
606.549355
  20
77.462257
  42
-0.028681
  0
VERTEX
  8
0
  10
606.285137
  20
78.207782
  42
-0.027165
  0
VERTEX
  8
0
  10
606.095638
  20
79.021023
  42
-0.052205
  0
VERTEX
  8
0
  10
605.977809
  20
80.694367
  42
-0.054587
  0
VERTEX
  8
0
  10
606.206626
  20
82.282640
  42
-0.031020
  0
VERTEX
  8
0
  10
606.460358
  20
83.063526
  42
-0.033682
  0
VERTEX
  8
0
  10
606.784905
  20
83.746646
  42
-0.038542
  0
VERTEX
  8
0
  10
607.223117
  20
84.404096
  42
-0.041641
  0
VERTEX
  8
0
  10
607.720760
  20
84.940221
  42
-0.046463
  0
VERTEX
  8
0
  10
608.336671
  20
85.405061
  42
-0.023436
  0
VERTEX
  8
0
  10
608.670463
  20
85.590366
  0
VERTEX
  8
0
  10
608.665138
  20
85.607377
  42
-0.019805
  0
VERTEX
  8
0
  10
608.496134
  20
86.237150
  42
-0.012680
  0
VERTEX
  8
0
  10
608.318063
  20
87.128340
  42
-0.004901
  0
VERTEX
  8
0
  10
608.255165
  20
87.513054
  42
-0.001673
  0
VERTEX
  8
0
  10
608.097074
  20
88.566864
  0
VERTEX
  8
0
  10
608.074828
  20
88.715919
  42
-0.026289
  0
VERTEX
  8
0
  10
607.846688
  20
88.823300
  42
-0.078981
  0
VERTEX
  8
0
  10
607.393431
  20
89.167951
  42
-0.068412
  0
VERTEX
  8
0
  10
607.094017
  20
89.581694
  42
-0.058612
  0
VERTEX
  8
0
  10
606.877207
  20
90.136177
  42
-0.041368
  0
VERTEX
  8
0
  10
606.786582
  20
90.654929
  42
-0.033655
  0
VERTEX
  8
0
  10
606.771717
  20
91.301684
  42
-0.024108
  0
VERTEX
  8
0
  10
606.823037
  20
91.854842
  42
-0.021536
  0
VERTEX
  8
0
  10
606.936675
  20
92.466184
  0
VERTEX
  8
0
  10
605.963323
  20
92.466184
  42
-0.044075
  0
VERTEX
  8
0
  10
605.192872
  20
92.665575
  42
-0.039094
  0
VERTEX
  8
0
  10
604.373765
  20
93.030859
  42
-0.043624
  0
VERTEX
  8
0
  10
603.589063
  20
93.550398
  42
-0.052389
  0
VERTEX
  8
0
  10
603.029667
  20
94.100143
  42
-0.034520
  0
VERTEX
  8
0
  10
602.784452
  20
94.443331
  42
-0.039613
  0
VERTEX
  8
0
  10
602.617205
  20
94.770789
  42
-0.047807
  0
VERTEX
  8
0
  10
602.502747
  20
95.144132
  42
-0.051684
  0
VERTEX
  8
0
  10
602.467155
  20
95.503718
  42
-0.055843
  0
VERTEX
  8
0
  10
602.511832
  20
95.886526
  42
-0.052007
  0
VERTEX
  8
0
  10
602.646531
  20
96.277640
  42
-0.048056
  0
VERTEX
  8
0
  10
602.871571
  20
96.660285
  42
-0.039452
  0
VERTEX
  8
0
  10
603.222351
  20
97.071264
  42
-0.046038
  0
VERTEX
  8
0
  10
603.457471
  20
97.266660
  42
-0.050204
  0
VERTEX
  8
0
  10
603.703457
  20
97.401379
  42
-0.048654
  0
VERTEX
  8
0
  10
603.953349
  20
97.479638
  42
-0.048479
  0
VERTEX
  8
0
  10
604.214579
  20
97.508328
  42
-0.060887
  0
VERTEX
  8
0
  10
604.563529
  20
97.470099
  42
0.012428
  0
VERTEX
  8
0
  10
604.082755
  20
98.117974
  42
0.034199
  0
VERTEX
  8
0
  10
602.975524
  20
99.351143
  42
0.042352
  0
VERTEX
  8
0
  10
601.591713
  20
100.484282
  42
0.009511
  0
VERTEX
  8
0
  10
601.311752
  20
100.668689
  42
0.037441
  0
VERTEX
  8
0
  10
600.683151
  20
99.910933
  42
0.039414
  0
VERTEX
  8
0
  10
600.080708
  20
98.903328
  42
0.033365
  0
VERTEX
  8
0
  10
599.662884
  20
97.896545
  42
0.030286
  0
VERTEX
  8
0
  10
599.347124
  20
96.738153
  42
0.025533
  0
VERTEX
  8
0
  10
599.175606
  20
95.636938
  42
0.023647
  0
VERTEX
  8
0
  10
599.108052
  20
94.435590
  42
0.020893
  0
VERTEX
  8
0
  10
599.145020
  20
93.312099
  42
0.020485
  0
VERTEX
  8
0
  10
599.277297
  20
92.173304
  0
VERTEX
  8
0
  10
599.289557
  20
92.086954
  0
VERTEX
  8
0
  10
599.338884
  20
91.685108
  42
0.005370
  0
VERTEX
  8
0
  10
599.386777
  20
91.317425
  42
0.008424
  0
VERTEX
  8
0
  10
599.423760
  20
91.083982
  42
0.016541
  0
VERTEX
  8
0
  10
599.495603
  20
90.741957
  42
0.023691
  0
VERTEX
  8
0
  10
599.564815
  20
90.507886
  42
0.043373
  0
VERTEX
  8
0
  10
599.684474
  20
90.241054
  42
0.069398
  0
VERTEX
  8
0
  10
599.794941
  20
90.094779
  42
-0.027356
  0
VERTEX
  8
0
  10
600.548153
  20
89.254310
  42
-0.025196
  0
VERTEX
  8
0
  10
601.265626
  20
88.261173
  42
-0.022282
  0
VERTEX
  8
0
  10
601.857304
  20
87.252923
  42
-0.020995
  0
VERTEX
  8
0
  10
602.390381
  20
86.132660
  42
-0.038013
  0
VERTEX
  8
0
  10
603.157557
  20
83.864584
  42
-0.038549
  0
VERTEX
  8
0
  10
603.564271
  20
81.538783
  42
-0.022144
  0
VERTEX
  8
0
  10
603.611412
  20
80.629174
  42
-0.021324
  0
VERTEX
  8
0
  10
603.578179
  20
79.683914
  42
-0.017118
  0
VERTEX
  8
0
  10
603.485911
  20
78.863657
  42
-0.014754
  0
VERTEX
  8
0
  10
603.318476
  20
77.920823
  42
-0.009358
  0
VERTEX
  8
0
  10
603.155439
  20
77.205112
  42
-0.006514
  0
VERTEX
  8
0
  10
602.888704
  20
76.184873
  0
VERTEX
  8
0
  10
602.815854
  20
75.922794
  0
VERTEX
  8
0
  10
602.642398
  20
75.306877
  0
VERTEX
  8
0
  10
602.481644
  20
74.734695
  0
VERTEX
  8
0
  10
602.413044
  20
74.486198
  0
SEQEND
  0
POLYLINE
  8
0
  66
1
  70
1
  0
VERTEX
  8
0
  10
598.879522
  20
73.992266
  0
VERTEX
  8
0
  10
598.963404
  20
74.005397
  42
-0.001468
  0
VERTEX
  8
0
  10
599.862114
  20
74.139889
  42
0.030940
  0
VERTEX
  8
0
  10
600.472765
  20
75.225807
  42
0.039657
  0
VERTEX
  8
0
  10
601.112936
  20
76.870787
  42
0.036830
  0
VERTEX
  8
0
  10
601.524351
  20
78.725962
  42
0.034172
  0
VERTEX
  8
0
  10
601.664545
  20
80.560010
  42
0.034433
  0
VERTEX
  8
0
  10
601.553507
  20
82.382112
  42
0.017043
  0
VERTEX
  8
0
  10
601.522274
  20
82.571100
  42
0.011799
  0
VERTEX
  8
0
  10
601.461506
  20
82.840989
  0
VERTEX
  8
0
  10
601.454720
  20
82.867257
  0
VERTEX
  8
0
  10
601.334123
  20
83.318671
  42
-0.007046
  0
VERTEX
  8
0
  10
601.260713
  20
83.609299
  42
-0.011184
  0
VERTEX
  8
0
  10
601.221167
  20
83.793971
  42
-0.020291
  0
VERTEX
  8
0
  10
601.182956
  20
84.050237
  42
-0.026866
  0
VERTEX
  8
0
  10
601.172446
  20
84.245704
  42
0.021654
  0
VERTEX
  8
0
  10
600.671612
  20
85.430279
  42
0.022690
  0
VERTEX
  8
0
  10
600.095387
  20
86.514038
  42
0.022694
  0
VERTEX
  8
0
  10
599.437875
  20
87.518862
  42
0.022594
  0
VERTEX
  8
0
  10
598.688904
  20
88.464246
  42
0.021322
  0
VERTEX
  8
0
  10
597.882418
  20
89.316505
  42
0.020191
  0
VERTEX
  8
0
  10
596.959096
  20
90.142753
  42
0.018062
  0
VERTEX
  8
0
  10
596.009173
  20
90.870109
  42
0.016426
  0
VERTEX
  8
0
  10
594.912061
  20
91.595986
  0
VERTEX
  8
0
  10
594.658334
  20
91.753552
  0
VERTEX
  8
0
  10
594.481576
  20
91.862599
  0
VERTEX
  8
0
  10
594.349476
  20
91.942849
  42
0.007525
  0
VERTEX
  8
0
  10
593.947011
  20
92.177005
  42
0.009823
  0
VERTEX
  8
0
  10
593.632672
  20
92.345573
  42
0.016932
  0
VERTEX
  8
0
  10
593.208215
  20
92.544740
  42
0.023694
  0
VERTEX
  8
0
  10
592.894253
  20
92.662017
  42
0.042707
  0
VERTEX
  8
0
  10
592.509675
  20
92.749936
  42
0.069584
  0
VERTEX
  8
0
  10
592.266821
  20
92.750043
  42
-0.013317
  0
VERTEX
  8
0
  10
593.830212
  20
91.788444
  42
-0.015509
  0
VERTEX
  8
0
  10
595.122972
  20
90.886685
  42
-0.020698
  0
VERTEX
  8
0
  10
596.539685
  20
89.737568
  42
-0.023734
  0
VERTEX
  8
0
  10
597.681522
  20
88.629632
  42
-0.030060
  0
VERTEX
  8
0
  10
598.814996
  20
87.264380
  42
-0.033398
  0
VERTEX
  8
0
  10
599.671696
  20
85.916059
  42
-0.039326
  0
VERTEX
  8
0
  10
600.384089
  20
84.323592
  42
-0.040405
  0
VERTEX
  8
0
  10
600.822720
  20
82.683138
  42
-0.031373
  0
VERTEX
  8
0
  10
600.993562
  20
81.239329
  42
-0.030968
  0
VERTEX
  8
0
  10
600.983457
  20
79.766536
  42
-0.031668
  0
VERTEX
  8
0
  10
600.787188
  20
78.289359
  42
-0.032632
  0
VERTEX
  8
0
  10
600.414483
  20
76.891981
  42
-0.035393
  0
VERTEX
  8
0
  10
599.836826
  20
75.512821
  42
-0.037259
  0
VERTEX
  8
0
  10
599.104168
  20
74.295775
  42
-0.010404
  0
VERTEX
  8
0
  10
598.879522
  20
73.992266
  0
SEQEND
  0
POLYLINE
  8
0
  66
1
  70
1
  0
VERTEX
  8
0
  10
585.534936
  20
82.766967
  42
-0.026167
  0
VERTEX
  8
0
  10
586.015227
  20
83.141978
  42
-0.045257
  0
VERTEX
  8
0
  10
586.894321
  20
83.645487
  42
-0.044620
  0
VERTEX
  8
0
  10
587.862810
  20
83.988638
  42
-0.040300
  0
VERTEX
  8
0
  10
588.835740
  20
84.156426
  42
-0.036856
  0
VERTEX
  8
0
  10
589.914855
  20
84.174279
  42
-0.031954
  0
VERTEX
  8
0
  10
590.951103
  20
84.048254
  42
-0.028635
  0
VERTEX
  8
0
  10
592.081774
  20
83.768967
  42
-0.066385
  0
VERTEX
  8
0
  10
593.201133
  20
83.252903
  42
-0.063265
  0
VERTEX
  8
0
  10
594.197475
  20
82.429027
  42
-0.057016
  0
VERTEX
  8
0
  10
594.935568
  20
81.436854
  42
-0.056356
  0
VERTEX
  8
0
  10
595.437775
  20
80.291089
  42
-0.059321
  0
VERTEX
  8
0
  10
595.666232
  20
79.049702
  42
-0.063841
  0
VERTEX
  8
0
  10
595.591161
  20
77.878578
  42
-0.073940
  0
VERTEX
  8
0
  10
595.177088
  20
76.704778
  42
-0.074802
  0
VERTEX
  8
0
  10
594.446123
  20
75.714922
  42
-0.081247
  0
VERTEX
  8
0
  10
593.852527
  20
75.288220
  42
-0.070068
  0
VERTEX
  8
0
  10
593.049546
  20
75.021038
  42
-0.058606
  0
VERTEX
  8
0
  10
592.236582
  20
74.968751
  42
-0.057059
  0
VERTEX
  8
0
  10
591.411622
  20
75.107681
  42
-0.063884
  0
VERTEX
  8
0
  10
590.625721
  20
75.447795
  42
-0.073738
  0
VERTEX
  8
0
  10
590.049572
  20
75.916797
  42
-0.044076
  0
VERTEX
  8
0
  10
589.807677
  20
76.233510
  42
-0.045928
  0
VERTEX
  8
0
  10
589.633631
  20
76.574141
  42
-0.048853
  0
VERTEX
  8
0
  10
589.520215
  20
76.964223
  42
-0.046364
  0
VERTEX
  8
0
  10
589.480617
  20
77.390333
  42
-0.051936
  0
VERTEX
  8
0
  10
589.539735
  20
77.957941
  42
-0.059437
  0
VERTEX
  8
0
  10
589.699703
  20
78.430682
  42
-0.060467
  0
VERTEX
  8
0
  10
589.951923
  20
78.827833
  42
-0.061159
  0
VERTEX
  8
0
  10
590.288455
  20
79.148995
  42
-0.056685
  0
VERTEX
  8
0
  10
590.679512
  20
79.376347
  42
-0.052563
  0
VERTEX
  8
0
  10
591.144118
  20
79.524322
  42
-0.048071
  0
VERTEX
  8
0
  10
591.630980
  20
79.576735
  42
-0.044021
  0
VERTEX
  8
0
  10
592.163933
  20
79.535717
  42
-0.108409
  0
VERTEX
  8
0
  10
592.243627
  20
79.503815
  42
-0.085341
  0
VERTEX
  8
0
  10
592.321792
  20
79.428473
  42
-0.071817
  0
VERTEX
  8
0
  10
592.343583
  20
79.387632
  42
-0.141591
  0
VERTEX
  8
0
  10
592.345141
  20
79.363855
  42
-0.225729
  0
VERTEX
  8
0
  10
592.330694
  20
79.345238
  42
-0.117251
  0
VERTEX
  8
0
  10
592.288120
  20
79.335115
  42
0.064630
  0
VERTEX
  8
0
  10
591.830425
  20
79.275705
  42
0.051414
  0
VERTEX
  8
0
  10
591.288454
  20
79.071151
  42
0.047889
  0
VERTEX
  8
0
  10
590.795666
  20
78.762653
  42
0.052373
  0
VERTEX
  8
0
  10
590.410052
  20
78.396371
  42
0.071512
  0
VERTEX
  8
0
  10
590.107921
  20
77.918375
  42
0.091253
  0
VERTEX
  8
0
  10
590.002726
  20
77.486439
  42
0.056032
  0
VERTEX
  8
0
  10
590.016339
  20
77.239432
  42
0.055256
  0
VERTEX
  8
0
  10
590.085033
  20
76.998185
  42
0.053833
  0
VERTEX
  8
0
  10
590.213139
  20
76.761083
  42
0.045650
  0
VERTEX
  8
0
  10
590.416288
  20
76.517018
  42
0.070027
  0
VERTEX
  8
0
  10
591.075360
  20
76.020578
  42
0.079532
  0
VERTEX
  8
0
  10
591.759529
  20
75.773147
  42
0.075457
  0
VERTEX
  8
0
  10
592.433841
  20
75.747743
  42
0.072558
  0
VERTEX
  8
0
  10
593.112106
  20
75.926604
  42
0.066081
  0
VERTEX
  8
0
  10
593.705054
  20
76.277750
  42
0.062465
  0
VERTEX
  8
0
  10
594.217201
  20
76.796088
  42
0.062666
  0
VERTEX
  8
0
  10
594.599657
  20
77.449653
  42
0.060686
  0
VERTEX
  8
0
  10
594.817999
  20
78.200298
  42
0.061569
  0
VERTEX
  8
0
  10
594.855438
  20
79.163411
  42
0.065654
  0
VERTEX
  8
0
  10
594.662278
  20
80.046887
  42
0.058417
  0
VERTEX
  8
0
  10
594.289473
  20
80.793577
  42
0.053336
  0
VERTEX
  8
0
  10
593.710536
  20
81.500282
  42
0.044190
  0
VERTEX
  8
0
  10
593.049494
  20
82.045377
  42
0.040024
  0
VERTEX
  8
0
  10
592.229427
  20
82.516261
  42
0.035989
  0
VERTEX
  8
0
  10
591.380881
  20
82.844681
  42
0.035644
  0
VERTEX
  8
0
  10
590.485602
  20
83.050604
  42
0.035213
  0
VERTEX
  8
0
  10
589.687515
  20
83.118140
  42
0.038290
  0
VERTEX
  8
0
  10
588.952214
  20
83.072110
  42
0.038242
  0
VERTEX
  8
0
  10
588.268958
  20
82.922540
  42
0.038855
  0
VERTEX
  8
0
  10
587.627018
  20
82.673833
  42
0.036014
  0
VERTEX
  8
0
  10
587.056513
  20
82.347720
  42
-0.008041
  0
VERTEX
  8
0
  10
587.108642
  20
82.306881
  42
-0.095456
  0
VERTEX
  8
0
  10
587.617983
  20
81.701961
  42
-0.077124
  0
VERTEX
  8
0
  10
587.865015
  20
81.036704
  42
-0.050445
  0
VERTEX
  8
0
  10
587.933675
  20
80.357902
  42
-0.028854
  0
VERTEX
  8
0
  10
587.885316
  20
79.520598
  42
-0.022611
  0
VERTEX
  8
0
  10
587.727828
  20
78.548408
  42
-0.009446
  0
VERTEX
  8
0
  10
587.635856
  20
78.146019
  42
-0.002894
  0
VERTEX
  8
0
  10
587.344751
  20
77.003022
  42
0.010122
  0
VERTEX
  8
0
  10
587.138886
  20
76.142917
  42
0.016670
  0
VERTEX
  8
0
  10
587.053395
  20
75.676677
  42
0.029474
  0
VERTEX
  8
0
  10
586.995278
  20
75.026000
  42
0.034554
  0
VERTEX
  8
0
  10
587.014780
  20
74.525305
  42
0.025235
  0
VERTEX
  8
0
  10
587.285941
  20
72.828558
  42
0.012007
  0
VERTEX
  8
0
  10
587.637781
  20
71.345574
  42
0.033888
  0
VERTEX
  8
0
  10
588.678669
  20
70.879088
  42
0.040985
  0
VERTEX
  8
0
  10
590.229358
  20
70.447165
  42
0.037849
  0
VERTEX
  8
0
  10
591.960693
  20
70.248817
  42
0.036500
  0
VERTEX
  8
0
  10
593.637948
  20
70.306813
  42
0.006352
  0
VERTEX
  8
0
  10
593.871068
  20
70.334978
  42
-0.041594
  0
VERTEX
  8
0
  10
593.978844
  20
70.868712
  42
-0.010867
  0
VERTEX
  8
0
  10
594.019808
  20
70.999230
  42
-0.009187
  0
VERTEX
  8
0
  10
593.729481
  20
70.960438
  42
-0.021650
  0
VERTEX
  8
0
  10
592.942757
  20
70.904361
  42
-0.017834
  0
VERTEX
  8
0
  10
591.985446
  20
70.911826
  42
-0.010951
  0
VERTEX
  8
0
  10
591.249336
  20
70.960010
  42
-0.007461
  0
VERTEX
  8
0
  10
590.172199
  20
71.070465
  42
-0.148085
  0
VERTEX
  8
0
  10
590.135628
  20
71.086410
  42
-0.154556
  0
VERTEX
  8
0
  10
590.115318
  20
71.118881
  42
-0.478103
  0
VERTEX
  8
0
  10
590.147814
  20
71.163570
  42
0.002242
  0
VERTEX
  8
0
  10
591.316855
  20
71.213783
  42
0.004790
  0
VERTEX
  8
0
  10
591.863586
  20
71.244974
  42
0.042986
  0
VERTEX
  8
0
  10
593.210473
  20
71.451965
  42
0.038219
  0
VERTEX
  8
0
  10
594.468073
  20
71.861488
  42
-0.033170
  0
VERTEX
  8
0
  10
594.757633
  20
72.209613
  42
-0.051308
  0
VERTEX
  8
0
  10
595.358681
  20
72.724291
  42
-0.038758
  0
VERTEX
  8
0
  10
596.112334
  20
73.163986
  42
-0.035217
  0
VERTEX
  8
0
  10
597.145038
  20
73.576768
  42
0.075630
  0
VERTEX
  8
0
  10
598.771615
  20
75.623355
  42
0.091423
  0
VERTEX
  8
0
  10
599.657478
  20
78.141781
  42
0.041469
  0
VERTEX
  8
0
  10
599.806778
  20
80.183186
  42
0.042928
  0
VERTEX
  8
0
  10
599.617837
  20
82.151698
  42
0.040808
  0
VERTEX
  8
0
  10
599.127116
  20
83.973889
  42
0.039516
  0
VERTEX
  8
0
  10
598.326102
  20
85.750263
  42
0.036026
  0
VERTEX
  8
0
  10
597.305165
  20
87.326933
  42
0.033833
  0
VERTEX
  8
0
  10
595.995123
  20
88.837893
  42
0.030913
  0
VERTEX
  8
0
  10
594.536409
  20
90.135605
  42
0.029183
  0
VERTEX
  8
0
  10
592.837751
  20
91.315004
  0
VERTEX
  8
0
  10
592.784409
  20
91.348527
  0
VERTEX
  8
0
  10
592.677278
  20
91.418681
  0
VERTEX
  8
0
  10
592.539710
  20
91.509641
  0
VERTEX
  8
0
  10
592.492274
  20
91.540548
  42
0.016158
  0
VERTEX
  8
0
  10
592.252163
  20
91.684512
  42
0.028527
  0
VERTEX
  8
0
  10
592.109350
  20
91.753631
  42
0.073403
  0
VERTEX
  8
0
  10
591.909978
  20
91.803940
  42
0.151048
  0
VERTEX
  8
0
  10
591.810332
  20
91.783824
  42
0.107385
  0
VERTEX
  8
0
  10
591.764672
  20
91.744340
  42
0.085411
  0
VERTEX
  8
0
  10
591.730211
  20
91.677076
  42
0.060098
  0
VERTEX
  8
0
  10
591.714874
  20
91.594208
  42
0.037849
  0
VERTEX
  8
0
  10
591.716572
  20
91.460693
  42
-0.048568
  0
VERTEX
  8
0
  10
591.988594
  20
90.898607
  42
-0.043504
  0
VERTEX
  8
0
  10
592.172246
  20
90.226432
  42
-0.038216
  0
VERTEX
  8
0
  10
592.241643
  20
89.557425
  42
-0.036445
  0
VERTEX
  8
0
  10
592.209292
  20
88.852972
  42
-0.036439
  0
VERTEX
  8
0
  10
592.075033
  20
88.160829
  42
-0.038218
  0
VERTEX
  8
0
  10
591.850290
  20
87.527186
  42
-0.043506
  0
VERTEX
  8
0
  10
591.513922
  20
86.917562
  42
-0.048600
  0
VERTEX
  8
0
  10
591.117823
  20
86.435947
  42
-0.088921
  0
VERTEX
  8
0
  10
590.438963
  20
85.963473
  42
-0.082031
  0
VERTEX
  8
0
  10
589.575170
  20
85.727242
  42
-0.067656
  0
VERTEX
  8
0
  10
588.727591
  20
85.754244
  42
-0.064755
  0
VERTEX
  8
0
  10
587.880521
  20
86.012825
  42
-0.069826
  0
VERTEX
  8
0
  10
587.125327
  20
86.491607
  42
-0.079413
  0
VERTEX
  8
0
  10
586.613401
  20
87.089803
  42
-0.046916
  0
VERTEX
  8
0
  10
586.428100
  20
87.467998
  42
-0.048447
  0
VERTEX
  8
0
  10
586.321266
  20
87.861661
  42
-0.051058
  0
VERTEX
  8
0
  10
586.292549
  20
88.295110
  42
-0.047768
  0
VERTEX
  8
0
  10
586.353336
  20
88.755282
  42
-0.033453
  0
VERTEX
  8
0
  10
586.534364
  20
89.353871
  42
-0.039719
  0
VERTEX
  8
0
  10
586.758793
  20
89.830641
  42
-0.050547
  0
VERTEX
  8
0
  10
587.076072
  20
90.274725
  42
-0.060787
  0
VERTEX
  8
0
  10
587.415251
  20
90.577043
  42
-0.146994
  0
VERTEX
  8
0
  10
588.312252
  20
90.869105
  42
-0.068274
  0
VERTEX
  8
0
  10
588.824188
  20
90.810720
  42
-0.053490
  0
VERTEX
  8
0
  10
589.439338
  20
90.581441
  42
-0.107609
  0
VERTEX
  8
0
  10
589.608261
  20
90.445386
  42
-0.092129
  0
VERTEX
  8
0
  10
589.728158
  20
90.223086
  42
-0.066771
  0
VERTEX
  8
0
  10
589.770450
  20
89.987387
  42
-0.058833
  0
VERTEX
  8
0
  10
589.750557
  20
89.716612
  42
-0.060579
  0
VERTEX
  8
0
  10
589.667072
  20
89.457656
  42
-0.071618
  0
VERTEX
  8
0
  10
589.541560
  20
89.264351
  42
-0.100872
  0
VERTEX
  8
0
  10
589.348280
  20
89.117154
  42
-0.112927
  0
VERTEX
  8
0
  10
589.136191
  20
89.068635
  42
-0.061821
  0
VERTEX
  8
0
  10
589.075203
  20
89.076204
  42
-0.020157
  0
VERTEX
  8
0
  10
588.895055
  20
89.129428
  42
-0.016832
  0
VERTEX
  8
0
  10
588.705433
  20
89.201073
  42
-0.018931
  0
VERTEX
  8
0
  10
588.541804
  20
89.276664
  42
-0.035774
  0
VERTEX
  8
0
  10
588.358844
  20
89.386869
  42
-0.074983
  0
VERTEX
  8
0
  10
588.284898
  20
89.457624
  42
-0.088685
  0
VERTEX
  8
0
  10
588.259004
  20
89.507257
  42
-0.135425
  0
VERTEX
  8
0
  10
588.257718
  20
89.544275
  42
-0.138212
  0
VERTEX
  8
0
  10
588.277459
  20
89.579638
  42
-0.081003
  0
VERTEX
  8
0
  10
588.332797
  20
89.619588
  42
0.045507
  0
VERTEX
  8
0
  10
588.477517
  20
89.499060
  42
0.040885
  0
VERTEX
  8
0
  10
588.659181
  20
89.394619
  42
0.046510
  0
VERTEX
  8
0
  10
588.864358
  20
89.320399
  42
0.058156
  0
VERTEX
  8
0
  10
589.037407
  20
89.296373
  42
0.089687
  0
VERTEX
  8
0
  10
589.222652
  20
89.325721
  42
0.112205
  0
VERTEX
  8
0
  10
589.350283
  20
89.405648
  42
0.118312
  0
VERTEX
  8
0
  10
589.440493
  20
89.552028
  42
0.079359
  0
VERTEX
  8
0
  10
589.480617
  20
89.803240
  42
0.048723
  0
VERTEX
  8
0
  10
589.458865
  20
90.025931
  42
0.066015
  0
VERTEX
  8
0
  10
589.405782
  20
90.182654
  42
0.075019
  0
VERTEX
  8
0
  10
589.319495
  20
90.306593
  42
0.078546
  0
VERTEX
  8
0
  10
589.205143
  20
90.394629
  42
0.113770
  0
VERTEX
  8
0
  10
588.960856
  20
90.462964
  42
0.072852
  0
VERTEX
  8
0
  10
588.569638
  20
90.424006
  42
0.043990
  0
VERTEX
  8
0
  10
588.228948
  20
90.306312
  42
0.037825
  0
VERTEX
  8
0
  10
587.860485
  20
90.106853
  42
0.040677
  0
VERTEX
  8
0
  10
587.538022
  20
89.860143
  42
0.062180
  0
VERTEX
  8
0
  10
587.364061
  20
89.658653
  42
0.046288
  0
VERTEX
  8
0
  10
587.118024
  20
89.203418
  42
0.054519
  0
VERTEX
  8
0
  10
586.990580
  20
88.782579
  42
0.056106
  0
VERTEX
  8
0
  10
586.960999
  20
88.378239
  42
0.058609
  0
VERTEX
  8
0
  10
587.021372
  20
87.994744
  42
0.103305
  0
VERTEX
  8
0
  10
587.347727
  20
87.366512
  42
0.091802
  0
VERTEX
  8
0
  10
587.954296
  20
86.852784
  42
0.084404
  0
VERTEX
  8
0
  10
588.701962
  20
86.578834
  42
0.086421
  0
VERTEX
  8
0
  10
589.479878
  20
86.570748
  42
0.048577
  0
VERTEX
  8
0
  10
589.881554
  20
86.677214
  42
0.049036
  0
VERTEX
  8
0
  10
590.251492
  20
86.857820
  42
0.051611
  0
VERTEX
  8
0
  10
590.602853
  20
87.127871
  42
0.048068
  0
VERTEX
  8
0
  10
590.915163
  20
87.486615
  42
0.068476
  0
VERTEX
  8
0
  10
591.193674
  20
88.017030
  42
0.052873
  0
VERTEX
  8
0
  10
591.378603
  20
88.769053
  42
0.041976
  0
VERTEX
  8
0
  10
591.417291
  20
89.518550
  42
0.038933
  0
VERTEX
  8
0
  10
591.328358
  20
90.322605
  42
0.041466
  0
VERTEX
  8
0
  10
591.107033
  20
91.119614
  42
0.047403
  0
VERTEX
  8
0
  10
590.793120
  20
91.771976
  42
0.063387
  0
VERTEX
  8
0
  10
590.314227
  20
92.376660
  42
0.077836
  0
VERTEX
  8
0
  10
589.801581
  20
92.741874
  42
0.035831
  0
VERTEX
  8
0
  10
589.510202
  20
92.862334
  42
0.016302
  0
VERTEX
  8
0
  10
588.846381
  20
93.058826
  42
-0.002045
  0
VERTEX
  8
0
  10
587.731667
  20
93.354494
  42
-0.029295
  0
VERTEX
  8
0
  10
587.655247
  20
93.379984
  42
0.032186
  0
VERTEX
  8
0
  10
586.777208
  20
93.667216
  42
0.029333
  0
VERTEX
  8
0
  10
585.782567
  20
93.861764
  42
0.023693
  0
VERTEX
  8
0
  10
584.867684
  20
93.941681
  42
0.020894
  0
VERTEX
  8
0
  10
583.826415
  20
93.939568
  42
0.016109
  0
VERTEX
  8
0
  10
582.912352
  20
93.869941
  42
0.014008
  0
VERTEX
  8
0
  10
581.867966
  20
93.726750
  42
0.010091
  0
VERTEX
  8
0
  10
581.005985
  20
93.565928
  42
0.008483
  0
VERTEX
  8
0
  10
579.988392
  20
93.336664
  42
0.016830
  0
VERTEX
  8
0
  10
579.814242
  20
93.288050
  42
0.031158
  0
VERTEX
  8
0
  10
579.723061
  20
93.252876
  42
0.068414
  0
VERTEX
  8
0
  10
579.640964
  20
93.200591
  42
0.151214
  0
VERTEX
  8
0
  10
579.616886
  20
93.162772
  42
0.186012
  0
VERTEX
  8
0
  10
579.621185
  20
93.120364
  42
0.096063
  0
VERTEX
  8
0
  10
579.670575
  20
93.056777
  42
0.042157
  0
VERTEX
  8
0
  10
579.739503
  20
93.006033
  42
0.021676
  0
VERTEX
  8
0
  10
579.884836
  20
92.925312
  42
-0.054309
  0
VERTEX
  8
0
  10
581.157874
  20
92.341066
  42
-0.053320
  0
VERTEX
  8
0
  10
582.297546
  20
91.483080
  42
-0.051496
  0
VERTEX
  8
0
  10
583.210318
  20
90.434026
  42
-0.052479
  0
VERTEX
  8
0
  10
583.874469
  20
89.241872
  42
-0.056084
  0
VERTEX
  8
0
  10
584.274085
  20
87.909394
  42
-0.058854
  0
VERTEX
  8
0
  10
584.355912
  20
86.585879
  42
-0.064741
  0
VERTEX
  8
0
  10
584.096983
  20
85.203253
  42
-0.063158
  0
VERTEX
  8
0
  10
583.482179
  20
83.899292
  42
-0.040022
  0
VERTEX
  8
0
  10
582.950405
  20
83.195009
  42
-0.044904
  0
VERTEX
  8
0
  10
582.376990
  20
82.656174
  42
-0.043167
  0
VERTEX
  8
0
  10
581.765894
  20
82.257297
  42
-0.041047
  0
VERTEX
  8
0
  10
581.062161
  20
81.951468
  42
-0.032708
  0
VERTEX
  8
0
  10
580.392539
  20
81.771528
  42
-0.027200
  0
VERTEX
  8
0
  10
579.567500
  20
81.652959
  42
-0.018361
  0
VERTEX
  8
0
  10
578.864469
  20
81.616628
  42
-0.013724
  0
VERTEX
  8
0
  10
577.922813
  20
81.628430
  42
0.084170
  0
VERTEX
  8
0
  10
577.608877
  20
81.588037
  42
0.067497
  0
VERTEX
  8
0
  10
577.251111
  20
81.423656
  42
0.044694
  0
VERTEX
  8
0
  10
576.971194
  20
81.208727
  42
0.035028
  0
VERTEX
  8
0
  10
576.662307
  20
80.881533
  42
0.025673
  0
VERTEX
  8
0
  10
576.426229
  20
80.561301
  42
0.023896
  0
VERTEX
  8
0
  10
576.207907
  20
80.193881
  42
0.022980
  0
VERTEX
  8
0
  10
576.040262
  20
79.839996
  42
0.029548
  0
VERTEX
  8
0
  10
575.939417
  20
79.552518
  42
0.086091
  0
VERTEX
  8
0
  10
575.892430
  20
79.113169
  42
0.081610
  0
VERTEX
  8
0
  10
575.997743
  20
78.659464
  42
0.071316
  0
VERTEX
  8
0
  10
576.219700
  20
78.283517
  42
0.075634
  0
VERTEX
  8
0
  10
576.522748
  20
78.004523
  42
0.093683
  0
VERTEX
  8
0
  10
576.901359
  20
77.841633
  42
0.112797
  0
VERTEX
  8
0
  10
577.245013
  20
77.843410
  42
0.063667
  0
VERTEX
  8
0
  10
577.424364
  20
77.910301
  42
0.058548
  0
VERTEX
  8
0
  10
577.595924
  20
78.027950
  42
0.053840
  0
VERTEX
  8
0
  10
577.749055
  20
78.193930
  42
0.043509
  0
VERTEX
  8
0
  10
577.895118
  20
78.431839
  42
0.091916
  0
VERTEX
  8
0
  10
577.912423
  20
78.491944
  42
0.093124
  0
VERTEX
  8
0
  10
577.906953
  20
78.553450
  42
0.067168
  0
VERTEX
  8
0
  10
577.884249
  20
78.605896
  42
0.048696
  0
VERTEX
  8
0
  10
577.837275
  20
78.668988
  42
0.050296
  0
VERTEX
  8
0
  10
577.743562
  20
78.753357
  42
0.029609
  0
VERTEX
  8
0
  10
577.563903
  20
78.869344
  0
VERTEX
  8
0
  10
577.501365
  20
78.903544
  0
VERTEX
  8
0
  10
577.415474
  20
78.947908
  0
VERTEX
  8
0
  10
577.296059
  20
79.007896
  42
-0.017261
  0
VERTEX
  8
0
  10
577.245355
  20
79.036469
  42
-0.065112
  0
VERTEX
  8
0
  10
577.233289
  20
79.046181
  42
-0.154654
  0
VERTEX
  8
0
  10
577.230163
  20
79.052552
  42
-0.290676
  0
VERTEX
  8
0
  10
577.231781
  20
79.056208
  0
VERTEX
  8
0
  10
577.237311
  20
79.058342
  0
VERTEX
  8
0
  10
577.254796
  20
79.059638
  42
-0.145072
  0
VERTEX
  8
0
  10
577.752065
  20
78.912256
  42
-0.165859
  0
VERTEX
  8
0
  10
578.034052
  20
78.553239
  42
-0.091114
  0
VERTEX
  8
0
  10
578.068532
  20
78.333076
  42
-0.094973
  0
VERTEX
  8
0
  10
578.022730
  20
78.124092
  42
-0.097725
  0
VERTEX
  8
0
  10
577.889544
  20
77.929399
  42
-0.078248
  0
VERTEX
  8
0
  10
577.650554
  20
77.758845
  42
-0.037547
  0
VERTEX
  8
0
  10
577.389950
  20
77.652153
  42
-0.043828
  0
VERTEX
  8
0
  10
577.154714
  20
77.598082
  42
-0.046019
  0
VERTEX
  8
0
  10
576.928334
  20
77.587581
  42
-0.048477
  0
VERTEX
  8
0
  10
576.715332
  20
77.618140
  42
-0.085669
  0
VERTEX
  8
0
  10
576.361121
  20
77.772215
  42
0.011551
  0
VERTEX
  8
0
  10
576.164766
  20
77.894805
  42
0.014076
  0
VERTEX
  8
0
  10
575.998684
  20
77.987022
  42
-0.013291
  0
VERTEX
  8
0
  10
575.845989
  20
78.165083
  42
-0.013495
  0
VERTEX
  8
0
  10
575.705211
  20
78.348247
  42
0.009105
  0
VERTEX
  8
0
  10
575.545455
  20
78.562422
  42
0.010441
  0
VERTEX
  8
0
  10
575.398949
  20
78.743603
  42
-0.030613
  0
VERTEX
  8
0
  10
575.323012
  20
78.953624
  42
-0.026218
  0
VERTEX
  8
0
  10
575.262738
  20
79.207260
  42
-0.033875
  0
VERTEX
  8
0
  10
575.253748
  20
79.720706
  42
-0.039221
  0
VERTEX
  8
0
  10
575.319884
  20
80.232075
  42
-0.042077
  0
VERTEX
  8
0
  10
575.457871
  20
80.692587
  42
-0.041384
  0
VERTEX
  8
0
  10
575.669205
  20
81.121346
  42
-0.037839
  0
VERTEX
  8
0
  10
575.971309
  20
81.547834
  42
-0.031802
  0
VERTEX
  8
0
  10
576.323632
  20
81.921855
  42
-0.026078
  0
VERTEX
  8
0
  10
576.802937
  20
82.325188
  42
-0.013827
  0
VERTEX
  8
0
  10
576.362846
  20
82.790316
  42
-0.017265
  0
VERTEX
  8
0
  10
576.034189
  20
83.184039
  42
-0.070723
  0
VERTEX
  8
0
  10
575.661969
  20
83.834386
  42
-0.061465
  0
VERTEX
  8
0
  10
575.444045
  20
84.667496
  42
-0.056014
  0
VERTEX
  8
0
  10
575.426291
  20
85.506456
  42
-0.059642
  0
VERTEX
  8
0
  10
575.590570
  20
86.277595
  42
-0.074974
  0
VERTEX
  8
0
  10
575.966646
  20
87.002260
  42
-0.090349
  0
VERTEX
  8
0
  10
576.457923
  20
87.471271
  42
-0.053100
  0
VERTEX
  8
0
  10
576.789608
  20
87.642227
  42
-0.052038
  0
VERTEX
  8
0
  10
577.156961
  20
87.742245
  42
-0.051027
  0
VERTEX
  8
0
  10
577.563782
  20
87.766632
  42
-0.044173
  0
VERTEX
  8
0
  10
578.030267
  20
87.705465
  42
-0.075681
  0
VERTEX
  8
0
  10
578.414390
  20
87.556591
  42
-0.065929
  0
VERTEX
  8
0
  10
578.789627
  20
87.269861
  42
-0.058966
  0
VERTEX
  8
0
  10
579.073202
  20
86.911078
  42
-0.062295
  0
VERTEX
  8
0
  10
579.252400
  20
86.516840
  42
-0.077841
  0
VERTEX
  8
0
  10
579.317698
  20
86.075310
  42
-0.093664
  0
VERTEX
  8
0
  10
579.245511
  20
85.710450
  42
-0.054813
  0
VERTEX
  8
0
  10
579.148835
  20
85.529910
  42
-0.053257
  0
VERTEX
  8
0
  10
579.011857
  20
85.369756
  42
-0.051760
  0
VERTEX
  8
0
  10
578.832276
  20
85.232271
  42
-0.044311
  0
VERTEX
  8
0
  10
578.595886
  20
85.114737
  42
-0.008622
  0
VERTEX
  8
0
  10
578.216558
  20
84.973859
  42
-0.027000
  0
VERTEX
  8
0
  10
578.092448
  20
84.937582
  42
-0.063092
  0
VERTEX
  8
0
  10
577.965898
  20
84.924327
  42
-0.254496
  0
VERTEX
  8
0
  10
577.936866
  20
84.940951
  42
-0.284523
  0
VERTEX
  8
0
  10
577.936946
  20
84.979819
  42
-0.057295
  0
VERTEX
  8
0
  10
578.048323
  20
85.120131
  42
0.041518
  0
VERTEX
  8
0
  10
578.289212
  20
85.293346
  42
0.038838
  0
VERTEX
  8
0
  10
578.513744
  20
85.517266
  42
0.044680
  0
VERTEX
  8
0
  10
578.707280
  20
85.788458
  42
0.054015
  0
VERTEX
  8
0
  10
578.820413
  20
86.040032
  42
0.077848
  0
VERTEX
  8
0
  10
578.867816
  20
86.335095
  42
0.094182
  0
VERTEX
  8
0
  10
578.822519
  20
86.578626
  42
0.104825
  0
VERTEX
  8
0
  10
578.670147
  20
86.810893
  42
0.079584
  0
VERTEX
  8
0
  10
578.374254
  20
87.023243
  42
0.052560
  0
VERTEX
  8
0
  10
578.013402
  20
87.158502
  42
0.062818
  0
VERTEX
  8
0
  10
577.693233
  20
87.199752
  42
0.063486
  0
VERTEX
  8
0
  10
577.396942
  20
87.162779
  42
0.062524
  0
VERTEX
  8
0
  10
577.114956
  20
87.051511
  42
0.097093
  0
VERTEX
  8
0
  10
576.690690
  20
86.698275
  42
0.074271
  0
VERTEX
  8
0
  10
576.324373
  20
86.079688
  42
0.059393
  0
VERTEX
  8
0
  10
576.138564
  20
85.402353
  42
0.059846
  0
VERTEX
  8
0
  10
576.117974
  20
84.705576
  42
0.076739
  0
VERTEX
  8
0
  10
576.292500
  20
84.002104
  42
0.097567
  0
VERTEX
  8
0
  10
576.611228
  20
83.526979
  42
0.040631
  0
VERTEX
  8
0
  10
577.029931
  20
83.171308
  42
0.043221
  0
VERTEX
  8
0
  10
577.473908
  20
82.907238
  42
0.041711
  0
VERTEX
  8
0
  10
577.929837
  20
82.732070
  42
0.041102
  0
VERTEX
  8
0
  10
578.415469
  20
82.632980
  42
0.071424
  0
VERTEX
  8
0
  10
579.336763
  20
82.654618
  42
0.063215
  0
VERTEX
  8
0
  10
580.332707
  20
82.954370
  42
0.054775
  0
VERTEX
  8
0
  10
581.200861
  20
83.460766
  42
0.053481
  0
VERTEX
  8
0
  10
581.957886
  20
84.158064
  42
0.058231
  0
VERTEX
  8
0
  10
582.555017
  20
85.024826
  42
0.064847
  0
VERTEX
  8
0
  10
582.885947
  20
85.910975
  42
0.030842
  0
VERTEX
  8
0
  10
582.998784
  20
86.583506
  42
0.033532
  0
VERTEX
  8
0
  10
583.022321
  20
87.210392
  42
0.034042
  0
VERTEX
  8
0
  10
582.963910
  20
87.807154
  42
0.035210
  0
VERTEX
  8
0
  10
582.828344
  20
88.370842
  42
0.066405
  0
VERTEX
  8
0
  10
582.368835
  20
89.349375
  42
0.062336
  0
VERTEX
  8
0
  10
581.630724
  20
90.232567
  42
0.053026
  0
VERTEX
  8
0
  10
580.752339
  20
90.892289
  42
0.047989
  0
VERTEX
  8
0
  10
579.655867
  20
91.411604
  42
0.043965
  0
VERTEX
  8
0
  10
578.496663
  20
91.718175
  42
0.042694
  0
VERTEX
  8
0
  10
577.266554
  20
91.823404
  0
VERTEX
  8
0
  10
576.899090
  20
91.829700
  42
0.008177
  0
VERTEX
  8
0
  10
576.587523
  20
91.827624
  42
0.011073
  0
VERTEX
  8
0
  10
576.357652
  20
91.817235
  42
0.021995
  0
VERTEX
  8
0
  10
576.042947
  20
91.782066
  42
0.036664
  0
VERTEX
  8
0
  10
575.857761
  20
91.738986
  42
0.034379
  0
VERTEX
  8
0
  10
575.754510
  20
91.698868
  42
0.051248
  0
VERTEX
  8
0
  10
575.690748
  20
91.660497
  42
0.083696
  0
VERTEX
  8
0
  10
575.637105
  20
91.604019
  42
0.108609
  0
VERTEX
  8
0
  10
575.614943
  20
91.547927
  42
-0.015777
  0
VERTEX
  8
0
  10
576.569149
  20
91.565493
  42
-0.018684
  0
VERTEX
  8
0
  10
577.374088
  20
91.524802
  42
-0.024916
  0
VERTEX
  8
0
  10
578.283439
  20
91.398792
  42
-0.028792
  0
VERTEX
  8
0
  10
579.054308
  20
91.205988
  42
-0.035959
  0
VERTEX
  8
0
  10
579.869659
  20
90.885476
  42
-0.039188
  0
VERTEX
  8
0
  10
580.565557
  20
90.482617
  42
-0.044052
  0
VERTEX
  8
0
  10
581.236924
  20
89.927218
  42
-0.042864
  0
VERTEX
  8
0
  10
581.817791
  20
89.245823
  42
-0.024220
  0
VERTEX
  8
0
  10
581.943537
  20
89.050426
  42
-0.016717
  0
VERTEX
  8
0
  10
582.101909
  20
88.753479
  42
-0.017860
  0
VERTEX
  8
0
  10
582.256671
  20
88.407678
  42
-0.019809
  0
VERTEX
  8
0
  10
582.372355
  20
88.086262
  42
-0.030065
  0
VERTEX
  8
0
  10
582.469504
  20
87.698954
  42
-0.043113
  0
VERTEX
  8
0
  10
582.497184
  20
87.421612
  42
-0.033477
  0
VERTEX
  8
0
  10
582.488823
  20
87.265849
  42
-0.042576
  0
VERTEX
  8
0
  10
582.463760
  20
87.145699
  42
-0.057190
  0
VERTEX
  8
0
  10
582.412419
  20
87.025942
  42
-0.066632
  0
VERTEX
  8
0
  10
582.344452
  20
86.936967
  42
0.008849
  0
VERTEX
  8
0
  10
582.098703
  20
87.521140
  42
0.012244
  0
VERTEX
  8
0
  10
581.903429
  20
87.935512
  42
0.018610
  0
VERTEX
  8
0
  10
581.633244
  20
88.427635
  42
0.022164
  0
VERTEX
  8
0
  10
581.373439
  20
88.821062
  42
0.027848
  0
VERTEX
  8
0
  10
581.040257
  20
89.230037
  42
0.029635
  0
VERTEX
  8
0
  10
580.685123
  20
89.575944
  42
0.032038
  0
VERTEX
  8
0
  10
580.258700
  20
89.899395
  42
0.030317
  0
VERTEX
  8
0
  10
579.769118
  20
90.182488
  42
0.031336
  0
VERTEX
  8
0
  10
579.032692
  20
90.494710
  42
0.032790
  0
VERTEX
  8
0
  10
578.296485
  20
90.700674
  42
0.031592
  0
VERTEX
  8
0
  10
577.577785
  20
90.804940
  42
0.031118
  0
VERTEX
  8
0
  10
576.840646
  20
90.818719
  42
0.053451
  0
VERTEX
  8
0
  10
575.510707
  20
90.617277
  42
0.046262
  0
VERTEX
  8
0
  10
574.051616
  20
90.085358
  42
0.034489
  0
VERTEX
  8
0
  10
572.845633
  20
89.409213
  42
0.029458
  0
VERTEX
  8
0
  10
571.546567
  20
88.444345
  42
0.022531
  0
VERTEX
  8
0
  10
570.503483
  20
87.486563
  42
0.011413
  0
VERTEX
  8
0
  10
569.925934
  20
86.879057
  0
VERTEX
  8
0
  10
570.155003
  20
86.619889
  0
VERTEX
  8
0
  10
571.157097
  20
85.510161
  42
-0.011150
  0
VERTEX
  8
0
  10
571.736277
  20
84.836623
  42
-0.013651
  0
VERTEX
  8
0
  10
572.046633
  20
84.437239
  42
-0.025825
  0
VERTEX
  8
0
  10
572.434574
  20
84.279076
  42
-0.040979
  0
VERTEX
  8
0
  10
572.900560
  20
84.011853
  42
-0.041273
  0
VERTEX
  8
0
  10
573.293315
  20
83.690929
  42
-0.041991
  0
VERTEX
  8
0
  10
573.621786
  20
83.315874
  42
-0.038612
  0
VERTEX
  8
0
  10
573.871616
  20
82.915754
  42
-0.036339
  0
VERTEX
  8
0
  10
574.070606
  20
82.455817
  42
-0.031591
  0
VERTEX
  8
0
  10
574.198440
  20
81.998407
  42
-0.028777
  0
VERTEX
  8
0
  10
574.277281
  20
81.483103
  42
-0.046646
  0
VERTEX
  8
0
  10
574.278312
  20
80.510403
  42
-0.040426
  0
VERTEX
  8
0
  10
574.085244
  20
79.405380
  42
-0.035389
  0
VERTEX
  8
0
  10
573.747594
  20
78.401734
  0
VERTEX
  8
0
  10
573.731125
  20
78.362601
  42
0.008577
  0
VERTEX
  8
0
  10
573.787972
  20
77.338109
  0
VERTEX
  8
0
  10
574.083593
  20
77.244860
  0
VERTEX
  8
0
  10
574.280468
  20
77.180860
  42
-0.010592
  0
VERTEX
  8
0
  10
574.839659
  20
76.982583
  42
-0.014074
  0
VERTEX
  8
0
  10
575.252650
  20
76.812784
  42
-0.071090
  0
VERTEX
  8
0
  10
576.812555
  20
75.834443
  42
-0.015871
  0
VERTEX
  8
0
  10
577.171773
  20
76.334759
  42
-0.023753
  0
VERTEX
  8
0
  10
578.195742
  20
77.545707
  42
-0.022792
  0
VERTEX
  8
0
  10
579.582999
  20
78.906567
  42
-0.013870
  0
VERTEX
  8
0
  10
581.911652
  20
80.877852
  42
-0.024043
  0
VERTEX
  8
0
  10
583.268134
  20
81.859970
  42
-0.039593
  0
VERTEX
  8
0
  10
584.293043
  20
82.419138
  42
-0.060486
  0
VERTEX
  8
0
  10
585.330259
  20
82.739385
  42
-0.022351
  0
VERTEX
  8
0
  10
585.534936
  20
82.766967
  0
SEQEND
  0
POLYLINE
  8
0
  66
1
  70
1
  0
VERTEX
  8
0
  10
575.766715
  20
63.694599
  42
-0.014478
  0
VERTEX
  8
0
  10
575.698718
  20
63.873623
  42
-0.035121
  0
VERTEX
  8
0
  10
575.541179
  20
64.456839
  42
-0.027133
  0
VERTEX
  8
0
  10
575.462145
  20
65.020289
  42
-0.021279
  0
VERTEX
  8
0
  10
575.431292
  20
65.744917
  42
-0.031048
  0
VERTEX
  8
0
  10
575.212317
  20
65.704413
  42
-0.021839
  0
VERTEX
  8
0
  10
574.896828
  20
65.680023
  0
VERTEX
  8
0
  10
574.803134
  20
65.677716
  0
VERTEX
  8
0
  10
574.624654
  20
65.675734
  0
VERTEX
  8
0
  10
574.440508
  20
65.673849
  0
VERTEX
  8
0
  10
574.354877
  20
65.671951
  0
VERTEX
  8
0
  10
574.353868
  20
65.671920
  42
-0.004074
  0
VERTEX
  8
0
  10
574.311932
  20
65.320069
  42
-0.029560
  0
VERTEX
  8
0
  10
573.980052
  20
63.555197
  42
-0.054557
  0
VERTEX
  8
0
  10
573.748832
  20
62.929518
  42
-0.060986
  0
VERTEX
  8
0
  10
573.379219
  20
62.371247
  42
-0.050705
  0
VERTEX
  8
0
  10
572.968159
  20
61.978328
  42
-0.041760
  0
VERTEX
  8
0
  10
572.489211
  20
61.665874
  42
-0.023373
  0
VERTEX
  8
0
  10
572.150401
  20
61.503113
  42
-0.014124
  0
VERTEX
  8
0
  10
571.710842
  20
61.331182
  0
VERTEX
  8
0
  10
571.267976
  20
61.171292
  42
0.025152
  0
VERTEX
  8
0
  10
571.114661
  20
60.992701
  42
0.028601
  0
VERTEX
  8
0
  10
570.852075
  20
60.610449
  42
0.027769
  0
VERTEX
  8
0
  10
570.622880
  20
60.179926
  0
VERTEX
  8
0
  10
570.607642
  20
60.146500
  42
0.013965
  0
VERTEX
  8
0
  10
571.277143
  20
60.102974
  42
0.009249
  0
VERTEX
  8
0
  10
572.510904
  20
60.080150
  42
-0.008033
  0
VERTEX
  8
0
  10
573.656539
  20
60.061744
  42
-0.004552
  0
VERTEX
  8
0
  10
575.619104
  20
59.980776
  42
0.001255
  0
VERTEX
  8
0
  10
578.034846
  20
59.865154
  42
0.004029
  0
VERTEX
  8
0
  10
578.766086
  20
59.837897
  42
0.009805
  0
VERTEX
  8
0
  10
580.515616
  20
59.821120
  42
0.013152
  0
VERTEX
  8
0
  10
581.784250
  20
59.867219
  42
0.002617
  0
VERTEX
  8
0
  10
581.981702
  20
59.880638
  42
-0.028703
  0
VERTEX
  8
0
  10
581.563619
  20
60.076192
  42
-0.018060
  0
VERTEX
  8
0
  10
581.307613
  20
60.226538
  42
-0.004407
  0
VERTEX
  8
0
  10
580.637505
  20
60.661696
  42
0.021441
  0
VERTEX
  8
0
  10
580.232924
  20
60.905249
  42
0.034462
  0
VERTEX
  8
0
  10
580.137037
  20
60.949237
  0
VERTEX
  8
0
  10
579.327447
  20
60.657658
  42
-0.016549
  0
VERTEX
  8
0
  10
578.526846
  20
60.397845
  42
-0.030493
  0
VERTEX
  8
0
  10
577.954035
  20
60.269910
  42
-0.085441
  0
VERTEX
  8
0
  10
576.916179
  20
60.282050
  42
-0.180285
  0
VERTEX
  8
0
  10
575.796448
  20
60.951579
  42
-0.111927
  0
VERTEX
  8
0
  10
575.436664
  20
61.692167
  42
-0.077071
  0
VERTEX
  8
0
  10
575.384591
  20
62.380897
  42
-0.050559
  0
VERTEX
  8
0
  10
575.484740
  20
62.933115
  42
-0.031123
  0
VERTEX
  8
0
  10
575.688374
  20
63.503937
  42
0.007515
  0
VERTEX
  8
0
  10
575.766715
  20
63.694599
  0
SEQEND
  0
POLYLINE
  8
0
  66
1
  70
1
  0
VERTEX
  8
0
  10
588.961809
  20
62.955983
  42
0.001041
  0
VERTEX
  8
0
  10
589.415365
  20
63.250389
  42
0.026862
  0
VERTEX
  8
0
  10
589.576337
  20
63.368138
  42
-0.041773
  0
VERTEX
  8
0
  10
590.293098
  20
63.860353
  42
-0.027186
  0
VERTEX
  8
0
  10
591.289009
  20
64.358624
  0
VERTEX
  8
0
  10
591.297536
  20
64.362323
  42
-0.027582
  0
VERTEX
  8
0
  10
591.163186
  20
64.498276
  42
-0.040469
  0
VERTEX
  8
0
  10
591.004322
  20
64.710129
  42
-0.054042
  0
VERTEX
  8
0
  10
590.886839
  20
64.950539
  42
-0.086860
  0
VERTEX
  8
0
  10
590.858002
  20
65.115284
  42
-0.040156
  0
VERTEX
  8
0
  10
590.882248
  20
65.416689
  42
-0.047498
  0
VERTEX
  8
0
  10
590.946886
  20
65.664185
  42
-0.050242
  0
VERTEX
  8
0
  10
591.050965
  20
65.879213
  42
-0.053412
  0
VERTEX
  8
0
  10
591.188413
  20
66.057079
  42
-0.095509
  0
VERTEX
  8
0
  10
591.519758
  20
66.291496
  42
-0.081371
  0
VERTEX
  8
0
  10
591.978655
  20
66.414998
  42
-0.063300
  0
VERTEX
  8
0
  10
592.436881
  20
66.403119
  42
-0.057043
  0
VERTEX
  8
0
  10
592.927244
  20
66.269354
  42
-0.058735
  0
VERTEX
  8
0
  10
593.383517
  20
66.021508
  42
-0.064340
  0
VERTEX
  8
0
  10
593.732698
  20
65.700461
  42
-0.033983
  0
VERTEX
  8
0
  10
593.874513
  20
65.506329
  0
VERTEX
  8
0
  10
593.893390
  20
65.476059
  42
0.016708
  0
VERTEX
  8
0
  10
594.090595
  20
65.600790
  42
0.057297
  0
VERTEX
  8
0
  10
594.464865
  20
65.923694
  42
0.070322
  0
VERTEX
  8
0
  10
594.614369
  20
66.140331
  42
0.100347
  0
VERTEX
  8
0
  10
594.640059
  20
66.235509
  42
0.071637
  0
VERTEX
  8
0
  10
594.597162
  20
66.774465
  42
0.015169
  0
VERTEX
  8
0
  10
594.535853
  20
67.011807
  42
0.009113
  0
VERTEX
  8
0
  10
594.386049
  20
67.493772
  42
-0.001792
  0
VERTEX
  8
0
  10
594.157139
  20
68.193913
  42
-0.007375
  0
VERTEX
  8
0
  10
594.092438
  20
68.404820
  42
-0.009627
  0
VERTEX
  8
0
  10
594.029134
  20
68.639331
  42
-0.008849
  0
VERTEX
  8
0
  10
593.904830
  20
68.628078
  42
-0.015939
  0
VERTEX
  8
0
  10
593.518044
  20
68.612325
  42
-0.007271
  0
VERTEX
  8
0
  10
593.308171
  20
68.613523
  42
-0.003127
  0
VERTEX
  8
0
  10
592.820376
  20
68.626455
  42
0.005090
  0
VERTEX
  8
0
  10
592.372006
  20
68.636580
  42
0.009517
  0
VERTEX
  8
0
  10
592.132115
  20
68.634988
  42
0.018904
  0
VERTEX
  8
0
  10
591.761347
  20
68.611422
  42
0.024731
  0
VERTEX
  8
0
  10
591.480503
  20
68.568767
  42
0.068339
  0
VERTEX
  8
0
  10
590.214353
  20
68.125652
  42
0.068622
  0
VERTEX
  8
0
  10
589.119430
  20
67.360156
  42
0.014882
  0
VERTEX
  8
0
  10
588.903571
  20
67.147920
  0
VERTEX
  8
0
  10
588.909633
  20
67.127853
  42
-0.004476
  0
VERTEX
  8
0
  10
589.145082
  20
66.322349
  42
-0.060046
  0
VERTEX
  8
0
  10
589.362076
  20
64.937960
  42
-0.074101
  0
VERTEX
  8
0
  10
589.217569
  20
63.657722
  42
-0.044616
  0
VERTEX
  8
0
  10
588.961809
  20
62.955983
  0
SEQEND
  0
POLYLINE
  8
0
  66
1
  70
1
  0
VERTEX
  8
0
  10
622.381638
  20
76.072791
  0
VERTEX
  8
0
  10
622.505212
  20
76.089100
  42
0.026768
  0
VERTEX
  8
0
  10
624.476858
  20
76.463556
  42
0.033206
  0
VERTEX
  8
0
  10
626.540075
  20
77.119000
  42
0.035995
  0
VERTEX
  8
0
  10
628.012140
  20
77.822742
  0
VERTEX
  8
0
  10
627.784379
  20
77.707315
  42
-0.033827
  0
VERTEX
  8
0
  10
625.768744
  20
76.865656
  42
-0.038333
  0
VERTEX
  8
0
  10
623.852049
  20
76.373588
  42
0.008741
  0
VERTEX
  8
0
  10
622.899253
  20
76.188218
  42
0.004885
  0
VERTEX
  8
0
  10
622.381638
  20
76.072791
  0
SEQEND
  0
ENDSEC
  0
EOF
